<svg id="Layer_1" data-name="Layer 1" xmlns="http://www.w3.org/2000/svg" xmlns:xlink="http://www.w3.org/1999/xlink" viewBox="0 0 41.98 48.12"><defs><style>.cls-1{fill:url(#linear-gradient);}</style><linearGradient id="linear-gradient" x1="8.57" y1="4.51" x2="34.33" y2="41.3" gradientUnits="userSpaceOnUse"><stop offset="0" stop-color="#ffff2e"/><stop offset="1" stop-color="#ff913d"/></linearGradient></defs><path class="cls-1" d="M41.23,21.06c0,12.88-9.06,26.31-20.24,26.31S.75,33.94.75,21.06,9.81.75,21,.75,41.23,8.19,41.23,21.06Z"/><path d="M21,48.12C9,48.12,0,33.84,0,21.06,0,8.66,8.63,0,21,0S42,8.66,42,21.06C42,33.84,33,48.12,21,48.12ZM21,1.5C9.33,1.5,1.5,9.36,1.5,21.06,1.5,33.13,9.83,46.62,21,46.62S40.48,33.13,40.48,21.06C40.48,9.36,32.65,1.5,21,1.5Z"/><path d="M21.21,29.42A1.25,1.25,0,0,1,20,28.17c0-1.89,0-4.25,2.5-6.13l1-.71c2.21-1.58,3.25-2.44,2.77-4.47-.55-2.36-3-3.35-5.15-3.29s-4.47,1.18-4.86,3.52a1.25,1.25,0,0,1-2.47-.42c.64-3.73,4.1-5.5,7.25-5.6s6.79,1.48,7.67,5.22-1.59,5.52-3.75,7.07c-.31.22-.62.44-.93.68-1.43,1.07-1.5,2.21-1.5,4.13A1.24,1.24,0,0,1,21.21,29.42Z"/><ellipse cx="21.21" cy="33.94" rx="2.04" ry="1.93"/></svg>