<svg id="Layer_1" data-name="Layer 1" xmlns="http://www.w3.org/2000/svg" xmlns:xlink="http://www.w3.org/1999/xlink" viewBox="0 0 42.52 48.19"><defs><style>.cls-1{fill:url(#linear-gradient);}.cls-2{fill:red;}</style><linearGradient id="linear-gradient" x1="8.84" y1="4.55" x2="34.6" y2="41.34" gradientUnits="userSpaceOnUse"><stop offset="0" stop-color="#ffff2e"/><stop offset="1" stop-color="#ff913d"/></linearGradient></defs><path class="cls-1" d="M41.5,21.09c0,12.88-9.06,26.32-20.24,26.32S1,34,1,21.09,10.08.78,21.26.78,41.5,8.22,41.5,21.09Z"/><path d="M21.26,48.16c-12,0-21-14.29-21-27.07C.27,8.69,8.9,0,21.26,0s21,8.66,21,21.06C42.25,33.87,33.27,48.16,21.26,48.16Zm0-46.63C9.6,1.53,1.77,9.39,1.77,21.09c0,12.07,8.33,25.57,19.49,25.57s19.49-13.5,19.49-25.57C40.75,9.39,32.92,1.53,21.26,1.53Z"/><path d="M16,20.5a3.27,3.27,0,0,1-3.45,3.07A3.27,3.27,0,0,1,9.06,20.5a3.27,3.27,0,0,1,3.44-3.07A3.28,3.28,0,0,1,16,20.5Z"/><path d="M33.46,20.5A3.27,3.27,0,0,1,30,23.57a3.27,3.27,0,0,1-3.45-3.07A3.28,3.28,0,0,1,30,17.43,3.27,3.27,0,0,1,33.46,20.5Z"/><path d="M27.05,8.78c3.51,1.05,7,3.28,8.58,6.63a12.18,12.18,0,0,0-9.08-3.88,1.41,1.41,0,1,1,.5-2.75Z"/><path d="M16,11.53a12.17,12.17,0,0,0-9.08,3.88c1.58-3.36,5.08-5.59,8.6-6.63A1.41,1.41,0,1,1,16,11.53Z"/><path class="cls-2" d="M8.88,33.58c5.27,11.16,19.87,11.22,24.76,0Z"/><path d="M21.42,42.72A14.71,14.71,0,0,1,8.2,33.9l-.5-1.07H34.78l-.45,1.05c-2.38,5.45-7.13,8.76-12.7,8.84Zm-11.3-8.39a13,13,0,0,0,11.49,6.89,12.35,12.35,0,0,0,10.84-6.89Z"/><path d="M21.44,42.72C15.16,42.72,9.5,38,6.64,30.43A.75.75,0,1,1,8,29.9C10.7,37,15.89,41.31,21.58,41.22S32,36.92,34.47,29.92a.75.75,0,0,1,1-.46.74.74,0,0,1,.46.95c-2.66,7.63-8,12.23-14.29,12.31Z"/><path d="M34.27,33H8.48a.75.75,0,0,1,0-1.5H34.27a.75.75,0,1,1,0,1.5Z"/></svg>