<svg id="Layer_1" data-name="Layer 1" xmlns="http://www.w3.org/2000/svg" xmlns:xlink="http://www.w3.org/1999/xlink" viewBox="0 0 42.52 48.19"><defs><style>.cls-1{fill:url(#linear-gradient);}.cls-2{fill:#fff;}</style><linearGradient id="linear-gradient" x1="8.84" y1="4.55" x2="34.6" y2="41.34" gradientUnits="userSpaceOnUse"><stop offset="0" stop-color="#ffff2e"/><stop offset="1" stop-color="#ff913d"/></linearGradient></defs><path class="cls-1" d="M41.5,21.09c0,12.88-9.06,26.32-20.24,26.32S1,34,1,21.09,10.08.78,21.26.78,41.5,8.22,41.5,21.09Z"/><path d="M21.26,48.16c-12,0-21-14.29-21-27.07C.27,8.69,8.9,0,21.26,0s21,8.66,21,21.06C42.25,33.87,33.27,48.16,21.26,48.16Zm0-46.63C9.6,1.53,1.77,9.39,1.77,21.09c0,12.07,8.33,25.57,19.49,25.57s19.49-13.5,19.49-25.57C40.75,9.39,32.92,1.53,21.26,1.53Z"/><path class="cls-2" d="M19.23,21.05V17.39c0-4-2.95-7.27-6.58-7.27h0c-3.64,0-6.58,3.25-6.58,7.27v3.66"/><path d="M20,21.05h-1.5V17.39c0-3.6-2.62-6.52-5.83-6.52s-5.83,2.92-5.83,6.52v3.66H5.32V17.39c0-4.42,3.29-8,7.33-8S20,13,20,17.39Z"/><rect x="11.15" y="15.58" width="3" height="5.47"/><path class="cls-2" d="M37,21.05V17.39c0-4-2.94-7.27-6.58-7.27h0c-3.63,0-6.58,3.25-6.58,7.27v3.66"/><path d="M37.73,21.05h-1.5V17.39c0-3.6-2.61-6.52-5.83-6.52s-5.83,2.92-5.83,6.52v3.66h-1.5V17.39c0-4.42,3.29-8,7.33-8s7.33,3.6,7.33,8Z"/><rect x="28.9" y="15.58" width="3" height="5.47"/><rect x="17.65" y="27.95" width="8.25" height="11.79"/><rect class="cls-2" x="17.65" y="27.95" width="8.25" height="1.44"/><rect x="17.65" y="27.46" width="8.25" height="0.49"/></svg>