<svg id="Layer_1" data-name="Layer 1" xmlns="http://www.w3.org/2000/svg" xmlns:xlink="http://www.w3.org/1999/xlink" viewBox="0 0 42.52 48.19"><defs><style>.cls-1{fill:url(#linear-gradient);}</style><linearGradient id="linear-gradient" x1="8.84" y1="4.55" x2="34.6" y2="41.34" gradientUnits="userSpaceOnUse"><stop offset="0" stop-color="#ffff2e"/><stop offset="1" stop-color="#ff913d"/></linearGradient></defs><path class="cls-1" d="M41.5,21.09c0,12.88-9.06,26.32-20.24,26.32S1,34,1,21.09,10.08.78,21.26.78,41.5,8.22,41.5,21.09Z"/><path d="M21.26,48.16c-12,0-21-14.29-21-27.07C.27,8.69,8.9,0,21.26,0s21,8.66,21,21.06C42.25,33.87,33.27,48.16,21.26,48.16Zm0-46.63C9.6,1.53,1.77,9.39,1.77,21.09c0,12.07,8.33,25.57,19.49,25.57s19.49-13.5,19.49-25.57C40.75,9.39,32.92,1.53,21.26,1.53Z"/><path d="M16.86,22.47a3.79,3.79,0,1,1-3.78-3.79A3.78,3.78,0,0,1,16.86,22.47Z"/><path d="M27.49,18.68h3.4A2.34,2.34,0,0,1,33.23,21v.45a0,0,0,0,1,0,0H25.15a0,0,0,0,1,0,0V21A2.34,2.34,0,0,1,27.49,18.68Z"/><path d="M18.12,37.69c4.83.79,9.75-.6,12.53-4.83-.82,5.61-8.13,8-12.53,4.83Z"/><path d="M7.65,15.4c.69-3.5,4.64-6.43,8.26-5.47a1,1,0,0,1,.73,1.22c-.42,1.31-2.23.55-3.23.75C11,11.88,9,13.46,7.65,15.4Z"/></svg>