<svg id="Layer_1" data-name="Layer 1" xmlns="http://www.w3.org/2000/svg" xmlns:xlink="http://www.w3.org/1999/xlink" viewBox="0 0 42.52 48.19"><defs><style>.cls-1{fill:url(#linear-gradient);}</style><linearGradient id="linear-gradient" x1="8.84" y1="4.55" x2="34.6" y2="41.34" gradientUnits="userSpaceOnUse"><stop offset="0" stop-color="#ffff2e"/><stop offset="1" stop-color="#ff913d"/></linearGradient></defs><path class="cls-1" d="M41.5,21.09c0,12.88-9.06,26.32-20.24,26.32S1,34,1,21.09,10.08.78,21.26.78,41.5,8.22,41.5,21.09Z"/><path d="M21.26,48.16c-12,0-21-14.29-21-27.07C.27,8.69,8.9,0,21.26,0s21,8.66,21,21.06C42.25,33.87,33.27,48.16,21.26,48.16Zm0-46.63C9.6,1.53,1.77,9.39,1.77,21.09c0,12.07,8.33,25.57,19.49,25.57s19.49-13.5,19.49-25.57C40.75,9.39,32.92,1.53,21.26,1.53Z"/><path d="M28.88,36.44H13.44A1.43,1.43,0,0,1,12,35h0a1.43,1.43,0,0,1,1.43-1.43H28.88A1.43,1.43,0,0,1,30.31,35h0A1.43,1.43,0,0,1,28.88,36.44Z"/><path d="M30.64,22.41a2.84,2.84,0,1,1-2.83-2.84A2.83,2.83,0,0,1,30.64,22.41Z"/><path d="M17.55,22.41a2.84,2.84,0,1,1-2.83-2.84A2.83,2.83,0,0,1,17.55,22.41Z"/><path d="M29.49,15H25.87a2,2,0,0,0-1.95,2h7.51A1.94,1.94,0,0,0,29.49,15Z"/><path d="M9.3,19.7h0a.75.75,0,0,1,0-1.06l4.09-4.06a.75.75,0,0,1,1.06,0h0a.75.75,0,0,1,0,1.06l-4.1,4A.75.75,0,0,1,9.3,19.7Z"/></svg>