<svg id="Layer_1" data-name="Layer 1" xmlns="http://www.w3.org/2000/svg" xmlns:xlink="http://www.w3.org/1999/xlink" viewBox="0 0 42.52 48.19"><defs><style>.cls-1{fill:url(#linear-gradient);}.cls-2{fill:#fff;}</style><linearGradient id="linear-gradient" x1="8.84" y1="4.55" x2="34.6" y2="41.34" gradientUnits="userSpaceOnUse"><stop offset="0" stop-color="#ffff2e"/><stop offset="1" stop-color="#ff913d"/></linearGradient></defs><path class="cls-1" d="M41.5,21.09c0,12.88-9.06,26.32-20.24,26.32S1,34,1,21.09,10.08.78,21.26.78,41.5,8.22,41.5,21.09Z"/><path d="M21.26,48.16c-12,0-21-14.29-21-27.07C.27,8.69,8.9,0,21.26,0s21,8.66,21,21.06C42.25,33.87,33.27,48.16,21.26,48.16Zm0-46.63C9.6,1.53,1.77,9.39,1.77,21.09c0,12.07,8.33,25.57,19.49,25.57s19.49-13.5,19.49-25.57C40.75,9.39,32.92,1.53,21.26,1.53Z"/><path d="M16,20.87a3.45,3.45,0,1,1-3.45-3.44A3.45,3.45,0,0,1,16,20.87Z"/><path d="M33.46,20.87A3.45,3.45,0,1,1,30,17.43,3.45,3.45,0,0,1,33.46,20.87Z"/><path class="cls-2" d="M8.18,32.28c5.56,12.36,21,12.43,26.16,0A237.8,237.8,0,0,1,8.18,32.28Z"/><path d="M21.43,42.32c-5.9,0-11.22-3.71-13.94-9.73L7,31.46l1.23.07a236.35,236.35,0,0,0,26.08,0l1.19-.07L35,32.57c-2.5,6-7.51,9.67-13.4,9.75Zm-12-9.23C12,38,16.63,40.92,21.61,40.82s9.15-2.93,11.54-7.73A234.78,234.78,0,0,1,9.42,33.09Z"/><path d="M7.22,16.43C7.9,12.93,11.85,10,15.47,11a1,1,0,0,1,.74,1.22c-.43,1.32-2.24.56-3.23.75a7.2,7.2,0,0,0-5.76,3.51Z"/><path d="M35.3,16.43a7.2,7.2,0,0,0-5.76-3.51c-1-.18-3.13.61-3.26-1a1,1,0,0,1,.77-1c3.62-.95,7.57,2,8.25,5.48Z"/></svg>