<svg id="Layer_1" data-name="Layer 1" xmlns="http://www.w3.org/2000/svg" xmlns:xlink="http://www.w3.org/1999/xlink" viewBox="0 0 48.19 51.02"><defs><style>.cls-1{fill:url(#linear-gradient);}.cls-2{fill:url(#linear-gradient-2);}.cls-3{fill:url(#linear-gradient-3);}.cls-4{fill:#3a3a3a;}</style><linearGradient id="linear-gradient" x1="11.67" y1="4.51" x2="37.43" y2="41.3" gradientUnits="userSpaceOnUse"><stop offset="0" stop-color="#ffff2e"/><stop offset="1" stop-color="#ff913d"/></linearGradient><linearGradient id="linear-gradient-2" x1="3.62" y1="28.36" x2="19.48" y2="12.5" gradientUnits="userSpaceOnUse"><stop offset="0" stop-color="#a1d78d"/><stop offset="0.18" stop-color="#a3da90"/><stop offset="0.31" stop-color="#abe399"/><stop offset="0.43" stop-color="#b7f2a9"/><stop offset="0.49" stop-color="#c1ffb6"/><stop offset="0.5" stop-color="#befbb2"/><stop offset="0.56" stop-color="#b1eba1"/><stop offset="0.63" stop-color="#a8df96"/><stop offset="0.73" stop-color="#a2d98f"/><stop offset="1" stop-color="#a1d78d"/></linearGradient><linearGradient id="linear-gradient-3" x1="27.79" y1="29.28" x2="45.49" y2="11.57" xlink:href="#linear-gradient-2"/></defs><path class="cls-1" d="M44.33,21.06c0,12.88-9.06,26.31-20.24,26.31S3.85,33.94,3.85,21.06,12.92.75,24.09.75,44.33,8.19,44.33,21.06Z"/><path d="M24.09,48.12c-12,0-21-14.28-21-27.06C3.1,8.66,11.74,0,24.09,0s21,8.66,21,21.06C45.08,33.84,36.11,48.12,24.09,48.12Zm0-46.62C12.44,1.5,4.6,9.36,4.6,21.06c0,12.07,8.34,25.56,19.49,25.56S43.58,33.13,43.58,21.06C43.58,9.36,35.75,1.5,24.09,1.5Z"/><path class="cls-2" d="M.85,13.42H17.79a6.3,6.3,0,0,1,6.3,6.3V23a6.3,6.3,0,0,1-6.3,6.3H7.15A6.3,6.3,0,0,1,.85,23V13.42A0,0,0,0,1,.85,13.42Z"/><path d="M17,30.13H8a8,8,0,0,1-8-8V12.57H17a8,8,0,0,1,8,8v1.57A8,8,0,0,1,17,30.13ZM1.7,14.27v7.87A6.29,6.29,0,0,0,8,28.43h9a6.29,6.29,0,0,0,6.29-6.29V20.57A6.3,6.3,0,0,0,17,14.27Z"/><path class="cls-3" d="M30.4,13.42H47.34a0,0,0,0,1,0,0V23a6.3,6.3,0,0,1-6.3,6.3H30.4a6.3,6.3,0,0,1-6.3-6.3V19.72A6.3,6.3,0,0,1,30.4,13.42Z"/><path d="M40.19,30.13H31.24a8,8,0,0,1-8-8V20.57a8,8,0,0,1,8-8h17v9.57A8,8,0,0,1,40.19,30.13ZM31.24,14.27a6.31,6.31,0,0,0-6.3,6.3v1.57a6.3,6.3,0,0,0,6.3,6.29h9a6.3,6.3,0,0,0,6.3-6.29V14.27Z"/><rect x="10.65" y="20.19" width="7.05" height="2.68" rx="1.18"/><rect x="30.48" y="20.19" width="7.05" height="2.68" rx="1.18"/><path d="M27.28,35.8H20.91a1.54,1.54,0,0,1-1.55-1.55h0a1.54,1.54,0,0,1,1.55-1.55h6.37a1.54,1.54,0,0,1,1.55,1.55h0A1.54,1.54,0,0,1,27.28,35.8Z"/><path class="cls-4" d="M28.36,42a1.76,1.76,0,0,0-1.75-1.57h-5A1.75,1.75,0,0,0,19.83,42l-.16,1.46L22,49.9A1.67,1.67,0,0,0,23.57,51h1.05a1.67,1.67,0,0,0,1.59-1.12l2.31-6.44Z"/></svg>