<svg id="Layer_1" data-name="Layer 1" xmlns="http://www.w3.org/2000/svg" xmlns:xlink="http://www.w3.org/1999/xlink" viewBox="0 0 42.52 48.19"><defs><style>.cls-1{fill:url(#linear-gradient);}.cls-2{fill:#fff;}</style><linearGradient id="linear-gradient" x1="8.84" y1="4.55" x2="34.6" y2="41.34" gradientUnits="userSpaceOnUse"><stop offset="0" stop-color="#ffff2e"/><stop offset="1" stop-color="#ff913d"/></linearGradient></defs><path class="cls-1" d="M41.5,21.09c0,12.88-9.06,26.32-20.24,26.32S1,34,1,21.09,10.08.78,21.26.78,41.5,8.22,41.5,21.09Z"/><path d="M21.26,48.16c-12,0-21-14.29-21-27.07C.27,8.69,8.9,0,21.26,0s21,8.66,21,21.06C42.25,33.87,33.27,48.16,21.26,48.16Zm0-46.63C9.6,1.53,1.77,9.39,1.77,21.09c0,12.07,8.33,25.57,19.49,25.57s19.49-13.5,19.49-25.57C40.75,9.39,32.92,1.53,21.26,1.53Z"/><circle class="cls-2" cx="10.64" cy="19.69" r="7.35"/><path d="M10.64,27.79a8.1,8.1,0,1,1,8.1-8.1A8.1,8.1,0,0,1,10.64,27.79Zm0-14.7a6.6,6.6,0,1,0,6.6,6.6A6.61,6.61,0,0,0,10.64,13.09Z"/><path d="M18.26,21.52a2.6,2.6,0,1,1-2.6-2.6A2.6,2.6,0,0,1,18.26,21.52Z"/><circle class="cls-2" cx="31.61" cy="19.69" r="7.35"/><path d="M31.61,27.79a8.1,8.1,0,1,1,8.1-8.1A8.1,8.1,0,0,1,31.61,27.79Zm0-14.7a6.6,6.6,0,1,0,6.6,6.6A6.61,6.61,0,0,0,31.61,13.09Z"/><path d="M39.23,21.52a2.6,2.6,0,1,1-2.6-2.6A2.6,2.6,0,0,1,39.23,21.52Z"/><path d="M27.41,40.2a11.18,11.18,0,0,1-5.28-2c-2.56-1.52-4.08-2-5.23-1.6S15,38.12,14.11,40.1l-1.38-.58c1-2.44,2.21-3.81,3.7-4.3,1.88-.62,3.95.25,6.46,1.74,1.84,1.09,3.91,2.13,5.4,1.59a4,4,0,0,0,2.1-2.71l1.42.49c-.68,2-1.66,3.14-3,3.63A4.16,4.16,0,0,1,27.41,40.2Z"/></svg>