<svg id="Layer_1" data-name="Layer 1" xmlns="http://www.w3.org/2000/svg" xmlns:xlink="http://www.w3.org/1999/xlink" viewBox="0 0 42.52 48.19"><defs><style>.cls-1{fill:url(#linear-gradient);}.cls-2{fill:#fff;}</style><linearGradient id="linear-gradient" x1="8.84" y1="4.55" x2="34.6" y2="41.34" gradientUnits="userSpaceOnUse"><stop offset="0" stop-color="#ffff2e"/><stop offset="1" stop-color="#ff913d"/></linearGradient></defs><path class="cls-1" d="M41.5,21.09c0,12.88-9.06,26.32-20.24,26.32S1,34,1,21.09,10.08.78,21.26.78,41.5,8.22,41.5,21.09Z"/><path d="M21.26,48.16c-12,0-21-14.29-21-27.07C.27,8.69,8.9,0,21.26,0s21,8.66,21,21.06C42.25,33.87,33.27,48.16,21.26,48.16Zm0-46.63C9.6,1.53,1.77,9.39,1.77,21.09c0,12.07,8.33,25.57,19.49,25.57s19.49-13.5,19.49-25.57C40.75,9.39,32.92,1.53,21.26,1.53Z"/><circle class="cls-2" cx="9.96" cy="20.75" r="8.4" transform="translate(-12.49 25.85) rotate(-77.17)"/><path d="M10,29.9a9.15,9.15,0,1,1,9.14-9.15A9.15,9.15,0,0,1,10,29.9Zm0-16.79a7.65,7.65,0,1,0,7.64,7.64A7.65,7.65,0,0,0,10,13.11Z"/><path d="M12,20.75A2.08,2.08,0,1,1,10,18.67,2.08,2.08,0,0,1,12,20.75Z"/><circle class="cls-2" cx="32.56" cy="20.75" r="8.4" transform="translate(-5.42 13.8) rotate(-22.14)"/><path d="M32.56,29.9a9.15,9.15,0,1,1,9.15-9.15A9.15,9.15,0,0,1,32.56,29.9Zm0-16.79a7.65,7.65,0,1,0,7.65,7.64A7.65,7.65,0,0,0,32.56,13.11Z"/><circle cx="32.56" cy="20.75" r="2.08"/><rect x="16.52" y="36.47" width="9.47" height="2.77" rx="1.08"/></svg>