<svg id="Layer_1" data-name="Layer 1" xmlns="http://www.w3.org/2000/svg" xmlns:xlink="http://www.w3.org/1999/xlink" viewBox="0 0 42.52 48.19"><defs><style>.cls-1{fill:url(#linear-gradient);}</style><linearGradient id="linear-gradient" x1="8.84" y1="4.55" x2="34.6" y2="41.34" gradientUnits="userSpaceOnUse"><stop offset="0" stop-color="#ffc984"/><stop offset="1" stop-color="#ff4900"/></linearGradient></defs><path class="cls-1" d="M41.5,21.09c0,12.88-9.06,26.32-20.24,26.32S1,34,1,21.09,10.08.78,21.26.78,41.5,8.22,41.5,21.09Z"/><path d="M21.26,48.16c-12,0-21-14.29-21-27.07C.27,8.69,8.9,0,21.26,0s21,8.66,21,21.06C42.25,33.87,33.27,48.16,21.26,48.16Zm0-46.63C9.6,1.53,1.77,9.39,1.77,21.09c0,12.07,8.33,25.57,19.49,25.57s19.49-13.5,19.49-25.57C40.75,9.39,32.92,1.53,21.26,1.53Z"/><path d="M24.64,36.47H17.88a1.57,1.57,0,0,1-1.57-1.57h0a1.57,1.57,0,0,1,1.57-1.57h6.76a1.57,1.57,0,0,1,1.57,1.57h0A1.57,1.57,0,0,1,24.64,36.47Z"/><path d="M8.75,19.68h0a.75.75,0,0,1,0-1.06l4.38-4.34a.75.75,0,0,1,1.06,0h0a.75.75,0,0,1,0,1.06L9.81,19.69A.75.75,0,0,1,8.75,19.68Z"/><path d="M16.83,21.85c0,1.66-1,3-2.26,3s-2.27-1.34-2.27-3,1-3,2.27-3S16.83,20.19,16.83,21.85Z"/><path d="M33.77,19.68h0a.75.75,0,0,0,0-1.06l-4.38-4.34a.75.75,0,0,0-1.06,0h0a.75.75,0,0,0,0,1.06l4.39,4.34A.75.75,0,0,0,33.77,19.68Z"/><path d="M25.69,21.85c0,1.66,1,3,2.26,3s2.27-1.34,2.27-3-1-3-2.27-3S25.69,20.19,25.69,21.85Z"/></svg>