<svg id="Layer_1" data-name="Layer 1" xmlns="http://www.w3.org/2000/svg" xmlns:xlink="http://www.w3.org/1999/xlink" viewBox="0 0 42.52 48.19"><defs><style>.cls-1{fill:url(#linear-gradient);}.cls-2{fill:red;}</style><linearGradient id="linear-gradient" x1="8.84" y1="4.55" x2="34.6" y2="41.34" gradientUnits="userSpaceOnUse"><stop offset="0" stop-color="#ffff2e"/><stop offset="1" stop-color="#ff913d"/></linearGradient></defs><path class="cls-1" d="M41.5,21.09c0,12.88-9.06,26.32-20.24,26.32S1,34,1,21.09,10.08.78,21.26.78,41.5,8.22,41.5,21.09Z"/><path d="M21.26,48.16c-12,0-21-14.29-21-27.07C.27,8.69,8.9,0,21.26,0s21,8.66,21,21.06C42.25,33.87,33.27,48.16,21.26,48.16Zm0-46.63C9.6,1.53,1.77,9.39,1.77,21.09c0,12.07,8.33,25.57,19.49,25.57s19.49-13.5,19.49-25.57C40.75,9.39,32.92,1.53,21.26,1.53Z"/><path d="M19,20.56a.72.72,0,0,1-.75-.72v-.05a4.41,4.41,0,0,0-4.54-4.26,4.41,4.41,0,0,0-4.54,4.26.77.77,0,0,1-.75.77.73.73,0,0,1-.75-.72,5.92,5.92,0,0,1,6-5.81,5.91,5.91,0,0,1,6,5.76A.77.77,0,0,1,19,20.56Z"/><path d="M34.14,20.56a.72.72,0,0,1-.75-.72v-.05a4.55,4.55,0,0,0-9.08,0,.77.77,0,0,1-.75.77.73.73,0,0,1-.75-.72,6,6,0,0,1,12.08-.05A.77.77,0,0,1,34.14,20.56Z"/><path d="M21,42.07h0A12.64,12.64,0,0,1,8.38,29.43v-1.7H33.66v1.7A12.64,12.64,0,0,1,21,42.07Z"/><path class="cls-2" d="M21.63,35.56H20.42a4.78,4.78,0,0,0-4.78,4.78h0c3.61,2.4,7.2,2.21,10.77,0h0A4.78,4.78,0,0,0,21.63,35.56Z"/><path d="M21,42.82A13.41,13.41,0,0,1,7.63,29.43V27.72h1.5v1.71a11.89,11.89,0,1,0,23.78,0V27.72h1.5v1.71A13.4,13.4,0,0,1,21,42.82Z"/></svg>