<svg id="Layer_1" data-name="Layer 1" xmlns="http://www.w3.org/2000/svg" xmlns:xlink="http://www.w3.org/1999/xlink" viewBox="0 0 42.52 48.19"><defs><style>.cls-1{fill:url(#linear-gradient);}</style><linearGradient id="linear-gradient" x1="8.84" y1="4.55" x2="34.6" y2="41.34" gradientUnits="userSpaceOnUse"><stop offset="0" stop-color="#ffff2e"/><stop offset="1" stop-color="#ff913d"/></linearGradient></defs><path class="cls-1" d="M41.5,21.09c0,12.88-9.06,26.32-20.24,26.32S1,34,1,21.09,10.08.78,21.26.78,41.5,8.22,41.5,21.09Z"/><path d="M21.26,48.16c-12,0-21-14.29-21-27.07C.27,8.69,8.9,0,21.26,0s21,8.66,21,21.06C42.25,33.87,33.27,48.16,21.26,48.16Zm0-46.63C9.6,1.53,1.77,9.39,1.77,21.09c0,12.07,8.33,25.57,19.49,25.57s19.49-13.5,19.49-25.57C40.75,9.39,32.92,1.53,21.26,1.53Z"/><path d="M21.26,32a3.49,3.49,0,1,0,3.49,3.49A3.49,3.49,0,0,0,21.26,32Z"/><path d="M25.39,11.66a.57.57,0,0,0,0-.13,4.14,4.14,0,0,0-8.24,0s0,0,0,0,0,.22,0,.34v7.37a9,9,0,0,0,.95,4.1L19.84,27a1.6,1.6,0,0,0,2.85,0l1.79-3.58a9.13,9.13,0,0,0,.94-4.09V11.94A2.4,2.4,0,0,0,25.39,11.66Z"/></svg>