<svg id="Layer_1" data-name="Layer 1" xmlns="http://www.w3.org/2000/svg" xmlns:xlink="http://www.w3.org/1999/xlink" viewBox="0 0 42.52 48.19"><defs><style>.cls-1{fill:url(#linear-gradient);}.cls-2{fill:#fff;}</style><linearGradient id="linear-gradient" x1="8.84" y1="4.55" x2="34.6" y2="41.34" gradientUnits="userSpaceOnUse"><stop offset="0" stop-color="#ffff2e"/><stop offset="1" stop-color="#ff913d"/></linearGradient></defs><path class="cls-1" d="M41.5,21.09c0,12.88-9.06,26.32-20.24,26.32S1,34,1,21.09,10.08.78,21.26.78,41.5,8.22,41.5,21.09Z"/><path d="M21.26,48.16c-12,0-21-14.29-21-27.07C.27,8.69,8.9,0,21.26,0s21,8.66,21,21.06C42.25,33.87,33.27,48.16,21.26,48.16Zm0-46.63C9.6,1.53,1.77,9.39,1.77,21.09c0,12.07,8.33,25.57,19.49,25.57s19.49-13.5,19.49-25.57C40.75,9.39,32.92,1.53,21.26,1.53Z"/><circle class="cls-2" cx="21.26" cy="21.39" r="10.09"/><path d="M21.26,32.49a11.1,11.1,0,1,1,11.09-11.1A11.1,11.1,0,0,1,21.26,32.49Zm0-20.19a9.1,9.1,0,1,0,9.09,9.09A9.1,9.1,0,0,0,21.26,12.3Z"/><rect x="19.44" y="18.17" width="3.63" height="24.87" rx="0.92"/><path d="M16.43,29.2V39.5a1,1,0,0,0,.48.88L19.58,42h3.36l2.66-1.66a1,1,0,0,0,.49-.88V29.2Z"/></svg>