<svg id="Layer_1" data-name="Layer 1" xmlns="http://www.w3.org/2000/svg" xmlns:xlink="http://www.w3.org/1999/xlink" viewBox="0 0 42.52 48.19"><defs><style>.cls-1{fill:url(#linear-gradient);}.cls-2{fill:#fff;}</style><linearGradient id="linear-gradient" x1="8.84" y1="4.55" x2="34.6" y2="41.34" gradientUnits="userSpaceOnUse"><stop offset="0" stop-color="#ffff2e"/><stop offset="1" stop-color="#ff913d"/></linearGradient></defs><path class="cls-1" d="M41.5,21.09c0,12.88-9.06,26.32-20.24,26.32S1,34,1,21.09,10.08.78,21.26.78,41.5,8.22,41.5,21.09Z"/><path d="M21.26,48.16c-12,0-21-14.29-21-27.07C.27,8.69,8.9,0,21.26,0s21,8.66,21,21.06C42.25,33.87,33.27,48.16,21.26,48.16Zm0-46.63C9.6,1.53,1.77,9.39,1.77,21.09c0,12.07,8.33,25.57,19.49,25.57s19.49-13.5,19.49-25.57C40.75,9.39,32.92,1.53,21.26,1.53Z"/><circle class="cls-2" cx="13.49" cy="20.66" r="7.71" transform="translate(-10.66 15.59) rotate(-45)"/><path d="M13.49,29.05a8.4,8.4,0,1,1,8.39-8.39A8.4,8.4,0,0,1,13.49,29.05Zm0-15.41a7,7,0,1,0,7,7A7,7,0,0,0,13.49,13.64Z"/><path d="M17.59,16.56a4.1,4.1,0,1,1-4.1-4.1A4.11,4.11,0,0,1,17.59,16.56Z"/><circle class="cls-2" cx="29.03" cy="20.66" r="7.71" transform="translate(3.98 46) rotate(-80.76)"/><path d="M29,29.05a8.4,8.4,0,1,1,8.4-8.39A8.39,8.39,0,0,1,29,29.05Zm0-15.41a7,7,0,1,0,7,7A7,7,0,0,0,29,13.64Z"/><path d="M33.13,16.56a4.1,4.1,0,1,1-4.1-4.1A4.1,4.1,0,0,1,33.13,16.56Z"/><path d="M21.37,38.08H21L16.56,38a1.5,1.5,0,1,1,.07-3l4.47.11a10.07,10.07,0,0,0,6-1.73l.86-.57a1.5,1.5,0,1,1,1.67,2.49l-.87.57A13.15,13.15,0,0,1,21.37,38.08Z"/></svg>