<svg id="Layer_1" data-name="Layer 1" xmlns="http://www.w3.org/2000/svg" xmlns:xlink="http://www.w3.org/1999/xlink" viewBox="0 0 48.19 48.19"><defs><style>.cls-1{fill:url(#linear-gradient);}.cls-2{fill:#cee657;}</style><linearGradient id="linear-gradient" x1="11.67" y1="4.55" x2="37.43" y2="41.34" gradientUnits="userSpaceOnUse"><stop offset="0" stop-color="#ffff2e"/><stop offset="1" stop-color="#ff913d"/></linearGradient></defs><path class="cls-1" d="M44.33,21.09c0,12.88-9.06,26.32-20.24,26.32S3.85,34,3.85,21.09,12.92.78,24.09.78,44.33,8.22,44.33,21.09Z"/><path d="M24.09,48.16c-12,0-21-14.29-21-27.07C3.1,8.69,11.74,0,24.09,0s21,8.66,21,21.06C45.08,33.87,36.11,48.16,24.09,48.16Zm0-46.63C12.44,1.53,4.6,9.39,4.6,21.09c0,12.07,8.34,25.57,19.49,25.57s19.49-13.5,19.49-25.57C43.58,9.39,35.75,1.53,24.09,1.53Z"/><rect class="cls-2" x="0.85" y="15.53" width="23.24" height="14.28" rx="2.64"/><path d="M21.1,30.66H3.84A3.85,3.85,0,0,1,0,26.81V18.52a3.84,3.84,0,0,1,3.84-3.84H21.1a3.84,3.84,0,0,1,3.84,3.84v8.29A3.85,3.85,0,0,1,21.1,30.66ZM3.84,16.38A2.14,2.14,0,0,0,1.7,18.52v8.29A2.15,2.15,0,0,0,3.84,29H21.1a2.16,2.16,0,0,0,2.15-2.15V18.52a2.15,2.15,0,0,0-2.15-2.14Z"/><rect class="cls-2" x="24.09" y="15.53" width="23.24" height="14.28" rx="2.64"/><path d="M44.34,30.66H27.09a3.85,3.85,0,0,1-3.84-3.85V18.52a3.84,3.84,0,0,1,3.84-3.84H44.34a3.85,3.85,0,0,1,3.85,3.84v8.29A3.86,3.86,0,0,1,44.34,30.66ZM27.09,16.38a2.15,2.15,0,0,0-2.15,2.14v8.29A2.16,2.16,0,0,0,27.09,29H44.34a2.15,2.15,0,0,0,2.15-2.15V18.52a2.14,2.14,0,0,0-2.15-2.14Z"/><path d="M18.17,22.67a3,3,0,1,1-3-3A3,3,0,0,1,18.17,22.67Z"/><path d="M36,22.67a3,3,0,1,1-3-3A3,3,0,0,1,36,22.67Z"/><path d="M19.07,36.71c1.54-.1,3.33,0,4.83,0s3.28-.1,4.84,0a6.85,6.85,0,0,1-9.67,0Z"/></svg>