<svg id="Layer_1" data-name="Layer 1" xmlns="http://www.w3.org/2000/svg" xmlns:xlink="http://www.w3.org/1999/xlink" viewBox="0 0 42.52 48.19"><defs><style>.cls-1{fill:url(#linear-gradient);}.cls-2{fill:#fff;}</style><linearGradient id="linear-gradient" x1="8.84" y1="4.55" x2="34.6" y2="41.34" gradientUnits="userSpaceOnUse"><stop offset="0" stop-color="#8bffb1"/><stop offset="1" stop-color="#3a794b"/></linearGradient></defs><path class="cls-1" d="M41.5,21.09c0,12.88-9.06,26.32-20.24,26.32S1,34,1,21.09,10.08.78,21.26.78,41.5,8.22,41.5,21.09Z"/><path d="M21.26,48.16c-12,0-21-14.29-21-27.07C.27,8.69,8.9,0,21.26,0s21,8.66,21,21.06C42.25,33.87,33.27,48.16,21.26,48.16Zm0-46.63C9.6,1.53,1.77,9.39,1.77,21.09c0,12.07,8.33,25.57,19.49,25.57s19.49-13.5,19.49-25.57C40.75,9.39,32.92,1.53,21.26,1.53Z"/><path d="M5.41,19.89c.39-7.56,12.59-6.59,13.91,0l-.19.06c-1.79-4-7-4.72-10.4-2.54A9.54,9.54,0,0,0,5.6,20l-.19-.06Z"/><path d="M36.92,20c-3.43-4.29-10.75-5.62-13.53,0l-.19-.06c1.08-4.77,7.71-6.86,11.65-4.17a5.14,5.14,0,0,1,2.26,4.17l-.19.06Z"/><path class="cls-2" d="M6.19,27.56c4,20,26.54,19.77,30.14,0Z"/><path d="M21.37,43.47c-6,0-13.83-4.11-16.16-15.72L5,26.56H37.53l-.22,1.17c-1.72,9.49-7.93,15.66-15.81,15.74ZM7.44,28.56c2.36,9.51,8.87,12.91,13.93,12.91h.11c5,0,11.46-3.49,13.62-12.91Z"/><rect x="14.58" y="27.88" width="2" height="13.1"/><rect x="25.94" y="27.88" width="2" height="13.1"/></svg>