<svg id="Layer_1" data-name="Layer 1" xmlns="http://www.w3.org/2000/svg" xmlns:xlink="http://www.w3.org/1999/xlink" viewBox="0 0 42.52 48.19"><defs><style>.cls-1{fill:red;}.cls-2{fill:url(#linear-gradient);}.cls-3{fill:#fff;}.cls-4{fill:none;stroke:#000;stroke-miterlimit:10;stroke-width:1.5px;}</style><linearGradient id="linear-gradient" x1="9.23" y1="5.16" x2="34.18" y2="40.8" gradientUnits="userSpaceOnUse"><stop offset="0" stop-color="#ffff2e"/><stop offset="1" stop-color="#ff913d"/></linearGradient></defs><path class="cls-1" d="M33,7.55A15.59,15.59,0,0,0,39.82,2c1.44,4.57.89,9.26-.73,14C37.52,12.39,35.59,9.4,33,7.55Z"/><path d="M39.17,18.06l-.77-1.77c-1.69-3.88-3.61-6.54-5.87-8.13l-1.09-.77,1.23-.53A15.05,15.05,0,0,0,39.2,1.55L40.07.28l.46,1.46c1.36,4.31,1.12,9-.73,14.49ZM34.38,7.71A19.8,19.8,0,0,1,39,13.92a21.12,21.12,0,0,0,.54-10.28A16.29,16.29,0,0,1,34.38,7.71Z"/><path class="cls-1" d="M9.56,7.55A15.59,15.59,0,0,1,2.7,2c-1.44,4.57-.89,9.26.73,14C5,12.39,6.93,9.4,9.56,7.55Z"/><path d="M3.34,18.06l-.62-1.83C.87,10.79.63,6.05,2,1.74L2.45.28l.87,1.27A15.05,15.05,0,0,0,9.85,6.86l1.23.53L10,8.16c-2.26,1.59-4.18,4.25-5.87,8.13ZM3,3.64a21,21,0,0,0,.54,10.28A19.8,19.8,0,0,1,8.14,7.71,16.29,16.29,0,0,1,3,3.64Z"/><path class="cls-2" d="M40.87,21.19c0,12.47-8.78,25.49-19.61,25.49S1.65,33.66,1.65,21.19,10.43,1.51,21.26,1.51,40.87,8.71,40.87,21.19Z"/><path d="M21.26,47.41C9.62,47.41.92,33.56.92,21.19.92,9.17,9.29.78,21.26.78S41.6,9.17,41.6,21.19C41.6,33.56,32.9,47.41,21.26,47.41Zm0-45.17C10,2.24,2.38,9.85,2.38,21.19,2.38,32.88,10.45,46,21.26,46S40.14,32.88,40.14,21.19C40.14,9.85,32.55,2.24,21.26,2.24Z"/><path class="cls-1" d="M32.85,26.88a4.77,4.77,0,1,1,1.07-6.67A4.77,4.77,0,0,1,32.85,26.88Z"/><path d="M32.85,26.87a4.78,4.78,0,0,1-6.67-1.06,4.93,4.93,0,0,1-.64-1.25,4.17,4.17,0,0,0,.46.82,3.93,3.93,0,1,0,.88-5.48,3.76,3.76,0,0,0-1.5,2.23,4.69,4.69,0,0,1,1.87-3,4.77,4.77,0,1,1,5.6,7.72Z"/><path d="M25.19,20.82l10.35-10-7.19,12.5a2,2,0,1,1-3.16-2.46Z"/><path class="cls-1" d="M9.67,26.88A4.77,4.77,0,1,0,8.6,20.21,4.77,4.77,0,0,0,9.67,26.88Z"/><path d="M9.67,26.87a4.77,4.77,0,0,0,6.66-1.06A5,5,0,0,0,17,24.56a4.17,4.17,0,0,1-.46.82,3.93,3.93,0,1,1-.88-5.48,3.76,3.76,0,0,1,1.5,2.23,4.69,4.69,0,0,0-1.87-3,4.77,4.77,0,1,0-5.6,7.72Z"/><path d="M17.33,20.82,7,10.78l7.19,12.5a2,2,0,1,0,3.16-2.46Z"/><path d="M31.91,26.54a4.11,4.11,0,0,1-5.86-1,4.89,4.89,0,0,1-.56-1.15A3.44,3.44,0,0,0,30.71,26a3.68,3.68,0,0,0,.77-5,3.36,3.36,0,0,0-4.82-.79,3.47,3.47,0,0,0-1.32,2A4.28,4.28,0,0,1,27,19.49a4.09,4.09,0,0,1,5.86,1A4.47,4.47,0,0,1,31.91,26.54Z"/><path d="M10.61,26.54a4.09,4.09,0,0,0,5.85-1A4.37,4.37,0,0,0,17,24.42a3.19,3.19,0,0,1-.4.75A3.37,3.37,0,0,1,11.8,26,3.69,3.69,0,0,1,11,21a3.35,3.35,0,0,1,4.81-.79,3.47,3.47,0,0,1,1.32,2,4.28,4.28,0,0,0-1.65-2.72,4.08,4.08,0,0,0-5.85,1A4.47,4.47,0,0,0,10.61,26.54Z"/><path class="cls-3" d="M26,39.85H16.48a6.1,6.1,0,0,1-6.1-6.11H32.14A6.11,6.11,0,0,1,26,39.85Z"/><path class="cls-4" d="M34.09,31.71v0c0,4.66-5.74,8.44-12.83,8.44h0c-7.09,0-12.83-3.78-12.83-8.44v0"/><polygon points="32.61 35.21 9.96 35.21 8.84 33.21 33.44 33.21 32.61 35.21"/></svg>