<svg id="Layer_1" data-name="Layer 1" xmlns="http://www.w3.org/2000/svg" xmlns:xlink="http://www.w3.org/1999/xlink" viewBox="0 0 42.52 48.19"><defs><style>.cls-1{fill:url(#linear-gradient);}.cls-2{fill:#fff;}</style><linearGradient id="linear-gradient" x1="8.84" y1="4.55" x2="34.6" y2="41.34" gradientUnits="userSpaceOnUse"><stop offset="0" stop-color="#ffff2e"/><stop offset="1" stop-color="#ff913d"/></linearGradient></defs><path class="cls-1" d="M41.5,21.09c0,12.88-9.06,26.32-20.24,26.32S1,34,1,21.09,10.08.78,21.26.78,41.5,8.22,41.5,21.09Z"/><path d="M21.26,48.16c-12,0-21-14.29-21-27.07C.27,8.69,8.9,0,21.26,0s21,8.66,21,21.06C42.25,33.87,33.27,48.16,21.26,48.16Zm0-46.63C9.6,1.53,1.77,9.39,1.77,21.09c0,12.07,8.33,25.57,19.49,25.57s19.49-13.5,19.49-25.57C40.75,9.39,32.92,1.53,21.26,1.53Z"/><path class="cls-2" d="M10.74,37.94a7.18,7.18,0,0,1,7.18-7.07H24.6a7.19,7.19,0,0,1,7.18,7.07Z"/><path d="M24.6,31.62A6.44,6.44,0,0,1,31,37.19H11.54a6.44,6.44,0,0,1,6.38-5.57H24.6m0-1.5H17.92A7.93,7.93,0,0,0,10,38.05v.64H32.53v-.64a7.93,7.93,0,0,0-7.93-7.93Z"/><path d="M26.4,27.22c-2.3-4.66,4.18-8.79,7.35-4.61l0,.19c-3.72-.95-6.26.79-7.11,4.47l-.19-.05Z"/><path d="M15.93,27.27c-.86-3.69-3.39-5.42-7.11-4.47l-.05-.19c2-3,7-1.79,7.68,1.64a4.11,4.11,0,0,1-.33,3l-.19.05Z"/><path d="M26,18.28a6,6,0,0,1,1.11-3,8.13,8.13,0,0,1,2.27-1.83c1.55-1.19,3.18-2.29,4.85-3.33a.16.16,0,0,1,.21.05,33.88,33.88,0,0,1-3.37,5,8.28,8.28,0,0,1-1.85,2.25,6,6,0,0,1-3,1.08.19.19,0,0,1-.21-.21Z"/><path d="M16.28,18.49a6,6,0,0,1-3-1.08,8.28,8.28,0,0,1-1.85-2.25q-1.8-2.33-3.37-4.83a.16.16,0,0,1,0-.21,34,34,0,0,1,5,3.33,8.13,8.13,0,0,1,2.27,1.83,6,6,0,0,1,1.11,3,.19.19,0,0,1-.21.21Z"/></svg>