<svg id="Layer_1" data-name="Layer 1" xmlns="http://www.w3.org/2000/svg" xmlns:xlink="http://www.w3.org/1999/xlink" viewBox="0 0 42.52 48.19"><defs><style>.cls-1{fill:url(#linear-gradient);}.cls-2{fill:#fff;}</style><linearGradient id="linear-gradient" x1="8.84" y1="4.55" x2="34.6" y2="41.34" gradientUnits="userSpaceOnUse"><stop offset="0" stop-color="#ffff2e"/><stop offset="1" stop-color="#ff913d"/></linearGradient></defs><path class="cls-1" d="M41.5,21.09c0,12.88-9.06,26.32-20.24,26.32S1,34,1,21.09,10.08.78,21.26.78,41.5,8.22,41.5,21.09Z"/><path d="M21.26,48.16c-12,0-21-14.29-21-27.07C.27,8.69,8.9,0,21.26,0s21,8.66,21,21.06C42.25,33.87,33.27,48.16,21.26,48.16Zm0-46.63C9.6,1.53,1.77,9.39,1.77,21.09c0,12.07,8.33,25.57,19.49,25.57s19.49-13.5,19.49-25.57C40.75,9.39,32.92,1.53,21.26,1.53Z"/><path d="M5.41,19.89c.39-7.56,12.59-6.59,13.91,0l-.19.06c-1.79-4-7-4.72-10.4-2.54A9.54,9.54,0,0,0,5.6,20l-.19-.06Z"/><path d="M36.92,20c-3.43-4.29-10.75-5.62-13.53,0l-.19-.06c1.08-4.77,7.71-6.86,11.65-4.17a5.14,5.14,0,0,1,2.26,4.17l-.19.06Z"/><path class="cls-2" d="M5.5,27.21c4.2,20.91,27.76,20.68,31.52,0Z"/><path d="M21.38,43.56c-6.19,0-14.21-4.23-16.61-16.2l-.19-.9H37.92l-.16.89C36,37.12,29.6,43.48,21.5,43.56ZM6.43,28c2.43,10.39,9.48,14.1,15,14.1h.11C26.91,42,33.89,38.27,36.11,28Z"/></svg>