<svg style="position: absolute; width: 0; height: 0;" width="0" height="0" version="1.1" xmlns="http://www.w3.org/2000/svg" xmlns:xlink="http://www.w3.org/1999/xlink">
<defs>
<symbol id="search" viewBox="0 0 951 1024">
	<title>search</title>
	<path class="path1" d="M658.286 475.429q0-105.714-75.143-180.857t-180.857-75.143-180.857 75.143-75.143 180.857 75.143 180.857 180.857 75.143 180.857-75.143 75.143-180.857zM950.857 950.857q0 29.714-21.714 51.429t-51.429 21.714q-30.857 0-51.429-21.714l-196-195.429q-102.286 70.857-228 70.857-81.714 0-156.286-31.714t-128.571-85.714-85.714-128.571-31.714-156.286 31.714-156.286 85.714-128.571 128.571-85.714 156.286-31.714 156.286 31.714 128.571 85.714 85.714 128.571 31.714 156.286q0 125.714-70.857 228l196 196q21.143 21.143 21.143 51.429z"></path>
</symbol>
<symbol id="envelope-o" viewBox="0 0 1024 1024">
	<title>envelope-o</title>
	<path class="path1" d="M950.857 859.429v-438.857q-18.286 20.571-39.429 37.714-153.143 117.714-243.429 193.143-29.143 24.571-47.429 38.286t-49.429 27.714-58.571 14h-1.143q-27.429 0-58.571-14t-49.429-27.714-47.429-38.286q-90.286-75.429-243.429-193.143-21.143-17.143-39.429-37.714v438.857q0 7.429 5.429 12.857t12.857 5.429h841.143q7.429 0 12.857-5.429t5.429-12.857zM950.857 258.857v-14t-0.286-7.429-1.714-7.143-3.143-5.143-5.143-4.286-8-1.429h-841.143q-7.429 0-12.857 5.429t-5.429 12.857q0 96 84 162.286 110.286 86.857 229.143 181.143 3.429 2.857 20 16.857t26.286 21.429 25.429 18 28.857 15.714 24.571 5.143h1.143q11.429 0 24.571-5.143t28.857-15.714 25.429-18 26.286-21.429 20-16.857q118.857-94.286 229.143-181.143 30.857-24.571 57.429-66t26.571-75.143zM1024 237.714v621.714q0 37.714-26.857 64.571t-64.571 26.857h-841.143q-37.714 0-64.571-26.857t-26.857-64.571v-621.714q0-37.714 26.857-64.571t64.571-26.857h841.143q37.714 0 64.571 26.857t26.857 64.571z"></path>
</symbol>
<symbol id="user" viewBox="0 0 805 1024">
	<title>user</title>
	<path class="path1" d="M804.571 802.857q0 68.571-41.714 108.286t-110.857 39.714h-499.429q-69.143 0-110.857-39.714t-41.714-108.286q0-30.286 2-59.143t8-62.286 15.143-62 24.571-55.714 35.429-46.286 48.857-30.571 63.714-11.429q5.143 0 24 12.286t42.571 27.429 61.714 27.429 76.286 12.286 76.286-12.286 61.714-27.429 42.571-27.429 24-12.286q34.857 0 63.714 11.429t48.857 30.571 35.429 46.286 24.571 55.714 15.143 62 8 62.286 2 59.143zM621.714 292.571q0 90.857-64.286 155.143t-155.143 64.286-155.143-64.286-64.286-155.143 64.286-155.143 155.143-64.286 155.143 64.286 64.286 155.143z"></path>
</symbol>
<symbol id="logout" viewBox="0 0 877.7142857142858 1024">
	<title>logout</title>
	<path class="path1" d="M877.714 512q0 89.143-34.857 170.286t-93.714 140-140 93.714-170.286 34.857-170.286-34.857-140-93.714-93.714-140-34.857-170.286q0-104 46-196t129.429-154.286q24.571-18.286 54.571-14.286t47.714 28.571q18.286 24 14 54t-28.286 48.286q-56 42.286-86.571 103.429t-30.571 130.286q0 59.429 23.143 113.429t62.571 93.429 93.429 62.571 113.429 23.143 113.429-23.143 93.429-62.571 62.571-93.429 23.143-113.429q0-69.143-30.571-130.286t-86.571-103.429q-24-18.286-28.286-48.286t14-54q17.714-24.571 48-28.571t54.286 14.286q83.429 62.286 129.429 154.286t46 196zM512 73.143v365.714q0 29.714-21.714 51.429t-51.429 21.714-51.429-21.714-21.714-51.429v-365.714q0-29.714 21.714-51.429t51.429-21.714 51.429 21.714 21.714 51.429z"></path>
</symbol>
<symbol id="gear" viewBox="0 0 877.7142857142858 1024">
	<title>gear</title>
	<path class="path1" d="M585.143 512q0-60.571-42.857-103.429t-103.429-42.857-103.429 42.857-42.857 103.429 42.857 103.429 103.429 42.857 103.429-42.857 42.857-103.429zM877.714 449.714v126.857q0 6.857-4.571 13.143t-11.429 7.429l-105.714 16q-10.857 30.857-22.286 52 20 28.571 61.143 78.857 5.714 6.857 5.714 14.286t-5.143 13.143q-15.429 21.143-56.571 61.714t-53.714 40.571q-6.857 0-14.857-5.143l-78.857-61.714q-25.143 13.143-52 21.714-9.143 77.714-16.571 106.286-4 16-20.571 16h-126.857q-8 0-14-4.857t-6.571-12.286l-16-105.143q-28-9.143-51.429-21.143l-80.571 61.143q-5.714 5.143-14.286 5.143-8 0-14.286-6.286-72-65.143-94.286-96-4-5.714-4-13.143 0-6.857 4.571-13.143 8.571-12 29.143-38t30.857-40.286q-15.429-28.571-23.429-56.571l-104.571-15.429q-7.429-1.143-12-7.143t-4.571-13.429v-126.857q0-6.857 4.571-13.143t10.857-7.429l106.286-16q8-26.286 22.286-52.571-22.857-32.571-61.143-78.857-5.714-6.857-5.714-13.714 0-5.714 5.143-13.143 14.857-20.571 56.286-61.429t54-40.857q7.429 0 14.857 5.714l78.857 61.143q25.143-13.143 52-21.714 9.143-77.714 16.571-106.286 4-16 20.571-16h126.857q8 0 14 4.857t6.571 12.286l16 105.143q28 9.143 51.429 21.143l81.143-61.143q5.143-5.143 13.714-5.143 7.429 0 14.286 5.714 73.714 68 94.286 97.143 4 4.571 4 12.571 0 6.857-4.571 13.143-8.571 12-29.143 38t-30.857 40.286q14.857 28.571 23.429 56l104.571 16q7.429 1.143 12 7.143t4.571 13.429z"></path>
</symbol>
<symbol id="home" viewBox="0 0 951 1024">
	<title>home</title>
	<path class="path1" d="M804.571 566.857v274.286q0 14.857-10.857 25.714t-25.714 10.857h-219.429v-219.429h-146.286v219.429h-219.429q-14.857 0-25.714-10.857t-10.857-25.714v-274.286q0-0.571 0.286-1.714t0.286-1.714l328.571-270.857 328.571 270.857q0.571 1.143 0.571 3.429zM932 527.429l-35.429 42.286q-4.571 5.143-12 6.286h-1.714q-7.429 0-12-4l-395.429-329.714-395.429 329.714q-6.857 4.571-13.714 4-7.429-1.143-12-6.286l-35.429-42.286q-4.571-5.714-4-13.429t6.286-12.286l410.857-342.286q18.286-14.857 43.429-14.857t43.429 14.857l139.429 116.571v-111.429q0-8 5.143-13.143t13.143-5.143h109.714q8 0 13.143 5.143t5.143 13.143v233.143l125.143 104q5.714 4.571 6.286 12.286t-4 13.429z"></path>
</symbol>
<symbol id="file-o" viewBox="0 0 877.7142857142858 1024">
	<title>file-o</title>
	<path class="path1" d="M838.857 217.143q16 16 27.429 43.429t11.429 50.286v658.286q0 22.857-16 38.857t-38.857 16h-768q-22.857 0-38.857-16t-16-38.857v-914.286q0-22.857 16-38.857t38.857-16h512q22.857 0 50.286 11.429t43.429 27.429zM585.143 77.714v214.857h214.857q-5.714-16.571-12.571-23.429l-178.857-178.857q-6.857-6.857-23.429-12.571zM804.571 950.857v-585.143h-237.714q-22.857 0-38.857-16t-16-38.857v-237.714h-438.857v877.714h731.429z"></path>
</symbol>
<symbol id="inbox" viewBox="0 0 877.7142857142858 1024">
	<title>inbox</title>
	<path class="path1" d="M584.571 548.571h180.571q-0.571-1.714-1.429-4.571t-1.429-4.571l-121.143-283.429h-404.571l-121.143 283.429q-0.571 1.143-1.429 4.571t-1.429 4.571h180.571l54.286 109.714h182.857zM877.714 565.714v275.429q0 14.857-10.857 25.714t-25.714 10.857h-804.571q-14.857 0-25.714-10.857t-10.857-25.714v-275.429q0-35.429 14.286-70.286l136-315.429q5.714-14.286 20.857-24t30-9.714h475.429q14.857 0 30 9.714t20.857 24l136 315.429q14.286 34.857 14.286 70.286z"></path>
</symbol>
<symbol id="refresh" viewBox="0 0 877.7142857142858 1024">
	<title>refresh</title>
	<path class="path1" d="M863.429 603.429q0 2.857-0.571 4-36.571 153.143-153.143 248.286t-273.143 95.143q-83.429 0-161.429-31.429t-139.143-89.714l-73.714 73.714q-10.857 10.857-25.714 10.857t-25.714-10.857-10.857-25.714v-256q0-14.857 10.857-25.714t25.714-10.857h256q14.857 0 25.714 10.857t10.857 25.714-10.857 25.714l-78.286 78.286q40.571 37.714 92 58.286t106.857 20.571q76.571 0 142.857-37.143t106.286-102.286q6.286-9.714 30.286-66.857 4.571-13.143 17.143-13.143h109.714q7.429 0 12.857 5.429t5.429 12.857zM877.714 146.286v256q0 14.857-10.857 25.714t-25.714 10.857h-256q-14.857 0-25.714-10.857t-10.857-25.714 10.857-25.714l78.857-78.857q-84.571-78.286-199.429-78.286-76.571 0-142.857 37.143t-106.286 102.286q-6.286 9.714-30.286 66.857-4.571 13.143-17.143 13.143h-113.714q-7.429 0-12.857-5.429t-5.429-12.857v-4q37.143-153.143 154.286-248.286t274.286-95.143q83.429 0 162.286 31.714t140 89.429l74.286-73.714q10.857-10.857 25.714-10.857t25.714 10.857 10.857 25.714z"></path>
</symbol>
<symbol id="lock" viewBox="0 0 658 1024">
	<title>lock</title>
	<path class="path1" d="M182.857 438.857h292.571v-109.714q0-60.571-42.857-103.429t-103.429-42.857-103.429 42.857-42.857 103.429v109.714zM658.286 493.714v329.143q0 22.857-16 38.857t-38.857 16h-548.571q-22.857 0-38.857-16t-16-38.857v-329.143q0-22.857 16-38.857t38.857-16h18.286v-109.714q0-105.143 75.429-180.571t180.571-75.429 180.571 75.429 75.429 180.571v109.714h18.286q22.857 0 38.857 16t16 38.857z"></path>
</symbol>
<symbol id="print" viewBox="0 0 951 1024">
	<title>print</title>
	<path class="path1" d="M219.429 877.714h512v-146.286h-512v146.286zM219.429 512h512v-219.429h-91.429q-22.857 0-38.857-16t-16-38.857v-91.429h-365.714v365.714zM877.714 548.571q0-14.857-10.857-25.714t-25.714-10.857-25.714 10.857-10.857 25.714 10.857 25.714 25.714 10.857 25.714-10.857 10.857-25.714zM950.857 548.571v237.714q0 7.429-5.429 12.857t-12.857 5.429h-128v91.429q0 22.857-16 38.857t-38.857 16h-548.571q-22.857 0-38.857-16t-16-38.857v-91.429h-128q-7.429 0-12.857-5.429t-5.429-12.857v-237.714q0-45.143 32.286-77.429t77.429-32.286h36.571v-310.857q0-22.857 16-38.857t38.857-16h384q22.857 0 50.286 11.429t43.429 27.429l86.857 86.857q16 16 27.429 43.429t11.429 50.286v146.286h36.571q45.143 0 77.429 32.286t32.286 77.429z"></path>
</symbol>
<symbol id="bold" viewBox="0 0 805 1024">
	<title>bold</title>
	<path class="path1" d="M317.143 869.143q42.286 18.286 80 18.286 214.857 0 214.857-191.429 0-65.143-23.429-102.857-15.429-25.143-35.143-42.286t-38.571-26.571-46-14.286-48-6-54-1.143q-41.714 0-57.714 5.714 0 30.286-0.286 90.857t-0.286 90.286q0 4.571-0.571 38.571t-0.286 55.143 2.571 47.714 6.857 38zM309.143 442.857q24 4 62.286 4 46.857 0 81.714-7.429t62.857-25.429 42.571-51.143 14.571-81.143q0-40-16.571-70t-45.143-46.857-61.714-24.857-70.857-8q-28.571 0-74.286 7.429 0 28.571 2.286 86.286t2.286 86.857q0 15.429-0.286 45.714t-0.286 45.143q0 26.286 0.571 39.429zM0 950.857l1.143-53.714q8.571-2.286 48.571-9.143t60.571-15.429q4-6.857 7.143-15.429t4.857-19.143 3.143-18.571 1.714-21.429 0.286-19.429v-37.429q0-561.143-12.571-585.714-2.286-4.571-12.571-8.286t-25.429-6.286-28.286-4-27.714-2.571-17.429-1.714l-2.286-47.429q56-1.143 194.286-6.571t213.143-5.429q13.143 0 39.143 0.286t38.571 0.286q40 0 78 7.429t73.429 24 61.714 40.571 42.286 59.714 16 78.571q0 29.714-9.429 54.571t-22.286 41.143-36.857 32.857-41.714 25.714-48 22.857q88 20 146.571 76.571t58.571 141.714q0 57.143-20 102.571t-53.429 74.571-78.857 48.857-93.429 27.714-100.571 8q-25.143 0-75.429-1.714t-75.429-1.714q-60.571 0-175.429 6.286t-132 6.857z"></path>
</symbol>
<symbol id="italic" viewBox="0 0 585 1024">
	<title>italic</title>
	<path class="path1" d="M0 949.714l9.714-48.571q3.429-1.143 46.571-12.286t63.714-21.429q16-20 23.429-57.714 0.571-4 35.429-165.143t65.143-310.571 29.714-169.429v-14.286q-13.714-7.429-31.143-10.571t-39.714-4.571-33.143-3.143l10.857-58.857q18.857 1.143 68.571 3.714t85.429 4 68.857 1.429q27.429 0 56.286-1.429t69.143-4 56.286-3.714q-2.857 22.286-10.857 50.857-17.143 5.714-58 16.286t-62 19.143q-4.571 10.857-8 24.286t-5.143 22.857-4.286 26-3.714 24q-15.429 84.571-50 239.714t-44.286 203.143q-1.143 5.143-7.429 33.143t-11.429 51.429-9.143 47.714-3.429 32.857l0.571 10.286q9.714 2.286 105.714 17.714-1.714 25.143-9.143 56.571-6.286 0-18.571 0.857t-18.571 0.857q-16.571 0-49.714-5.714t-49.143-5.714q-78.857-1.143-117.714-1.143-29.143 0-81.714 5.143t-69.143 6.286z"></path>
</symbol>
<symbol id="image" viewBox="0 0 1097 1024">
	<title>image</title>
	<path class="path1" d="M365.714 329.143q0 45.714-32 77.714t-77.714 32-77.714-32-32-77.714 32-77.714 77.714-32 77.714 32 32 77.714zM950.857 548.571v256h-804.571v-109.714l182.857-182.857 91.429 91.429 292.571-292.571zM1005.714 146.286h-914.286q-7.429 0-12.857 5.429t-5.429 12.857v694.857q0 7.429 5.429 12.857t12.857 5.429h914.286q7.429 0 12.857-5.429t5.429-12.857v-694.857q0-7.429-5.429-12.857t-12.857-5.429zM1097.143 164.571v694.857q0 37.714-26.857 64.571t-64.571 26.857h-914.286q-37.714 0-64.571-26.857t-26.857-64.571v-694.857q0-37.714 26.857-64.571t64.571-26.857h914.286q37.714 0 64.571 26.857t26.857 64.571z"></path>
</symbol>
<symbol id="pencil" viewBox="0 0 877.7142857142858 1024">
	<title>pencil</title>
	<path class="path1" d="M207.429 877.714l52-52-134.286-134.286-52 52v61.143h73.143v73.143h61.143zM506.286 347.429q0-12.571-12.571-12.571-5.714 0-9.714 4l-309.714 309.714q-4 4-4 9.714 0 12.571 12.571 12.571 5.714 0 9.714-4l309.714-309.714q4-4 4-9.714zM475.429 237.714l237.714 237.714-475.429 475.429h-237.714v-237.714zM865.714 292.571q0 30.286-21.143 51.429l-94.857 94.857-237.714-237.714 94.857-94.286q20.571-21.714 51.429-21.714 30.286 0 52 21.714l134.286 133.714q21.143 22.286 21.143 52z"></path>
</symbol>
<symbol id="tint" viewBox="0 0 585 1024">
	<title>tint</title>
	<path class="path1" d="M292.571 658.286q0-20.571-11.429-39.429-0.571-0.571-8.857-12.857t-14.571-21.714-14.286-25.143-12-28.857q-2.286-9.143-12-9.143t-12 9.143q-4 13.143-12 28.857t-14.286 25.143-14.571 21.714-8.857 12.857q-11.429 18.857-11.429 39.429 0 30.286 21.429 51.714t51.714 21.429 51.714-21.429 21.429-51.714zM585.143 585.143q0 121.143-85.714 206.857t-206.857 85.714-206.857-85.714-85.714-206.857q0-82.857 46.286-157.143 3.429-5.143 35.714-51.714t57.714-86.286 56.857-101.714 47.429-115.143q5.143-17.143 19.429-26.857t29.143-9.714 29.429 9.714 19.143 26.857q16 53.143 47.429 115.143t56.857 101.714 57.714 86.286 35.714 51.714q46.286 72.571 46.286 157.143z"></path>
</symbol>
<symbol id="pencil-square-o" viewBox="0 0 1024 1024">
	<title>pencil-square-o</title>
	<path class="path1" d="M507.429 676.571l66.286-66.286-86.857-86.857-66.286 66.286v32h54.857v54.857h32zM758.857 265.143q-9.143-9.143-18.857 0.571l-200 200q-9.714 9.714-0.571 18.857t18.857-0.571l200-200q9.714-9.714 0.571-18.857zM804.571 604.571v108.571q0 68-48.286 116.286t-116.286 48.286h-475.429q-68 0-116.286-48.286t-48.286-116.286v-475.429q0-68 48.286-116.286t116.286-48.286h475.429q36 0 66.857 14.286 8.571 4 10.286 13.143 1.714 9.714-5.143 16.571l-28 28q-8 8-18.286 4.571-13.143-3.429-25.714-3.429h-475.429q-37.714 0-64.571 26.857t-26.857 64.571v475.429q0 37.714 26.857 64.571t64.571 26.857h475.429q37.714 0 64.571-26.857t26.857-64.571v-72q0-7.429 5.143-12.571l36.571-36.571q8.571-8.571 20-4t11.429 16.571zM749.714 182.857l164.571 164.571-384 384h-164.571v-164.571zM1003.429 258.286l-52.571 52.571-164.571-164.571 52.571-52.571q16-16 38.857-16t38.857 16l86.857 86.857q16 16 16 38.857t-16 38.857z"></path>
</symbol>
<symbol id="check-square-o" viewBox="0 0 951 1024">
	<title>check-square-o</title>
	<path class="path1" d="M804.571 531.429v181.714q0 68-48.286 116.286t-116.286 48.286h-475.429q-68 0-116.286-48.286t-48.286-116.286v-475.429q0-68 48.286-116.286t116.286-48.286h475.429q36 0 66.857 14.286 8.571 4 10.286 13.143 1.714 9.714-5.143 16.571l-28 28q-5.714 5.714-13.143 5.714-1.714 0-5.143-1.143-13.143-3.429-25.714-3.429h-475.429q-37.714 0-64.571 26.857t-26.857 64.571v475.429q0 37.714 26.857 64.571t64.571 26.857h475.429q37.714 0 64.571-26.857t26.857-64.571v-145.143q0-7.429 5.143-12.571l36.571-36.571q5.714-5.714 13.143-5.714 3.429 0 6.857 1.714 11.429 4.571 11.429 16.571zM936.571 252l-465.143 465.143q-13.714 13.714-32.571 13.714t-32.571-13.714l-245.714-245.714q-13.714-13.714-13.714-32.571t13.714-32.571l62.857-62.857q13.714-13.714 32.571-13.714t32.571 13.714l150.286 150.286 369.714-369.714q13.714-13.714 32.571-13.714t32.571 13.714l62.857 62.857q13.714 13.714 13.714 32.571t-13.714 32.571z"></path>
</symbol>
<symbol id="chevron-left" viewBox="0 0 731 1024">
	<title>chevron-left</title>
	<path class="path1" d="M669.143 172l-303.429 303.429 303.429 303.429q10.857 10.857 10.857 25.714t-10.857 25.714l-94.857 94.857q-10.857 10.857-25.714 10.857t-25.714-10.857l-424-424q-10.857-10.857-10.857-25.714t10.857-25.714l424-424q10.857-10.857 25.714-10.857t25.714 10.857l94.857 94.857q10.857 10.857 10.857 25.714t-10.857 25.714z"></path>
</symbol>
<symbol id="chevron-right" viewBox="0 0 731 1024">
	<title>chevron-right</title>
	<path class="path1" d="M632.571 501.143l-424 424q-10.857 10.857-25.714 10.857t-25.714-10.857l-94.857-94.857q-10.857-10.857-10.857-25.714t10.857-25.714l303.429-303.429-303.429-303.429q-10.857-10.857-10.857-25.714t10.857-25.714l94.857-94.857q10.857-10.857 25.714-10.857t25.714 10.857l424 424q10.857 10.857 10.857 25.714t-10.857 25.714z"></path>
</symbol>
<symbol id="times-circle" viewBox="0 0 1024 1024">
	<title>times-circle</title>
	<path class="path1" fill="#FFFFFF" d="M1024 512c0 92.885-22.869 178.56-68.693 256.981-45.739 78.421-107.819 140.544-186.283 186.325-78.507 45.781-164.096 68.693-257.024 68.693-92.843-0.085-178.475-22.955-256.939-68.693-78.507-45.739-140.544-107.861-186.325-186.325-45.696-78.507-68.309-164.139-68.309-256.981s22.869-178.517 68.693-256.981c45.568-78.507 107.52-140.587 186.027-186.325 78.379-45.739 163.968-68.608 256.853-68.693 92.928 0 178.56 22.912 257.024 68.693 78.507 45.781 140.544 107.947 186.325 186.325 46.037 78.421 68.651 164.096 68.651 256.981z"></path>
	<path class="path2" d="M765.995 662.613c0-11.52-4.267-21.504-12.672-29.952l-120.661-120.661 120.661-120.661c8.448-8.448 12.672-18.432 12.672-29.995 0-12.373-4.267-22.613-12.672-30.72l-59.989-60.117c-8.448-8.448-18.688-12.672-30.72-12.672-11.52 0-21.504 4.267-29.952 12.672l-120.661 120.832-120.661-120.747c-8.448-8.363-18.432-12.587-29.995-12.587-12.373 0-22.613 4.267-30.72 12.672l-60.117 59.989c-8.448 8.448-12.672 18.688-12.672 30.72 0 11.52 4.267 21.504 12.672 29.952l120.832 120.661-120.747 120.661c-8.363 8.448-12.587 18.432-12.587 29.995 0 12.373 4.267 22.613 12.672 30.72l59.989 60.16c8.448 8.533 18.688 12.8 30.72 12.8 11.52 0 21.504-4.267 29.952-12.587l120.661-121.003 120.661 120.747c8.448 8.363 18.432 12.587 29.995 12.587 12.373 0 22.613-4.267 30.72-12.672l60.16-59.989c8.533-8.448 12.8-18.688 12.8-30.72zM1024 512c0 92.885-22.869 178.56-68.693 256.981-45.739 78.421-107.819 140.544-186.283 186.325-78.507 45.781-164.096 68.693-257.024 68.693-92.843-0.085-178.475-22.955-256.939-68.693-78.507-45.739-140.544-107.861-186.325-186.325-45.696-78.507-68.309-164.139-68.309-256.981s22.869-178.517 68.693-256.981c45.568-78.507 107.52-140.587 186.027-186.325 78.379-45.739 163.968-68.608 256.853-68.693 92.928 0 178.56 22.912 257.024 68.693 78.507 45.781 140.544 107.947 186.325 186.325 46.037 78.421 68.651 164.096 68.651 256.981z"></path>
</symbol>
<symbol id="check-circle" viewBox="0 0 877.7142857142858 1024">
	<title>check-circle</title>
	<path class="path1" d="M733.714 419.429q0-16-10.286-26.286l-52-51.429q-10.857-10.857-25.714-10.857t-25.714 10.857l-233.143 232.571-129.143-129.143q-10.857-10.857-25.714-10.857t-25.714 10.857l-52 51.429q-10.286 10.286-10.286 26.286 0 15.429 10.286 25.714l206.857 206.857q10.857 10.857 25.714 10.857 15.429 0 26.286-10.857l310.286-310.286q10.286-10.286 10.286-25.714zM877.714 512q0 119.429-58.857 220.286t-159.714 159.714-220.286 58.857-220.286-58.857-159.714-159.714-58.857-220.286 58.857-220.286 159.714-159.714 220.286-58.857 220.286 58.857 159.714 159.714 58.857 220.286z"></path>
</symbol>
<symbol id="question-circle" viewBox="0 0 877.7142857142858 1024">
	<title>question-circle</title>
	<path class="path1" d="M512 786.286v-109.714q0-8-5.143-13.143t-13.143-5.143h-109.714q-8 0-13.143 5.143t-5.143 13.143v109.714q0 8 5.143 13.143t13.143 5.143h109.714q8 0 13.143-5.143t5.143-13.143zM658.286 402.286q0-50.286-31.714-93.143t-79.143-66.286-97.143-23.429q-138.857 0-212 121.714-8.571 13.714 4.571 24l75.429 57.143q4 3.429 10.857 3.429 9.143 0 14.286-6.857 30.286-38.857 49.143-52.571 19.429-13.714 49.143-13.714 27.429 0 48.857 14.857t21.429 33.714q0 21.714-11.429 34.857t-38.857 25.714q-36 16-66 49.429t-30 71.714v20.571q0 8 5.143 13.143t13.143 5.143h109.714q8 0 13.143-5.143t5.143-13.143q0-10.857 12.286-28.286t31.143-28.286q18.286-10.286 28-16.286t26.286-20 25.429-27.429 16-34.571 7.143-46.286zM877.714 512q0 119.429-58.857 220.286t-159.714 159.714-220.286 58.857-220.286-58.857-159.714-159.714-58.857-220.286 58.857-220.286 159.714-159.714 220.286-58.857 220.286 58.857 159.714 159.714 58.857 220.286z"></path>
</symbol>
<symbol id="asterisk" viewBox="0 0 951 1024">
	<title>asterisk</title>
	<path class="path1" d="M846.857 600q26.286 14.857 34 44.286t-7.143 55.714l-36.571 62.857q-14.857 26.286-44.286 34t-55.714-7.143l-152-87.429v175.429q0 29.714-21.714 51.429t-51.429 21.714h-73.143q-29.714 0-51.429-21.714t-21.714-51.429v-175.429l-152 87.429q-26.286 14.857-55.714 7.143t-44.286-34l-36.571-62.857q-14.857-26.286-7.143-55.714t34-44.286l152-88-152-88q-26.286-14.857-34-44.286t7.143-55.714l36.571-62.857q14.857-26.286 44.286-34t55.714 7.143l152 87.429v-175.429q0-29.714 21.714-51.429t51.429-21.714h73.143q29.714 0 51.429 21.714t21.714 51.429v175.429l152-87.429q26.286-14.857 55.714-7.143t44.286 34l36.571 62.857q14.857 26.286 7.143 55.714t-34 44.286l-152 88z"></path>
</symbol>
<symbol id="exclamation-triangle" viewBox="0 0 1024 1024">
	<title>exclamation-triangle</title>
	<path class="path1" d="M585.143 785.714v-108.571q0-8-5.429-13.429t-12.857-5.429h-109.714q-7.429 0-12.857 5.429t-5.429 13.429v108.571q0 8 5.429 13.429t12.857 5.429h109.714q7.429 0 12.857-5.429t5.429-13.429zM584 572l10.286-262.286q0-6.857-5.714-10.857-7.429-6.286-13.714-6.286h-125.714q-6.286 0-13.714 6.286-5.714 4-5.714 12l9.714 261.143q0 5.714 5.714 9.429t13.714 3.714h105.714q8 0 13.429-3.714t6-9.429zM576 38.286l438.857 804.571q20 36-1.143 72-9.714 16.571-26.571 26.286t-36.286 9.714h-877.714q-19.429 0-36.286-9.714t-26.571-26.286q-21.143-36-1.143-72l438.857-804.571q9.714-17.714 26.857-28t37.143-10.286 37.143 10.286 26.857 28z"></path>
</symbol>
<symbol id="graph" viewBox="0 0 1170 1024">
	<title>graph</title>
	<path class="path1" d="M365.714 512v292.571h-146.286v-292.571h146.286zM585.143 219.429v585.143h-146.286v-585.143h146.286zM1170.286 877.714v73.143h-1170.286v-877.714h73.143v804.571h1097.143zM804.571 365.714v438.857h-146.286v-438.857h146.286zM1024 146.286v658.286h-146.286v-658.286h146.286z"></path>
</symbol>
<symbol id="gears" viewBox="0 0 1097 1024">
	<title>gears</title>
	<path class="path1" d="M512 512q0-60.571-42.857-103.429t-103.429-42.857-103.429 42.857-42.857 103.429 42.857 103.429 103.429 42.857 103.429-42.857 42.857-103.429zM950.857 804.571q0-29.714-21.714-51.429t-51.429-21.714-51.429 21.714-21.714 51.429q0 30.286 21.429 51.714t51.714 21.429 51.714-21.429 21.429-51.714zM950.857 219.429q0-29.714-21.714-51.429t-51.429-21.714-51.429 21.714-21.714 51.429q0 30.286 21.429 51.714t51.714 21.429 51.714-21.429 21.429-51.714zM731.429 460v105.714q0 5.714-4 11.143t-9.143 6l-88.571 13.714q-6.286 20-18.286 43.429 19.429 27.429 51.429 65.714 4 5.714 4 11.429 0 6.857-4 10.857-13.143 17.143-47.143 51.143t-44.857 34q-6.286 0-12-4l-65.714-51.429q-21.143 10.857-44 17.714-6.286 61.714-13.143 88.571-4 13.714-17.143 13.714h-106.286q-6.286 0-11.429-4.286t-5.714-10l-13.143-87.429q-19.429-5.714-42.857-17.714l-67.429 50.857q-4 4-11.429 4-6.286 0-12-4.571-82.286-76-82.286-91.429 0-5.143 4-10.857 5.714-8 23.429-30.286t26.857-34.857q-13.143-25.143-20-46.857l-86.857-13.714q-5.714-0.571-9.714-5.429t-4-11.143v-105.714q0-5.714 4-11.143t9.143-6l88.571-13.714q6.286-20 18.286-43.429-19.429-27.429-51.429-65.714-4-6.286-4-11.429 0-6.857 4-11.429 12.571-17.143 46.857-50.857t45.143-33.714q6.286 0 12 4l65.714 51.429q19.429-10.286 44-18.286 6.286-61.714 13.143-88 4-13.714 17.143-13.714h106.286q6.286 0 11.429 4.286t5.714 10l13.143 87.429q19.429 5.714 42.857 17.714l67.429-50.857q4.571-4 11.429-4 6.286 0 12 4.571 82.286 76 82.286 91.429 0 5.143-4 10.857-6.857 9.143-24 30.857t-25.714 34.286q13.143 27.429 19.429 46.857l86.857 13.143q5.714 1.143 9.714 6t4 11.143zM1097.143 764.571v80q0 9.143-85.143 17.714-6.857 15.429-17.143 29.714 29.143 64.571 29.143 78.857 0 2.286-2.286 4-69.714 40.571-70.857 40.571-4.571 0-26.286-26.857t-29.714-38.857q-11.429 1.143-17.143 1.143t-17.143-1.143q-8 12-29.714 38.857t-26.286 26.857q-1.143 0-70.857-40.571-2.286-1.714-2.286-4 0-14.286 29.143-78.857-10.286-14.286-17.143-29.714-85.143-8.571-85.143-17.714v-80q0-9.143 85.143-17.714 7.429-16.571 17.143-29.714-29.143-64.571-29.143-78.857 0-2.286 2.286-4 2.286-1.143 20-11.429t33.714-19.429 17.143-9.143q4.571 0 26.286 26.571t29.714 38.571q11.429-1.143 17.143-1.143t17.143 1.143q29.143-40.571 52.571-64l3.429-1.143q2.286 0 70.857 40 2.286 1.714 2.286 4 0 14.286-29.143 78.857 9.714 13.143 17.143 29.714 85.143 8.571 85.143 17.714zM1097.143 179.429v80q0 9.143-85.143 17.714-6.857 15.429-17.143 29.714 29.143 64.571 29.143 78.857 0 2.286-2.286 4-69.714 40.571-70.857 40.571-4.571 0-26.286-26.857t-29.714-38.857q-11.429 1.143-17.143 1.143t-17.143-1.143q-8 12-29.714 38.857t-26.286 26.857q-1.143 0-70.857-40.571-2.286-1.714-2.286-4 0-14.286 29.143-78.857-10.286-14.286-17.143-29.714-85.143-8.571-85.143-17.714v-80q0-9.143 85.143-17.714 7.429-16.571 17.143-29.714-29.143-64.571-29.143-78.857 0-2.286 2.286-4 2.286-1.143 20-11.429t33.714-19.429 17.143-9.143q4.571 0 26.286 26.571t29.714 38.571q11.429-1.143 17.143-1.143t17.143 1.143q29.143-40.571 52.571-64l3.429-1.143q2.286 0 70.857 40 2.286 1.714 2.286 4 0 14.286-29.143 78.857 9.714 13.143 17.143 29.714 85.143 8.571 85.143 17.714z"></path>
</symbol>
<symbol id="square-o" viewBox="0 0 805 1024">
	<title>square-o</title>
	<path class="path1" d="M640 146.286h-475.429q-37.714 0-64.571 26.857t-26.857 64.571v475.429q0 37.714 26.857 64.571t64.571 26.857h475.429q37.714 0 64.571-26.857t26.857-64.571v-475.429q0-37.714-26.857-64.571t-64.571-26.857zM804.571 237.714v475.429q0 68-48.286 116.286t-116.286 48.286h-475.429q-68 0-116.286-48.286t-48.286-116.286v-475.429q0-68 48.286-116.286t116.286-48.286h475.429q68 0 116.286 48.286t48.286 116.286z"></path>
</symbol>
<symbol id="bookmark-o" viewBox="0 0 731 1024">
	<title>bookmark-o</title>
	<path class="path1" d="M658.286 146.286h-585.143v709.714l292.571-280.571 50.857 48.571 241.714 232v-709.714zM665.143 73.143q13.143 0 25.143 5.143 18.857 7.429 30 23.429t11.143 35.429v736.571q0 19.429-11.143 35.429t-30 23.429q-10.857 4.571-25.143 4.571-27.429 0-47.429-18.286l-252-242.286-252 242.286q-20.571 18.857-47.429 18.857-13.143 0-25.143-5.143-18.857-7.429-30-23.429t-11.143-35.429v-736.571q0-19.429 11.143-35.429t30-23.429q12-5.143 25.143-5.143h598.857z"></path>
</symbol>
<symbol id="wrench" viewBox="0 0 951 1024">
	<title>wrench</title>
	<path class="path1" d="M219.429 841.143q0-14.857-10.857-25.714t-25.714-10.857-25.714 10.857-10.857 25.714 10.857 25.714 25.714 10.857 25.714-10.857 10.857-25.714zM587.429 601.143l-389.714 389.714q-21.143 21.143-51.429 21.143-29.714 0-52-21.143l-60.571-61.714q-21.714-20.571-21.714-51.429 0-30.286 21.714-52l389.143-389.143q22.286 56 65.429 99.143t99.143 65.429zM949.714 352.571q0 22.286-13.143 60.571-26.857 76.571-94 124.286t-147.714 47.714q-105.714 0-180.857-75.143t-75.143-180.857 75.143-180.857 180.857-75.143q33.143 0 69.429 9.429t61.429 26.571q9.143 6.286 9.143 16t-9.143 16l-167.429 96.571v128l110.286 61.143q2.857-1.714 45.143-27.714t77.429-46.286 40.286-20.286q8.571 0 13.429 5.714t4.857 14.286z"></path>
</symbol>
<symbol id="users" viewBox="0 0 1097 1024">
	<title>users</title>
	<path class="path1" d="M338.857 512q-92.571 2.857-151.429 73.143h-76.571q-46.857 0-78.857-23.143t-32-67.714q0-201.714 70.857-201.714 3.429 0 24.857 12t55.714 24.286 68 12.286q38.286 0 76-13.143-2.857 21.143-2.857 37.714 0 79.429 46.286 146.286zM950.857 876q0 68.571-41.714 108.286t-110.857 39.714h-499.429q-69.143 0-110.857-39.714t-41.714-108.286q0-30.286 2-59.143t8-62.286 15.143-62 24.571-55.714 35.429-46.286 48.857-30.571 63.714-11.429q5.714 0 24.571 12.286t41.714 27.429 61.143 27.429 77.143 12.286 77.143-12.286 61.143-27.429 41.714-27.429 24.571-12.286q34.857 0 63.714 11.429t48.857 30.571 35.429 46.286 24.571 55.714 15.143 62 8 62.286 2 59.143zM365.714 146.286q0 60.571-42.857 103.429t-103.429 42.857-103.429-42.857-42.857-103.429 42.857-103.429 103.429-42.857 103.429 42.857 42.857 103.429zM768 365.714q0 90.857-64.286 155.143t-155.143 64.286-155.143-64.286-64.286-155.143 64.286-155.143 155.143-64.286 155.143 64.286 64.286 155.143zM1097.143 494.286q0 44.571-32 67.714t-78.857 23.143h-76.571q-58.857-70.286-151.429-73.143 46.286-66.857 46.286-146.286 0-16.571-2.857-37.714 37.714 13.143 76 13.143 33.714 0 68-12.286t55.714-24.286 24.857-12q70.857 0 70.857 201.714zM1024 146.286q0 60.571-42.857 103.429t-103.429 42.857-103.429-42.857-42.857-103.429 42.857-103.429 103.429-42.857 103.429 42.857 42.857 103.429z"></path>
</symbol>
<symbol id="chain" viewBox="0 0 951 1024">
	<title>chain</title>
	<path class="path1" d="M832 694.857q0-22.857-16-38.857l-118.857-118.857q-16-16-38.857-16-24 0-41.143 18.286 1.714 1.714 10.857 10.571t12.286 12.286 8.571 10.857 7.429 14.571 2 15.714q0 22.857-16 38.857t-38.857 16q-8.571 0-15.714-2t-14.571-7.429-10.857-8.571-12.286-12.286-10.571-10.857q-18.857 17.714-18.857 41.714 0 22.857 16 38.857l117.714 118.286q15.429 15.429 38.857 15.429 22.857 0 38.857-14.857l84-83.429q16-16 16-38.286zM430.286 292q0-22.857-16-38.857l-117.714-118.286q-16-16-38.857-16-22.286 0-38.857 15.429l-84 83.429q-16 16-16 38.286 0 22.857 16 38.857l118.857 118.857q15.429 15.429 38.857 15.429 24 0 41.143-17.714-1.714-1.714-10.857-10.571t-12.286-12.286-8.571-10.857-7.429-14.571-2-15.714q0-22.857 16-38.857t38.857-16q8.571 0 15.714 2t14.571 7.429 10.857 8.571 12.286 12.286 10.571 10.857q18.857-17.714 18.857-41.714zM941.714 694.857q0 68.571-48.571 116l-84 83.429q-47.429 47.429-116 47.429-69.143 0-116.571-48.571l-117.714-118.286q-47.429-47.429-47.429-116 0-70.286 50.286-119.429l-50.286-50.286q-49.143 50.286-118.857 50.286-68.571 0-116.571-48l-118.857-118.857q-48-48-48-116.571t48.571-116l84-83.429q47.429-47.429 116-47.429 69.143 0 116.571 48.571l117.714 118.286q47.429 47.429 47.429 116 0 70.286-50.286 119.429l50.286 50.286q49.143-50.286 118.857-50.286 68.571 0 116.571 48l118.857 118.857q48 48 48 116.571z"></path>
</symbol>
<symbol id="paperclip" viewBox="0 0 805 1024">
	<title>paperclip</title>
	<path class="path1" d="M802.286 791.429q0 66.857-45.143 112t-112 45.143q-77.143 0-134.286-57.143l-444-443.429q-64.571-65.714-64.571-154.857 0-90.857 62.857-154.286t153.714-63.429q90.286 0 156 64.571l345.714 346.286q5.714 5.714 5.714 12.571 0 9.143-17.429 26.571t-26.571 17.429q-7.429 0-13.143-5.714l-346.286-346.857q-45.143-44-103.429-44-60.571 0-102.286 42.857t-41.714 103.429q0 60 43.429 103.429l443.429 444q36 36 82.857 36 36.571 0 60.571-24t24-60.571q0-46.857-36-82.857l-332-332q-14.857-13.714-34.286-13.714-16.571 0-27.429 10.857t-10.857 27.429q0 18.286 14.286 33.714l234.286 234.286q5.714 5.714 5.714 12.571 0 9.143-17.714 26.857t-26.857 17.714q-6.857 0-12.571-5.714l-234.286-234.286q-36-34.857-36-85.143 0-46.857 32.571-79.429t79.429-32.571q50.286 0 85.143 36l332 332q57.143 56 57.143 134.286z"></path>
</symbol>
<symbol id="navicon" viewBox="0 0 877.7142857142858 1024">
	<title>navicon</title>
	<path class="path1" d="M877.714 768v73.143q0 14.857-10.857 25.714t-25.714 10.857h-804.571q-14.857 0-25.714-10.857t-10.857-25.714v-73.143q0-14.857 10.857-25.714t25.714-10.857h804.571q14.857 0 25.714 10.857t10.857 25.714zM877.714 475.429v73.143q0 14.857-10.857 25.714t-25.714 10.857h-804.571q-14.857 0-25.714-10.857t-10.857-25.714v-73.143q0-14.857 10.857-25.714t25.714-10.857h804.571q14.857 0 25.714 10.857t10.857 25.714zM877.714 182.857v73.143q0 14.857-10.857 25.714t-25.714 10.857h-804.571q-14.857 0-25.714-10.857t-10.857-25.714v-73.143q0-14.857 10.857-25.714t25.714-10.857h804.571q14.857 0 25.714 10.857t10.857 25.714z"></path>
</symbol>
<symbol id="list-ul" viewBox="0 0 1024 1024">
	<title>list-ul</title>
	<path class="path1" d="M219.429 804.571q0 45.714-32 77.714t-77.714 32-77.714-32-32-77.714 32-77.714 77.714-32 77.714 32 32 77.714zM219.429 512q0 45.714-32 77.714t-77.714 32-77.714-32-32-77.714 32-77.714 77.714-32 77.714 32 32 77.714zM1024 749.714v109.714q0 7.429-5.429 12.857t-12.857 5.429h-694.857q-7.429 0-12.857-5.429t-5.429-12.857v-109.714q0-7.429 5.429-12.857t12.857-5.429h694.857q7.429 0 12.857 5.429t5.429 12.857zM219.429 219.429q0 45.714-32 77.714t-77.714 32-77.714-32-32-77.714 32-77.714 77.714-32 77.714 32 32 77.714zM1024 457.143v109.714q0 7.429-5.429 12.857t-12.857 5.429h-694.857q-7.429 0-12.857-5.429t-5.429-12.857v-109.714q0-7.429 5.429-12.857t12.857-5.429h694.857q7.429 0 12.857 5.429t5.429 12.857zM1024 164.571v109.714q0 7.429-5.429 12.857t-12.857 5.429h-694.857q-7.429 0-12.857-5.429t-5.429-12.857v-109.714q0-7.429 5.429-12.857t12.857-5.429h694.857q7.429 0 12.857 5.429t5.429 12.857z"></path>
</symbol>
<symbol id="list-ol" viewBox="0 0 1024 1024">
	<title>list-ol</title>
	<path class="path1" d="M217.714 925.714q0 45.714-31.143 72t-77.429 26.286q-60.571 0-98.286-37.714l32.571-50.286q28 25.714 60.571 25.714 16.571 0 28.857-8.286t12.286-24.286q0-36.571-60-32l-14.857-32q4.571-5.714 18.571-24.857t24.286-30.857 21.143-22v-0.571q-9.143 0-27.714 0.571t-27.714 0.571v30.286h-60.571v-86.857h190.286v50.286l-54.286 65.714q29.143 6.857 46.286 28t17.143 50.286zM218.857 567.429v90.857h-206.857q-3.429-20.571-3.429-30.857 0-29.143 13.429-53.143t32.286-38.857 37.714-27.143 32.286-24.857 13.429-25.714q0-14.286-8.286-22t-22.571-7.714q-26.286 0-46.286 33.143l-48.571-33.714q13.714-29.143 40.857-45.429t60.286-16.286q41.714 0 70.286 23.714t28.571 64.286q0 28.571-19.429 52.286t-42.857 36.857-43.143 28.857-20.286 30h72.571v-34.286h60zM1024 749.714v109.714q0 7.429-5.429 12.857t-12.857 5.429h-694.857q-7.429 0-12.857-5.429t-5.429-12.857v-109.714q0-8 5.143-13.143t13.143-5.143h694.857q7.429 0 12.857 5.429t5.429 12.857zM219.429 236v56.571h-191.429v-56.571h61.143q0-23.429 0.286-69.714t0.286-69.143v-6.857h-1.143q-4.571 9.714-28.571 30.857l-40.571-43.429 77.714-72.571h60.571v230.857h61.714zM1024 457.143v109.714q0 7.429-5.429 12.857t-12.857 5.429h-694.857q-7.429 0-12.857-5.429t-5.429-12.857v-109.714q0-8 5.143-13.143t13.143-5.143h694.857q7.429 0 12.857 5.429t5.429 12.857zM1024 164.571v109.714q0 7.429-5.429 12.857t-12.857 5.429h-694.857q-7.429 0-12.857-5.429t-5.429-12.857v-109.714q0-7.429 5.429-12.857t12.857-5.429h694.857q7.429 0 12.857 5.429t5.429 12.857z"></path>
</symbol>
<symbol id="strikethrough" viewBox="0 0 1024 1024">
	<title>strikethrough</title>
	<path class="path1" d="M1005.714 512q8 0 13.143 5.143t5.143 13.143v36.571q0 8-5.143 13.143t-13.143 5.143h-987.429q-8 0-13.143-5.143t-5.143-13.143v-36.571q0-8 5.143-13.143t13.143-5.143h987.429zM276 475.429q-16-20-29.143-45.714-27.429-55.429-27.429-107.429 0-103.429 76.571-176.571 76-72.571 224.571-72.571 28.571 0 95.429 10.857 37.714 6.857 101.143 27.429 5.714 21.714 12 67.429 8 70.286 8 104.571 0 10.286-2.857 25.714l-6.857 1.714-48-3.429-8-1.143q-28.571-85.143-58.857-117.143-50.286-52-120-52-65.143 0-104 33.714-38.286 33.143-38.286 83.429 0 41.714 37.714 80t159.429 73.714q39.429 11.429 98.857 37.714 33.143 16 54.286 29.714h-424.571zM565.714 621.714h234.857q4 22.286 4 52.571 0 63.429-23.429 121.143-13.143 31.429-40.571 59.429-21.143 20-62.286 46.286-45.714 27.429-87.429 37.714-45.714 12-116 12-65.143 0-111.429-13.143l-80-22.857q-32.571-9.143-41.143-16-4.571-4.571-4.571-12.571v-7.429q0-61.714-1.143-89.143-0.571-17.143 0-38.857l1.143-21.143v-25.143l58.286-1.143q8.571 19.429 17.143 40.571t12.857 32 7.143 15.429q20 32.571 45.714 53.714 24.571 20.571 60 32.571 33.714 12.571 75.429 12.571 36.571 0 79.429-15.429 44-14.857 69.714-49.143 26.857-34.857 26.857-73.714 0-48-46.286-89.714-19.429-16.571-78.286-40.571z"></path>
</symbol>
<symbol id="underline" viewBox="0 0 877.7142857142858 1024">
	<title>underline</title>
	<path class="path1" d="M27.429 127.429q-21.143-1.143-25.714-2.286l-1.714-50.286q7.429-0.571 22.857-0.571 34.286 0 64 2.286 75.429 4 94.857 4 49.143 0 96-1.714 66.286-2.286 83.429-2.857 32 0 49.143-1.143l-0.571 8 1.143 36.571v5.143q-34.286 5.143-70.857 5.143-34.286 0-45.143 14.286-7.429 8-7.429 75.429 0 7.429 0.286 18.571t0.286 14.571l0.571 130.857 8 160q3.429 70.857 29.143 115.429 20 33.714 54.857 52.571 50.286 26.857 101.143 26.857 59.429 0 109.143-16 32-10.286 56.571-29.143 27.429-20.571 37.143-36.571 20.571-32 30.286-65.143 12-41.714 12-130.857 0-45.143-2-73.143t-6.286-70-7.714-91.143l-2.286-33.714q-2.857-38.286-13.714-50.286-19.429-20-44-19.429l-57.143 1.143-8-1.714 1.143-49.143h48l117.143 5.714q43.429 1.714 112-5.714l10.286 1.143q3.429 21.714 3.429 29.143 0 4-2.286 17.714-25.714 6.857-48 7.429-41.714 6.286-45.143 9.714-8.571 8.571-8.571 23.429 0 4 0.857 15.429t0.857 17.714q4.571 10.857 12.571 226.286 3.429 111.429-8.571 173.714-8.571 43.429-23.429 69.714-21.714 37.143-64 70.286-42.857 32.571-104 50.857-62.286 18.857-145.714 18.857-95.429 0-162.286-26.286-68-26.857-102.286-69.714-34.857-43.429-47.429-111.429-9.143-45.714-9.143-135.429v-190.286q0-107.429-9.714-121.714-14.286-20.571-84-22.286zM877.714 932.571v-36.571q0-8-5.143-13.143t-13.143-5.143h-841.143q-8 0-13.143 5.143t-5.143 13.143v36.571q0 8 5.143 13.143t13.143 5.143h841.143q8 0 13.143-5.143t5.143-13.143z"></path>
</symbol>
<symbol id="caret" viewBox="0 0 585 1024">
	<title>caret</title>
	<path class="path1" d="M585.143 402.286q0 14.857-10.857 25.714l-256 256q-10.857 10.857-25.714 10.857t-25.714-10.857l-256-256q-10.857-10.857-10.857-25.714t10.857-25.714 25.714-10.857h512q14.857 0 25.714 10.857t10.857 25.714z"></path>
</symbol>
<symbol id="envelope" viewBox="0 0 1024 1024">
	<title>envelope</title>
	<path class="path1" d="M1024 405.714v453.714q0 37.714-26.857 64.571t-64.571 26.857h-841.143q-37.714 0-64.571-26.857t-26.857-64.571v-453.714q25.143 28 57.714 49.714 206.857 140.571 284 197.143 32.571 24 52.857 37.429t54 27.429 62.857 14h1.143q29.143 0 62.857-14t54-27.429 52.857-37.429q97.143-70.286 284.571-197.143 32.571-22.286 57.143-49.714zM1024 237.714q0 45.143-28 86.286t-69.714 70.286q-214.857 149.143-267.429 185.714-5.714 4-24.286 17.429t-30.857 21.714-29.714 18.571-32.857 15.429-28.571 5.143h-1.143q-13.143 0-28.571-5.143t-32.857-15.429-29.714-18.571-30.857-21.714-24.286-17.429q-52-36.571-149.714-104.286t-117.143-81.429q-35.429-24-66.857-66t-31.429-78q0-44.571 23.714-74.286t67.714-29.714h841.143q37.143 0 64.286 26.857t27.143 64.571z"></path>
</symbol>
<symbol id="gavel" viewBox="0 0 1024 1024">
	<title>gavel</title>
	<path class="path1" d="M1012 877.714q0 30.286-21.143 51.429l-61.143 61.714q-22.286 21.143-52 21.143-30.286 0-51.429-21.143l-207.429-208q-21.714-20.571-21.714-51.429 0-30.286 24.571-54.857l-146.286-146.286-72 72q-8 8-19.429 8t-19.429-8q1.143 1.143 7.143 6.857t7.143 7.429 5.714 6.571 5.714 7.714 3.429 7.714 3.143 9.429 0.857 10.286q0 21.714-16 38.857-1.714 1.714-9.429 10.286t-10.857 11.714-10.571 9.429-12.571 8.857-12.571 5.143-14.857 2.571q-22.857 0-38.857-16l-233.143-233.143q-16-16-16-38.857 0-7.429 2.571-14.857t5.143-12.571 8.857-12.571 9.429-10.571 11.714-10.857 10.286-9.429q17.143-16 38.857-16 5.714 0 10.286 0.857t9.429 3.143 7.714 3.429 7.714 5.714 6.571 5.714 7.429 7.143 6.857 7.143q-8-8-8-19.429t8-19.429l198.857-198.857q8-8 19.429-8t19.429 8q-1.143-1.143-7.143-6.857t-7.143-7.429-5.714-6.571-5.714-7.714-3.429-7.714-3.143-9.429-0.857-10.286q0-21.714 16-38.857 1.714-1.714 9.429-10.286t10.857-11.714 10.571-9.429 12.571-8.857 12.571-5.143 14.857-2.571q22.857 0 38.857 16l233.143 233.143q16 16 16 38.857 0 7.429-2.571 14.857t-5.143 12.571-8.857 12.571-9.429 10.571-11.714 10.857-10.286 9.429q-17.143 16-38.857 16-5.714 0-10.286-0.857t-9.429-3.143-7.714-3.429-7.714-5.714-6.571-5.714-7.429-7.143-6.857-7.143q8 8 8 19.429t-8 19.429l-72 72 146.286 146.286q24.571-24.571 54.857-24.571 29.714 0 52 21.143l207.429 207.429q21.143 22.286 21.143 52z"></path>
</symbol>
<symbol id="bell" viewBox="0 0 1024 1024">
	<title>bell</title>
	<path class="path1" d="M521.143 969.143q0-9.143-9.143-9.143-33.714 0-58-24.286t-24.286-58q0-9.143-9.143-9.143t-9.143 9.143q0 41.714 29.429 71.143t71.143 29.429q9.143 0 9.143-9.143zM987.429 804.571q0 29.714-21.714 51.429t-51.429 21.714h-256q0 60.571-42.857 103.429t-103.429 42.857-103.429-42.857-42.857-103.429h-256q-29.714 0-51.429-21.714t-21.714-51.429q28.571-24 52-50.286t48.571-68.286 42.571-90.571 28.571-117.714 11.143-148.571q0-86.857 66.857-161.429t175.429-90.571q-4.571-10.857-4.571-22.286 0-22.857 16-38.857t38.857-16 38.857 16 16 38.857q0 11.429-4.571 22.286 108.571 16 175.429 90.571t66.857 161.429q0 79.429 11.143 148.571t28.571 117.714 42.571 90.571 48.571 68.286 52 50.286z"></path>
</symbol>
<symbol id="angle-left" viewBox="0 0 366 1024">
	<title>angle-left</title>
	<path class="path1" d="M358.286 310.857q0 7.429-5.714 13.143l-224.571 224.571 224.571 224.571q5.714 5.714 5.714 13.143t-5.714 13.143l-28.571 28.571q-5.714 5.714-13.143 5.714t-13.143-5.714l-266.286-266.286q-5.714-5.714-5.714-13.143t5.714-13.143l266.286-266.286q5.714-5.714 13.143-5.714t13.143 5.714l28.571 28.571q5.714 5.714 5.714 13.143z"></path>
</symbol>
<symbol id="angle-right" viewBox="0 0 366 1024">
	<title>angle-right</title>
	<path class="path1" d="M340 548.571q0 7.429-5.714 13.143l-266.286 266.286q-5.714 5.714-13.143 5.714t-13.143-5.714l-28.571-28.571q-5.714-5.714-5.714-13.143t5.714-13.143l224.571-224.571-224.571-224.571q-5.714-5.714-5.714-13.143t5.714-13.143l28.571-28.571q5.714-5.714 13.143-5.714t13.143 5.714l266.286 266.286q5.714 5.714 5.714 13.143z"></path>
</symbol>
<symbol id="angle-up" viewBox="0 0 658 1024">
	<title>angle-up</title>
	<path class="path1" d="M614.286 676.571q0 7.429-5.714 13.143l-28.571 28.571q-5.714 5.714-13.143 5.714t-13.143-5.714l-224.571-224.571-224.571 224.571q-5.714 5.714-13.143 5.714t-13.143-5.714l-28.571-28.571q-5.714-5.714-5.714-13.143t5.714-13.143l266.286-266.286q5.714-5.714 13.143-5.714t13.143 5.714l266.286 266.286q5.714 5.714 5.714 13.143z"></path>
</symbol>
<symbol id="angle-down" viewBox="0 0 658 1024">
	<title>angle-down</title>
	<path class="path1" d="M614.286 420.571q0 7.429-5.714 13.143l-266.286 266.286q-5.714 5.714-13.143 5.714t-13.143-5.714l-266.286-266.286q-5.714-5.714-5.714-13.143t5.714-13.143l28.571-28.571q5.714-5.714 13.143-5.714t13.143 5.714l224.571 224.571 224.571-224.571q5.714-5.714 13.143-5.714t13.143 5.714l28.571 28.571q5.714 5.714 5.714 13.143z"></path>
</symbol>
<symbol id="quote-left" viewBox="0 0 951 1024">
	<title>quote-left</title>
	<path class="path1" d="M438.857 548.571v219.429q0 45.714-32 77.714t-77.714 32h-219.429q-45.714 0-77.714-32t-32-77.714v-402.286q0-59.429 23.143-113.429t62.571-93.429 93.429-62.571 113.429-23.143h36.571q14.857 0 25.714 10.857t10.857 25.714v73.143q0 14.857-10.857 25.714t-25.714 10.857h-36.571q-60.571 0-103.429 42.857t-42.857 103.429v18.286q0 22.857 16 38.857t38.857 16h128q45.714 0 77.714 32t32 77.714zM950.857 548.571v219.429q0 45.714-32 77.714t-77.714 32h-219.429q-45.714 0-77.714-32t-32-77.714v-402.286q0-59.429 23.143-113.429t62.571-93.429 93.429-62.571 113.429-23.143h36.571q14.857 0 25.714 10.857t10.857 25.714v73.143q0 14.857-10.857 25.714t-25.714 10.857h-36.571q-60.571 0-103.429 42.857t-42.857 103.429v18.286q0 22.857 16 38.857t38.857 16h128q45.714 0 77.714 32t32 77.714z"></path>
</symbol>
<symbol id="smile-o" viewBox="0 0 877.7142857142858 1024">
	<title>smile-o</title>
	<path class="path1" d="M648 614.286q-21.143 69.143-78.857 111.429t-130.286 42.286-130.286-42.286-78.857-111.429q-4.571-14.286 2.286-27.714t21.714-18q14.286-4.571 27.714 2.286t18 21.714q14.286 45.714 52.857 74t86.571 28.286 86.571-28.286 52.857-74q4.571-14.857 18.286-21.714t28-2.286 21.143 18 2.286 27.714zM365.714 365.714q0 30.286-21.429 51.714t-51.714 21.429-51.714-21.429-21.429-51.714 21.429-51.714 51.714-21.429 51.714 21.429 21.429 51.714zM658.286 365.714q0 30.286-21.429 51.714t-51.714 21.429-51.714-21.429-21.429-51.714 21.429-51.714 51.714-21.429 51.714 21.429 21.429 51.714zM804.571 512q0-74.286-29.143-142t-78-116.571-116.571-78-142-29.143-142 29.143-116.571 78-78 116.571-29.143 142 29.143 142 78 116.571 116.571 78 142 29.143 142-29.143 116.571-78 78-116.571 29.143-142zM877.714 512q0 119.429-58.857 220.286t-159.714 159.714-220.286 58.857-220.286-58.857-159.714-159.714-58.857-220.286 58.857-220.286 159.714-159.714 220.286-58.857 220.286 58.857 159.714 159.714 58.857 220.286z"></path>
</symbol>
<symbol id="code-icon" viewBox="0 0 1097 1024">
	<title>code-icon</title>
	<path class="path1" d="M352.571 799.429l-28.571 28.571q-5.714 5.714-13.143 5.714t-13.143-5.714l-266.286-266.286q-5.714-5.714-5.714-13.143t5.714-13.143l266.286-266.286q5.714-5.714 13.143-5.714t13.143 5.714l28.571 28.571q5.714 5.714 5.714 13.143t-5.714 13.143l-224.571 224.571 224.571 224.571q5.714 5.714 5.714 13.143t-5.714 13.143zM690.286 189.714l-213.143 737.714q-2.286 7.429-8.857 11.143t-13.429 1.429l-35.429-9.714q-7.429-2.286-11.143-8.857t-1.429-14l213.143-737.714q2.286-7.429 8.857-11.143t13.429-1.429l35.429 9.714q7.429 2.286 11.143 8.857t1.429 14zM1065.714 561.714l-266.286 266.286q-5.714 5.714-13.143 5.714t-13.143-5.714l-28.571-28.571q-5.714-5.714-5.714-13.143t5.714-13.143l224.571-224.571-224.571-224.571q-5.714-5.714-5.714-13.143t5.714-13.143l28.571-28.571q5.714-5.714 13.143-5.714t13.143 5.714l266.286 266.286q5.714 5.714 5.714 13.143t-5.714 13.143z"></path>
</symbol>
<symbol id="question" viewBox="0 0 585 1024">
	<title>question</title>
	<path class="path1" d="M402.286 717.714v137.143q0 9.143-6.857 16t-16 6.857h-137.143q-9.143 0-16-6.857t-6.857-16v-137.143q0-9.143 6.857-16t16-6.857h137.143q9.143 0 16 6.857t6.857 16zM582.857 374.857q0 30.857-8.857 57.714t-20 43.714-31.429 34-32.857 24.857-34.857 20.286q-23.429 13.143-39.143 37.143t-15.714 38.286q0 9.714-6.857 18.571t-16 8.857h-137.143q-8.571 0-14.571-10.571t-6-21.429v-25.714q0-47.429 37.143-89.429t81.714-62q33.714-15.429 48-32t14.286-43.429q0-24-26.571-42.286t-61.429-18.286q-37.143 0-61.714 16.571-20 14.286-61.143 65.714-7.429 9.143-17.714 9.143-6.857 0-14.286-4.571l-93.714-71.429q-7.429-5.714-8.857-14.286t3.143-16q91.429-152 265.143-152 45.714 0 92 17.714t83.429 47.429 60.571 72.857 23.429 90.571z"></path>
</symbol>
<symbol id="exclamation" viewBox="0 0 366 1024">
	<title>exclamation</title>
	<path class="path1" d="M292.571 713.143v128q0 14.857-10.857 25.714t-25.714 10.857h-146.286q-14.857 0-25.714-10.857t-10.857-25.714v-128q0-14.857 10.857-25.714t25.714-10.857h146.286q14.857 0 25.714 10.857t10.857 25.714zM309.714 109.714l-16 438.857q-0.571 14.857-11.714 25.714t-26 10.857h-146.286q-14.857 0-26-10.857t-11.714-25.714l-16-438.857q-0.571-14.857 10-25.714t25.429-10.857h182.857q14.857 0 25.429 10.857t10 25.714z"></path>
</symbol>
<symbol id="shield" viewBox="0 0 731 1024">
	<title>shield</title>
	<path class="path1" d="M621.714 548.571v-365.714h-256v649.714q68-36 121.714-78.286 134.286-105.143 134.286-205.714zM731.429 109.714v438.857q0 49.143-19.143 97.429t-47.429 85.714-67.429 72.857-72.286 58.857-69.143 44.286-51.143 28.286-24.286 11.429q-6.857 3.429-14.857 3.429t-14.857-3.429q-9.143-4-24.286-11.429t-51.143-28.286-69.143-44.286-72.286-58.857-67.429-72.857-47.429-85.714-19.143-97.429v-438.857q0-14.857 10.857-25.714t25.714-10.857h658.286q14.857 0 25.714 10.857t10.857 25.714z"></path>
</symbol>
<symbol id="top" viewBox="0 0 877.7142857142858 1024">
	<title>top</title>
	<path class="path1" d="M665.714 650.857l58.286-58.286q10.857-10.857 10.857-25.714t-10.857-25.714l-259.429-259.429q-10.857-10.857-25.714-10.857t-25.714 10.857l-259.429 259.429q-10.857 10.857-10.857 25.714t10.857 25.714l58.286 58.286q10.857 10.857 25.714 10.857t25.714-10.857l175.429-175.429 175.429 175.429q10.857 10.857 25.714 10.857t25.714-10.857zM877.714 512q0 119.429-58.857 220.286t-159.714 159.714-220.286 58.857-220.286-58.857-159.714-159.714-58.857-220.286 58.857-220.286 159.714-159.714 220.286-58.857 220.286 58.857 159.714 159.714 58.857 220.286z"></path>
</symbol>
<symbol id="ellipsis-h" viewBox="0 0 805 1024">
	<title>ellipsis-h</title>
	<path class="path1" d="M219.429 420.571v109.714q0 22.857-16 38.857t-38.857 16h-109.714q-22.857 0-38.857-16t-16-38.857v-109.714q0-22.857 16-38.857t38.857-16h109.714q22.857 0 38.857 16t16 38.857zM512 420.571v109.714q0 22.857-16 38.857t-38.857 16h-109.714q-22.857 0-38.857-16t-16-38.857v-109.714q0-22.857 16-38.857t38.857-16h109.714q22.857 0 38.857 16t16 38.857zM804.571 420.571v109.714q0 22.857-16 38.857t-38.857 16h-109.714q-22.857 0-38.857-16t-16-38.857v-109.714q0-22.857 16-38.857t38.857-16h109.714q22.857 0 38.857 16t16 38.857z"></path>
</symbol>
<symbol id="rss-square" viewBox="0 0 877.7142857142858 1024">
	<title>rss-square</title>
	<path class="path1" d="M292.571 731.429q0-30.286-21.429-51.714t-51.714-21.429-51.714 21.429-21.429 51.714 21.429 51.714 51.714 21.429 51.714-21.429 21.429-51.714zM493.143 785.143q-7.429-132.571-101.143-226.286t-226.286-101.143q-8-0.571-13.714 5.143t-5.714 13.143v73.143q0 7.429 4.857 12.571t12.286 5.714q88 6.286 150.857 69.143t69.143 150.857q0.571 7.429 5.714 12.286t12.571 4.857h73.143q7.429 0 13.143-5.714t5.143-13.714zM712.571 785.714q-2.857-88-32-170t-79.714-148.571-117.143-117.143-148.571-79.714-170-32q-8-0.571-13.143 5.143-5.714 5.714-5.714 13.143v73.143q0 7.429 5.143 12.571t12.571 5.714q116.571 4 216 63.714t159.143 159.143 63.714 216q0.571 7.429 5.714 12.571t12.571 5.143h73.143q7.429 0 13.143-5.714 6.286-5.143 5.143-13.143zM877.714 237.714v548.571q0 68-48.286 116.286t-116.286 48.286h-548.571q-68 0-116.286-48.286t-48.286-116.286v-548.571q0-68 48.286-116.286t116.286-48.286h548.571q68 0 116.286 48.286t48.286 116.286z"></path>
</symbol>
<symbol id="level-up" viewBox="0 0 585 1024">
	<title>level-up</title>
	<path class="path1" d="M581.714 344.571q-10.286 21.143-33.143 21.143h-109.714v493.714q0 8-5.143 13.143t-13.143 5.143h-402.286q-12 0-16.571-10.286-4.571-11.429 2.286-20l91.429-109.714q5.143-6.286 14.286-6.286h182.857v-365.714h-109.714q-22.857 0-33.143-21.143-9.714-21.143 5.143-38.857l182.857-219.429q10.286-12.571 28-12.571t28 12.571l182.857 219.429q15.429 18.286 5.143 38.857z"></path>
</symbol>
<symbol id="jump-to" viewBox="0 0 1097 1024">
	<title>jump-to</title>
	<path class="path1" d="M72.192 991.086v-702.464c0-8.631 2.341-16.091 6.949-22.528 4.535-6.29 10.24-9.509 17.042-9.509h627.566v-191.634c0-26.551 9.070-45.787 27.063-57.783 17.847-11.995 34.597-8.923 50.103 8.997l279.259 319.415c10.679 11.922 16.091 28.233 16.091 49.006 0 20.48-5.413 36.864-16.091 48.859l-279.259 319.195c-15.067 17.335-31.744 20.334-50.176 9.070-17.92-11.995-26.917-31.232-26.917-57.783v-191.634h-465.481v319.269c0 9.289-2.633 17.554-8.046 24.869l-139.557 159.744c-6.802 8.631-15.067 10.021-24.722 4.023-9.216-6.071-13.897-15.726-13.897-28.965v-0.219z"></path>
</symbol>
<symbol id="external-link" viewBox="0 0 877.7142857142858 1024">
	<title>external-link</title>
	<path class="path1" d="M731.429 530.286v-274.286q0-14.857-10.857-25.714t-25.714-10.857h-274.286q-24 0-33.714 22.286-9.714 23.429 8 40l82.286 82.286-305.143 305.143q-10.857 10.857-10.857 25.714t10.857 25.714l58.286 58.286q10.857 10.857 25.714 10.857t25.714-10.857l305.143-305.143 82.286 82.286q10.286 10.857 25.714 10.857 6.857 0 14.286-2.857 22.286-9.714 22.286-33.714zM877.714 237.714v548.571q0 68-48.286 116.286t-116.286 48.286h-548.571q-68 0-116.286-48.286t-48.286-116.286v-548.571q0-68 48.286-116.286t116.286-48.286h548.571q68 0 116.286 48.286t48.286 116.286z"></path>
</symbol>
<symbol id="file" viewBox="0 0 877.7142857142858 1024">
	<title>file</title>
	<path class="path1" d="M585.143 292.571v-269.714q12.571 8 20.571 16l233.143 233.143q8 8 16 20.571h-269.714zM512 310.857q0 22.857 16 38.857t38.857 16h310.857v603.429q0 22.857-16 38.857t-38.857 16h-768q-22.857 0-38.857-16t-16-38.857v-914.286q0-22.857 16-38.857t38.857-16h457.143v310.857z"></path>
</symbol>
<symbol id="recycle" viewBox="0 0 1024 1024">
	<title>recycle</title>
	<path class="path1" d="M477.714 668l-8.571 210.286-1.143 12.571-240-16.571q-20.571-1.714-38.286-18t-26.857-37.429q-6.286-15.429-8.286-31.429t2.286-37.143 6.857-31.429 12.286-36.571 10.857-30.286q44.571 6.857 290.857 16zM256.571 333.143l102.857 216.571-84-52.571q-36 41.143-63.714 82.571t-41.429 71.429-22.571 54-10.571 36l-2.286 12-108.571-204q-9.714-14.857-10.286-32t3.429-26.857l4.571-10.286q20-36 65.143-107.429l-80-49.143zM960 628.571l-107.429 205.143q-6.857 16.571-20.857 26.571t-24.857 11.714l-10.286 2.286q-40.571 4-125.143 6.857l4.571 93.714-131.429-209.714 120.571-206.857 4 98.857q97.143 9.143 161.714 2.857t97.143-18.857zM511.429 100.571q-26.857 36-151.429 248.571l-181.143-106.857-10.857-6.857 128.571-203.429q11.429-17.714 34.286-25.714t45.714-5.714q13.714 1.143 27.714 6.857t24 12 23.714 18.857 20.571 19.714 20.571 22.571 18.286 20zM885.714 276l121.143 207.429q10.286 21.143 7.143 43.429t-15.714 42.286q-7.429 11.429-18.857 21.143t-21.714 16-27.714 12.571-26.857 9.143-29.429 8-26.286 6.857q-19.429-41.143-151.429-249.143l178.857-111.429zM804 146.857l81.143-47.429-125.714 213.143-239.429-11.429 86.286-49.143q-19.429-50.857-42.857-94.857t-43.143-70.571-36.857-45.714-26.857-26.571l-9.714-7.429 231.429 0.571q17.714-1.714 33.143 6t22.286 16.286l6.286 8.571q22.286 34.857 64 108.571z"></path>
</symbol>
<symbol id="sliders" viewBox="0 0 877.7142857142858 1024">
	<title>sliders</title>
	<path class="path1" d="M201.143 804.571v73.143h-201.143v-73.143h201.143zM402.286 731.429q14.857 0 25.714 10.857t10.857 25.714v146.286q0 14.857-10.857 25.714t-25.714 10.857h-146.286q-14.857 0-25.714-10.857t-10.857-25.714v-146.286q0-14.857 10.857-25.714t25.714-10.857h146.286zM493.714 512v73.143h-493.714v-73.143h493.714zM128 219.429v73.143h-128v-73.143h128zM877.714 804.571v73.143h-420.571v-73.143h420.571zM329.143 146.286q14.857 0 25.714 10.857t10.857 25.714v146.286q0 14.857-10.857 25.714t-25.714 10.857h-146.286q-14.857 0-25.714-10.857t-10.857-25.714v-146.286q0-14.857 10.857-25.714t25.714-10.857h146.286zM694.857 438.857q14.857 0 25.714 10.857t10.857 25.714v146.286q0 14.857-10.857 25.714t-25.714 10.857h-146.286q-14.857 0-25.714-10.857t-10.857-25.714v-146.286q0-14.857 10.857-25.714t25.714-10.857h146.286zM877.714 512v73.143h-128v-73.143h128zM877.714 219.429v73.143h-493.714v-73.143h493.714z"></path>
</symbol>
<symbol id="pages" viewBox="0 0 1024 1024">
	<title>pages</title>
	<path class="path1" d="M950.857 932.571v-621.714q0-7.429-5.429-12.857t-12.857-5.429h-621.714q-7.429 0-12.857 5.429t-5.429 12.857v621.714q0 7.429 5.429 12.857t12.857 5.429h621.714q7.429 0 12.857-5.429t5.429-12.857zM1024 310.857v621.714q0 37.714-26.857 64.571t-64.571 26.857h-621.714q-37.714 0-64.571-26.857t-26.857-64.571v-621.714q0-37.714 26.857-64.571t64.571-26.857h621.714q37.714 0 64.571 26.857t26.857 64.571zM804.571 91.429v91.429h-73.143v-91.429q0-7.429-5.429-12.857t-12.857-5.429h-621.714q-7.429 0-12.857 5.429t-5.429 12.857v621.714q0 7.429 5.429 12.857t12.857 5.429h91.429v73.143h-91.429q-37.714 0-64.571-26.857t-26.857-64.571v-621.714q0-37.714 26.857-64.571t64.571-26.857h621.714q37.714 0 64.571 26.857t26.857 64.571z"></path>
</symbol>
<symbol id="commenting-o" viewBox="0 0 1024 1024">
	<title>commenting-o</title>
	<path class="path1" d="M365.714 512q0 30.286-21.429 51.714t-51.714 21.429-51.714-21.429-21.429-51.714 21.429-51.714 51.714-21.429 51.714 21.429 21.429 51.714zM585.143 512q0 30.286-21.429 51.714t-51.714 21.429-51.714-21.429-21.429-51.714 21.429-51.714 51.714-21.429 51.714 21.429 21.429 51.714zM804.571 512q0 30.286-21.429 51.714t-51.714 21.429-51.714-21.429-21.429-51.714 21.429-51.714 51.714-21.429 51.714 21.429 21.429 51.714zM512 219.429q-116.571 0-218 39.714t-161.143 107.143-59.714 145.714q0 64 40.857 122t115.143 100.286l49.714 28.571-15.429 54.857q-13.714 52-40 98.286 86.857-36 157.143-97.714l24.571-21.714 32.571 3.429q39.429 4.571 74.286 4.571 116.571 0 218-39.714t161.143-107.143 59.714-145.714-59.714-145.714-161.143-107.143-218-39.714zM1024 512q0 99.429-68.571 183.714t-186.286 133.143-257.143 48.857q-40 0-82.857-4.571-113.143 100-262.857 138.286-28 8-65.143 12.571h-2.857q-8.571 0-15.429-6t-9.143-15.714v-0.571q-1.714-2.286-0.286-6.857t1.143-5.714 2.571-5.429l3.429-5.143t4-4.857 4.571-5.143q4-4.571 17.714-19.714t19.714-21.714 17.714-22.571 18.571-29.143 15.429-33.714 14.857-43.429q-89.714-50.857-141.429-125.714t-51.714-160.571q0-74.286 40.571-142t109.143-116.857 163.429-78 198.857-28.857 198.857 28.857 163.429 78 109.143 116.857 40.571 142z"></path>
</symbol>
<symbol id="flash" viewBox="0 0 512 1024">
	<title>flash</title>
	<path class="path1" d="M505.714 323.429q10.286 11.429 4 25.143l-308.571 661.143q-7.429 14.286-24 14.286-2.286 0-8-1.143-9.714-2.857-14.571-10.857t-2.571-17.143l112.571-461.714-232 57.714q-2.286 0.571-6.857 0.571-10.286 0-17.714-6.286-10.286-8.571-7.429-22.286l114.857-471.429q2.286-8 9.143-13.143t16-5.143h187.429q10.857 0 18.286 7.143t7.429 16.857q0 4.571-2.857 10.286l-97.714 264.571 226.286-56q4.571-1.143 6.857-1.143 10.857 0 19.429 8.571z"></path>
</symbol>
<symbol id="trash" viewBox="0 0 805 1024">
	<title>trash</title>
	<path class="path1" d="M292.571 786.286v-402.286q0-8-5.143-13.143t-13.143-5.143h-36.571q-8 0-13.143 5.143t-5.143 13.143v402.286q0 8 5.143 13.143t13.143 5.143h36.571q8 0 13.143-5.143t5.143-13.143zM438.857 786.286v-402.286q0-8-5.143-13.143t-13.143-5.143h-36.571q-8 0-13.143 5.143t-5.143 13.143v402.286q0 8 5.143 13.143t13.143 5.143h36.571q8 0 13.143-5.143t5.143-13.143zM585.143 786.286v-402.286q0-8-5.143-13.143t-13.143-5.143h-36.571q-8 0-13.143 5.143t-5.143 13.143v402.286q0 8 5.143 13.143t13.143 5.143h36.571q8 0 13.143-5.143t5.143-13.143zM274.286 219.429h256l-27.429-66.857q-4-5.143-9.714-6.286h-181.143q-5.714 1.143-9.714 6.286zM804.571 237.714v36.571q0 8-5.143 13.143t-13.143 5.143h-54.857v541.714q0 47.429-26.857 82t-64.571 34.571h-475.429q-37.714 0-64.571-33.429t-26.857-80.857v-544h-54.857q-8 0-13.143-5.143t-5.143-13.143v-36.571q0-8 5.143-13.143t13.143-5.143h176.571l40-95.429q8.571-21.143 30.857-36t45.143-14.857h182.857q22.857 0 45.143 14.857t30.857 36l40 95.429h176.571q8 0 13.143 5.143t5.143 13.143z"></path>
</symbol>
<symbol id="reply" viewBox="0 0 1024 1024">
	<title>reply</title>
	<path class="path1" d="M1024 640q0 94.857-72.571 257.714-1.714 4-6 13.714t-7.714 17.143-7.429 12.571q-6.857 9.714-16 9.714-8.571 0-13.429-5.714t-4.857-14.286q0-5.143 1.429-15.143t1.429-13.429q2.857-38.857 2.857-70.286 0-57.714-10-103.429t-27.714-79.143-45.714-57.714-60.286-39.714-76-24.286-88-12.286-100.286-3.429h-128v146.286q0 14.857-10.857 25.714t-25.714 10.857-25.714-10.857l-292.571-292.571q-10.857-10.857-10.857-25.714t10.857-25.714l292.571-292.571q10.857-10.857 25.714-10.857t25.714 10.857 10.857 25.714v146.286h128q407.429 0 500 230.286 30.286 76.571 30.286 190.286z"></path>
</symbol>
<symbol id="forward" viewBox="0 0 1024 1024">
	<title>forward</title>
	<path class="path1" d="M1024 365.714q0 14.857-10.857 25.714l-292.571 292.571q-10.857 10.857-25.714 10.857t-25.714-10.857-10.857-25.714v-146.286h-128q-56 0-100.286 3.429t-88 12.286-76 24.286-60.286 39.714-45.714 57.714-27.714 79.143-10 103.429q0 31.429 2.857 70.286 0 3.429 1.429 13.429t1.429 15.143q0 8.571-4.857 14.286t-13.429 5.714q-9.143 0-16-9.714-4-5.143-7.429-12.571t-7.714-17.143-6-13.714q-72.571-162.857-72.571-257.714 0-113.714 30.286-190.286 92.571-230.286 500-230.286h128v-146.286q0-14.857 10.857-25.714t25.714-10.857 25.714 10.857l292.571 292.571q10.857 10.857 10.857 25.714z"></path>
</symbol>
<symbol id="reply-all" viewBox="0 0 1024 1024">
	<title>reply-all</title>
	<path class="path1" d="M365.714 618.286v40q0 24-22.286 33.714-7.429 2.857-14.286 2.857-15.429 0-25.714-10.857l-292.571-292.571q-10.857-10.857-10.857-25.714t10.857-25.714l292.571-292.571q16.571-17.714 40-8 22.286 9.714 22.286 33.714v39.429l-226.857 227.429q-10.857 10.857-10.857 25.714t10.857 25.714zM1024 640q0 33.143-9.714 76.286t-22 78.857-27.429 71.429-23.143 51.714l-11.429 22.857q-4.571 9.714-16 9.714-3.429 0-5.143-0.571-14.286-4.571-13.143-19.429 24.571-228.571-60.571-322.857-36.571-40.571-97.429-63.143t-152.857-30v143.429q0 24-22.286 33.714-7.429 2.857-14.286 2.857-15.429 0-25.714-10.857l-292.571-292.571q-10.857-10.857-10.857-25.714t10.857-25.714l292.571-292.571q16.571-17.714 40-8 22.286 9.714 22.286 33.714v149.714q234.857 16 342.286 126.286 96.571 98.857 96.571 290.857z"></path>
</symbol>
<symbol id="times" viewBox="0 0 805 1024">
	<title>times</title>
	<path class="path1" d="M741.714 755.429q0 22.857-16 38.857l-77.714 77.714q-16 16-38.857 16t-38.857-16l-168-168-168 168q-16 16-38.857 16t-38.857-16l-77.714-77.714q-16-16-16-38.857t16-38.857l168-168-168-168q-16-16-16-38.857t16-38.857l77.714-77.714q16-16 38.857-16t38.857 16l168 168 168-168q16-16 38.857-16t38.857 16l77.714 77.714q16 16 16 38.857t-16 38.857l-168 168 168 168q16 16 16 38.857z"></path>
</symbol>
<symbol id="info" viewBox="0 0 366 1024">
	<title>info</title>
	<path class="path1" d="M365.714 768v73.143q0 14.857-10.857 25.714t-25.714 10.857h-292.571q-14.857 0-25.714-10.857t-10.857-25.714v-73.143q0-14.857 10.857-25.714t25.714-10.857h36.571v-219.429h-36.571q-14.857 0-25.714-10.857t-10.857-25.714v-73.143q0-14.857 10.857-25.714t25.714-10.857h219.429q14.857 0 25.714 10.857t10.857 25.714v329.143h36.571q14.857 0 25.714 10.857t10.857 25.714zM292.571 109.714v109.714q0 14.857-10.857 25.714t-25.714 10.857h-146.286q-14.857 0-25.714-10.857t-10.857-25.714v-109.714q0-14.857 10.857-25.714t25.714-10.857h146.286q14.857 0 25.714 10.857t10.857 25.714z"></path>
</symbol>
</defs>
</svg>