<?xml version="1.0" encoding="utf-8"?>
<!-- Generated by IcoMoon.io -->
<!DOCTYPE svg PUBLIC "-//W3C//DTD SVG 1.1//EN" "http://www.w3.org/Graphics/SVG/1.1/DTD/svg11.dtd">
<svg version="1.1" xmlns="http://www.w3.org/2000/svg" xmlns:xlink="http://www.w3.org/1999/xlink" width="1250" height="130" viewBox="0 0 1250 130">
	<svg width="27" height="27">
		<path fill="#666" d="M9.18 17.28h5.94V16.2H8.64v1.08h.54zm0 3.24h9.18v-1.08H8.64v1.08h.54zm0 2.16h9.18V21.6H8.64v1.08h.54z"/>
		<path fill="#196DB5" d="M14.23 7.82H8.683V5.4h9.677v9.677h-2.42V9.53l-5.59 5.59-1.71-1.71 5.59-5.59z"/>
		<path fill="#196DB5" d="M13.5 25.92c6.86 0 12.42-5.56 12.42-12.42S20.36 1.08 13.5 1.08 1.08 6.64 1.08 13.5 6.64 25.92 13.5 25.92zm0 1.08C6.044 27 0 20.956 0 13.5S6.044 0 13.5 0 27 6.044 27 13.5 20.956 27 13.5 27z"/>
	</svg>
	<svg width="27" height="27" x="37">
		<path fill="#666" d="M19.98 22.68V21.6h4.32v1.08h-4.32zm0 2.16v-1.08h4.32v1.08h-4.32zm.54-8.1h3.24v3.24h-3.24v-3.24zm5.4 3.24v-3.243c0-1.19-.97-2.157-2.166-2.157h-3.227c-1.21 0-2.166.966-2.166 2.157v3.243h-1.08v6.48H27v-6.48h-1.08zm-10.26-.54H8.64v-1.08h7.02v1.08zm0 2.16H8.64v-1.08h7.02v1.08zM9.18 6.48h5.94V5.4H8.64v1.08h.54zm0 3.24h9.18V8.64H8.64v1.08h.54zm0 2.16h9.18V10.8H8.64v1.08h.54zm0 4.32h5.94v-1.08H8.64v1.08h.54z"/>
		<path fill="#196DB5" d="M26.99 12.96C26.705 5.755 20.774 0 13.5 0 6.044 0 0 6.044 0 13.5S6.044 27 13.5 27c.735 0 1.457-.06 2.16-.172v-1.014c-.702.122-1.423.186-2.16.186C6.596 26 1 20.404 1 13.5S6.596 1 13.5 1c6.723 0 12.206 5.307 12.49 11.96h1z"/>
	</svg>
	<svg width="27" height="27" x="74">
		<path fill="#bc2a4d" d="M19.98 22.68V21.6h4.32v1.08h-4.32zm0 2.16v-1.08h4.32v1.08h-4.32zm.54-8.1h3.24v3.24h-3.24v-3.24zm5.4 3.24v-3.243c0-1.19-.97-2.157-2.166-2.157h-3.227c-1.21 0-2.166.966-2.166 2.157v3.243h-1.08v6.48H27v-6.48h-1.08zm-10.26-.54H8.64v-1.08h7.02v1.08zm0 2.16H8.64v-1.08h7.02v1.08zM9.18 6.48h5.94V5.4H8.64v1.08h.54zm0 3.24h9.18V8.64H8.64v1.08h.54zm0 2.16h9.18V10.8H8.64v1.08h.54zm0 4.32h5.94v-1.08H8.64v1.08h.54z"/>
		<path fill="#bc2a4d" d="M26.99 12.96C26.705 5.755 20.774 0 13.5 0 6.044 0 0 6.044 0 13.5S6.044 27 13.5 27c.735 0 1.457-.06 2.16-.172v-1.014c-.702.122-1.423.186-2.16.186C6.596 26 1 20.404 1 13.5S6.596 1 13.5 1c6.723 0 12.206 5.307 12.49 11.96h1z"/>
	</svg>
	<svg width="27" height="27" x="111">
		<path fill="#666" d="M15.66 19.44H8.64v-1.08h7.02v1.08zm0 2.16H8.64v-1.08h7.02v1.08zM9.18 6.48h5.94V5.4H8.64v1.08h.54zm0 3.24h9.18V8.64H8.64v1.08h.54zm0 2.16h9.18V10.8H8.64v1.08h.54zm0 4.32h5.94v-1.08H8.64v1.08h.54z"/>
		<path fill="#196DB5" d="M13.5 25.92c6.86 0 12.42-5.56 12.42-12.42S20.36 1.08 13.5 1.08 1.08 6.64 1.08 13.5 6.64 25.92 13.5 25.92zm0 1.08C6.044 27 0 20.956 0 13.5S6.044 0 13.5 0 27 6.044 27 13.5 20.956 27 13.5 27z"/>
	</svg>
	<svg width="27" height="27" x="148">
		<path fill="#bc2a4d" d="M15.66 19.44H8.64v-1.08h7.02v1.08zm0 2.16H8.64v-1.08h7.02v1.08zM9.18 6.48h5.94V5.4H8.64v1.08h.54zm0 3.24h9.18V8.64H8.64v1.08h.54zm0 2.16h9.18V10.8H8.64v1.08h.54zm0 4.32h5.94v-1.08H8.64v1.08h.54z"/>
		<path fill="#bc2a4d" d="M13.5 25.92c6.86 0 12.42-5.56 12.42-12.42S20.36 1.08 13.5 1.08 1.08 6.64 1.08 13.5 6.64 25.92 13.5 25.92zm0 1.08C6.044 27 0 20.956 0 13.5S6.044 0 13.5 0 27 6.044 27 13.5 20.956 27 13.5 27z"/>
	</svg>
	<svg width="27" height="27" x="185">
		<path fill="#196DB5" d="M21.06 25.92c2.684 0 4.86-2.176 4.86-4.86s-2.176-4.86-4.86-4.86-4.86 2.176-4.86 4.86 2.176 4.86 4.86 4.86zm0 1.08c-3.28 0-5.94-2.66-5.94-5.94s2.66-5.94 5.94-5.94c3.28 0 5.94 2.66 5.94 5.94S24.34 27 21.06 27z"/>
		<path fill="#666" d="M21.762 19.98h.378V18.9h-3.78v1.08h3.402zm-2.952 3.24h4.95v-1.08h-5.4v1.08h.45zm-5.136-3.78H8.64v-1.08h5.356c-.133.348-.24.71-.322 1.08zm-.155 2.16H8.64v-1.08h4.88c-.014.178-.02.358-.02.54s.006.362.02.54zM9.18 6.48h5.94V5.4H8.64v1.08h.54zm0 3.24h9.18V8.64H8.64v1.08h.54zm0 2.16h9.18V10.8H8.64v1.08h.54zm0 4.32h5.94v-1.08H8.64v1.08h.54z"/>
		<path fill="#196DB5" d="M26.753 16.085c.162-.837.247-1.7.247-2.585C27 6.044 20.956 0 13.5 0S0 6.044 0 13.5 6.044 27 13.5 27c.884 0 1.75-.085 2.585-.247-.33-.288-.634-.604-.91-.945-.547.074-1.107.112-1.675.112-6.86 0-12.42-5.56-12.42-12.42S6.64 1.08 13.5 1.08 25.92 6.64 25.92 13.5c0 .57-.038 1.128-.112 1.676.34.275.657.58.945.91z"/>
	</svg>
	<svg width="27" height="27" x="222">
		<path fill="#bc2a4d" d="M21.762 19.98h.378V18.9h-3.78v1.08h3.402zm-2.952 3.24h4.95v-1.08h-5.4v1.08h.45z"/>
		<path fill="#bc2a4d" d="M21.06 25.92c2.684 0 4.86-2.176 4.86-4.86s-2.176-4.86-4.86-4.86-4.86 2.176-4.86 4.86 2.176 4.86 4.86 4.86zm0 1.08c-3.28 0-5.94-2.66-5.94-5.94s2.66-5.94 5.94-5.94c3.28 0 5.94 2.66 5.94 5.94S24.34 27 21.06 27zm-7.386-7.56H8.64v-1.08h5.356c-.133.348-.24.71-.322 1.08zm-.155 2.16H8.64v-1.08h4.88c-.014.178-.02.358-.02.54s.006.362.02.54zM9.18 6.48h5.94V5.4H8.64v1.08h.54zm0 3.24h9.18V8.64H8.64v1.08h.54zm0 2.16h9.18V10.8H8.64v1.08h.54zm0 4.32h5.94v-1.08H8.64v1.08h.54z"/>
		<path fill="#bc2a4d" d="M26.753 16.085c.162-.837.247-1.7.247-2.585C27 6.044 20.956 0 13.5 0S0 6.044 0 13.5 6.044 27 13.5 27c.884 0 1.75-.085 2.585-.247-.33-.288-.634-.604-.91-.945-.547.074-1.107.112-1.675.112-6.86 0-12.42-5.56-12.42-12.42S6.64 1.08 13.5 1.08 25.92 6.64 25.92 13.5c0 .57-.038 1.128-.112 1.676.34.275.657.58.945.91z"/>
	</svg>
	<svg width="27" height="27" x="259">
		<path fill="#bc2a4d" d="M19.98 22.68V21.6h4.32v1.08h-4.32zm0 2.16v-1.08h4.32v1.08h-4.32zm.54-8.1h3.24v3.24h-3.24v-3.24zm5.4 3.24v-3.243c0-1.19-.97-2.157-2.166-2.157h-3.227c-1.21 0-2.166.966-2.166 2.157v3.243h-1.08v6.48H27v-6.48h-1.08zM22.14 6.75l-2.222 1.168.424-2.474-1.798-1.752 2.484-.36 1.11-2.252 1.112 2.25 2.484.362-1.798 1.752.424 2.474zm-10.26 5.454c.216-.432 0-.648-.216-.648-.864 0-2.052 2.052-2.484 2.052-.216 0-.324-.216-.324-.324 0-.432 1.08-1.404 1.404-1.728.972-.864 2.268-1.62 3.672-1.62 1.08 0 2.16.648 1.296 3.024L13.5 17.712c-.216.216-.54.864-.54 1.296 0 .216.108.324.324.324.756 0 2.052-2.052 2.376-2.052.108 0 .324.108.324.324 0 .648-2.808 3.672-5.292 3.672-.864 0-1.512-.432-1.512-1.296 0-1.188.864-3.132.972-3.564l1.728-4.212zm1.296-4.752c0-1.08.972-1.944 1.944-1.944s1.62.648 1.62 1.62c0 1.08-.972 1.944-2.052 1.944-.864 0-1.512-.648-1.512-1.62z"/>
		<path fill="#bc2a4d" d="M25.78 7.882c.712 1.556 1.138 3.27 1.21 5.078h-1.002c-.062-1.47-.38-2.874-.906-4.17.266-.273.5-.578.697-.908zm-6.662-6.66C17.408.436 15.505 0 13.5 0 6.044 0 0 6.044 0 13.5S6.044 27 13.5 27c.735 0 1.457-.06 2.16-.172v-1.014c-.702.122-1.423.186-2.16.186C6.596 26 1 20.404 1 13.5S6.596 1 13.5 1c1.666 0 3.256.326 4.71.918.273-.266.578-.5.908-.697z"/>
	</svg>
	<svg width="27" height="27" x="296">
		<path fill="#bc2a4d" d="M19.98 22.68V21.6h4.32v1.08h-4.32zm0 2.16v-1.08h4.32v1.08h-4.32zm.54-8.1h3.24v3.24h-3.24v-3.24zm5.4 3.24v-3.243c0-1.19-.97-2.157-2.166-2.157h-3.227c-1.21 0-2.166.966-2.166 2.157v3.243h-1.08v6.48H27v-6.48h-1.08zm-14.04-7.776c.216-.432 0-.648-.216-.648-.864 0-2.052 2.052-2.484 2.052-.216 0-.324-.216-.324-.324 0-.432 1.08-1.404 1.404-1.728.972-.864 2.268-1.62 3.672-1.62 1.08 0 2.16.648 1.296 3.024L13.5 17.712c-.216.216-.54.864-.54 1.296 0 .216.108.324.324.324.756 0 2.052-2.052 2.376-2.052.108 0 .324.108.324.324 0 .648-2.808 3.672-5.292 3.672-.864 0-1.512-.432-1.512-1.296 0-1.188.864-3.132.972-3.564l1.728-4.212zm1.296-4.752c0-1.08.972-1.944 1.944-1.944s1.62.648 1.62 1.62c0 1.08-.972 1.944-2.052 1.944-.864 0-1.512-.648-1.512-1.62z"/>
		<path fill="#bc2a4d" d="M26.99 12.96C26.705 5.755 20.774 0 13.5 0 6.044 0 0 6.044 0 13.5S6.044 27 13.5 27c.735 0 1.457-.06 2.16-.172v-1.014c-.702.122-1.423.186-2.16.186C6.596 26 1 20.404 1 13.5S6.596 1 13.5 1c6.723 0 12.206 5.307 12.49 11.96h1z"/>
	</svg>
	<svg width="27" height="27" x="333">
		<path fill="#bc2a4d" d="M21.6 6.75l-2.222 1.168.424-2.474-1.798-1.752 2.484-.36 1.11-2.252 1.112 2.25 2.484.362-1.798 1.752.424 2.474zm-9.72 5.454c.216-.432 0-.648-.216-.648-.864 0-2.052 2.052-2.484 2.052-.216 0-.324-.216-.324-.324 0-.432 1.08-1.404 1.404-1.728.972-.864 2.268-1.62 3.672-1.62 1.08 0 2.16.648 1.296 3.024L13.5 17.712c-.216.216-.54.864-.54 1.296 0 .216.108.324.324.324.756 0 2.052-2.052 2.376-2.052.108 0 .324.108.324.324 0 .648-2.808 3.672-5.292 3.672-.864 0-1.512-.432-1.512-1.296 0-1.188.864-3.132.972-3.564l1.728-4.212zm1.296-4.752c0-1.08.972-1.944 1.944-1.944s1.62.648 1.62 1.62c0 1.08-.972 1.944-2.052 1.944-.864 0-1.512-.648-1.512-1.62z"/>
		<path fill="#bc2a4d" d="M18.987 1.162C17.31.415 15.454 0 13.5 0 6.044 0 0 6.044 0 13.5S6.044 27 13.5 27 27 20.956 27 13.5c0-1.954-.415-3.81-1.162-5.487-.25.29-.53.553-.842.78.595 1.45.923 3.04.923 4.707 0 6.86-5.57 12.42-12.42 12.42S1.08 20.36 1.08 13.5 6.64 1.08 13.5 1.08c1.665 0 3.255.328 4.707.923.226-.31.488-.593.78-.842z"/>
	</svg>
	<svg width="27" height="27" x="370">
		<path fill="#bc2a4d" d="M11.88 12.204c.216-.432 0-.648-.216-.648-.864 0-2.052 2.052-2.484 2.052-.216 0-.324-.216-.324-.324 0-.432 1.08-1.404 1.404-1.728.972-.864 2.268-1.62 3.672-1.62 1.08 0 2.16.648 1.296 3.024L13.5 17.712c-.216.216-.54.864-.54 1.296 0 .216.108.324.324.324.756 0 2.052-2.052 2.376-2.052.108 0 .324.108.324.324 0 .648-2.808 3.672-5.292 3.672-.864 0-1.512-.432-1.512-1.296 0-1.188.864-3.132.972-3.564l1.728-4.212zm1.296-4.752c0-1.08.972-1.944 1.944-1.944s1.62.648 1.62 1.62c0 1.08-.972 1.944-2.052 1.944-.864 0-1.512-.648-1.512-1.62z"/>
		<path fill="#bc2a4d" d="M13.5 25.92c6.86 0 12.42-5.56 12.42-12.42S20.36 1.08 13.5 1.08 1.08 6.64 1.08 13.5 6.64 25.92 13.5 25.92zm0 1.08C6.044 27 0 20.956 0 13.5S6.044 0 13.5 0 27 6.044 27 13.5 20.956 27 13.5 27z"/>
	</svg>
	<svg width="27" height="27" x="407">
		<path fill="#666" d="M19.98 22.68V21.6h4.32v1.08h-4.32zm0 2.16v-1.08h4.32v1.08h-4.32zm.54-8.1h3.24v3.24h-3.24v-3.24zm5.4 3.24v-3.243c0-1.19-.97-2.157-2.166-2.157h-3.227c-1.21 0-2.166.966-2.166 2.157v3.243h-1.08v6.48H27v-6.48h-1.08z"/>
		<path fill="#BC2A4D" d="M22.14 6.75l-2.222 1.168.424-2.474-1.798-1.752 2.484-.36 1.11-2.252 1.112 2.25 2.484.362-1.798 1.752.424 2.474z"/>
		<path fill="#666" d="M11.88 12.204c.216-.432 0-.648-.216-.648-.864 0-2.052 2.052-2.484 2.052-.216 0-.324-.216-.324-.324 0-.432 1.08-1.404 1.404-1.728.972-.864 2.268-1.62 3.672-1.62 1.08 0 2.16.648 1.296 3.024L13.5 17.712c-.216.216-.54.864-.54 1.296 0 .216.108.324.324.324.756 0 2.052-2.052 2.376-2.052.108 0 .324.108.324.324 0 .648-2.808 3.672-5.292 3.672-.864 0-1.512-.432-1.512-1.296 0-1.188.864-3.132.972-3.564l1.728-4.212zm1.296-4.752c0-1.08.972-1.944 1.944-1.944s1.62.648 1.62 1.62c0 1.08-.972 1.944-2.052 1.944-.864 0-1.512-.648-1.512-1.62z"/>
		<path fill="#196DB5" d="M25.78 7.882c.712 1.556 1.138 3.27 1.21 5.078h-1.002c-.062-1.47-.38-2.874-.906-4.17.266-.273.5-.578.697-.908zm-6.662-6.66C17.408.436 15.505 0 13.5 0 6.044 0 0 6.044 0 13.5S6.044 27 13.5 27c.735 0 1.457-.06 2.16-.172v-1.014c-.702.122-1.423.186-2.16.186C6.596 26 1 20.404 1 13.5S6.596 1 13.5 1c1.666 0 3.256.326 4.71.918.273-.266.578-.5.908-.697z"/>
	</svg>
	<svg width="27" height="27" x="444">
		<path fill="#666" d="M19.98 22.68V21.6h4.32v1.08h-4.32zm0 2.16v-1.08h4.32v1.08h-4.32zm.54-8.1h3.24v3.24h-3.24v-3.24zm5.4 3.24v-3.243c0-1.19-.97-2.157-2.166-2.157h-3.227c-1.21 0-2.166.966-2.166 2.157v3.243h-1.08v6.48H27v-6.48h-1.08zm-14.04-7.776c.216-.432 0-.648-.216-.648-.864 0-2.052 2.052-2.484 2.052-.216 0-.324-.216-.324-.324 0-.432 1.08-1.404 1.404-1.728.972-.864 2.268-1.62 3.672-1.62 1.08 0 2.16.648 1.296 3.024L13.5 17.712c-.216.216-.54.864-.54 1.296 0 .216.108.324.324.324.756 0 2.052-2.052 2.376-2.052.108 0 .324.108.324.324 0 .648-2.808 3.672-5.292 3.672-.864 0-1.512-.432-1.512-1.296 0-1.188.864-3.132.972-3.564l1.728-4.212zm1.296-4.752c0-1.08.972-1.944 1.944-1.944s1.62.648 1.62 1.62c0 1.08-.972 1.944-2.052 1.944-.864 0-1.512-.648-1.512-1.62z"/>
		<path fill="#196DB5" d="M26.99 12.96C26.705 5.755 20.774 0 13.5 0 6.044 0 0 6.044 0 13.5S6.044 27 13.5 27c.735 0 1.457-.06 2.16-.172v-1.014c-.702.122-1.423.186-2.16.186C6.596 26 1 20.404 1 13.5S6.596 1 13.5 1c6.723 0 12.206 5.307 12.49 11.96h1z"/>
	</svg>
	<svg width="27" height="27" x="481">
		<path fill="#BC2A4D" d="M21.6 6.75l-2.222 1.168.424-2.474-1.798-1.752 2.484-.36 1.11-2.252 1.112 2.25 2.484.362-1.798 1.752.424 2.474z"/>
		<path fill="#666" d="M11.88 12.204c.216-.432 0-.648-.216-.648-.864 0-2.052 2.052-2.484 2.052-.216 0-.324-.216-.324-.324 0-.432 1.08-1.404 1.404-1.728.972-.864 2.268-1.62 3.672-1.62 1.08 0 2.16.648 1.296 3.024L13.5 17.712c-.216.216-.54.864-.54 1.296 0 .216.108.324.324.324.756 0 2.052-2.052 2.376-2.052.108 0 .324.108.324.324 0 .648-2.808 3.672-5.292 3.672-.864 0-1.512-.432-1.512-1.296 0-1.188.864-3.132.972-3.564l1.728-4.212zm1.296-4.752c0-1.08.972-1.944 1.944-1.944s1.62.648 1.62 1.62c0 1.08-.972 1.944-2.052 1.944-.864 0-1.512-.648-1.512-1.62z"/>
		<path fill="#196DB5" d="M18.987 1.162C17.31.415 15.454 0 13.5 0 6.044 0 0 6.044 0 13.5S6.044 27 13.5 27 27 20.956 27 13.5c0-1.954-.415-3.81-1.162-5.487-.25.29-.53.553-.842.78.595 1.45.923 3.04.923 4.707 0 6.86-5.57 12.42-12.42 12.42S1.08 20.36 1.08 13.5 6.64 1.08 13.5 1.08c1.665 0 3.255.328 4.707.923.226-.31.488-.593.78-.842z"/>
	</svg>
	<svg width="27" height="27" x="518">
		<path fill="#666" d="M11.88 12.204c.216-.432 0-.648-.216-.648-.864 0-2.052 2.052-2.484 2.052-.216 0-.324-.216-.324-.324 0-.432 1.08-1.404 1.404-1.728.972-.864 2.268-1.62 3.672-1.62 1.08 0 2.16.648 1.296 3.024L13.5 17.712c-.216.216-.54.864-.54 1.296 0 .216.108.324.324.324.756 0 2.052-2.052 2.376-2.052.108 0 .324.108.324.324 0 .648-2.808 3.672-5.292 3.672-.864 0-1.512-.432-1.512-1.296 0-1.188.864-3.132.972-3.564l1.728-4.212zm1.296-4.752c0-1.08.972-1.944 1.944-1.944s1.62.648 1.62 1.62c0 1.08-.972 1.944-2.052 1.944-.864 0-1.512-.648-1.512-1.62z"/>
		<path fill="#196DB5" d="M13.5 25.92c6.86 0 12.42-5.56 12.42-12.42S20.36 1.08 13.5 1.08 1.08 6.64 1.08 13.5 6.64 25.92 13.5 25.92zm0 1.08C6.044 27 0 20.956 0 13.5S6.044 0 13.5 0 27 6.044 27 13.5 20.956 27 13.5 27z"/>
	</svg>
	<svg width="27" height="27" x="555">
		<path fill="#BC2A4D" d="M22.14 6.75l-2.222 1.168.424-2.474-1.798-1.752 2.484-.36 1.11-2.252 1.112 2.25 2.484.362-1.798 1.752.424 2.474z"/>
		<path fill="#666" d="M12.565 6.48c.807 1.995.387 3.082-.516 3.945-.99.953-2.52 1.667-3.6 3.067-1.44 1.86-1.68 5.955 3.5 7.027-2.18-1.06-2.65-4.13-.29-6.05-.62 1.86.51 3.05 1.92 2.62 1.37-.43 2.27.47 2.24 1.52-.02.71-.33 1.32-1.12 1.66 3.37-.55 4.73-3.13 4.73-5.1 0-2.59-2.51-2.95-1.25-5.12-1.5.12-2.02 1.02-1.87 2.51.09.98-1.02 1.65-1.84 1.2-.66-.37-.65-1.086-.07-1.62 1.24-1.13 1.72-3.738-1.86-5.688z"/>
		<path fill="#196DB5" d="M18.987 1.162C17.31.415 15.454 0 13.5 0 6.044 0 0 6.044 0 13.5S6.044 27 13.5 27 27 20.956 27 13.5c0-1.954-.415-3.81-1.162-5.487-.25.29-.53.553-.842.78.595 1.45.923 3.04.923 4.707 0 6.86-5.57 12.42-12.42 12.42S1.08 20.36 1.08 13.5 6.64 1.08 13.5 1.08c1.665 0 3.255.328 4.707.923.226-.31.488-.593.78-.842z"/>
	</svg>
	<svg width="27" height="27" x="592">
		<path fill="#bc2a4d" d="M22.14 6.75l-2.222 1.168.424-2.474-1.798-1.752 2.484-.36 1.11-2.252 1.112 2.25 2.484.362-1.798 1.752.424 2.474zm-9.575-.27c.807 1.995.387 3.082-.516 3.945-.99.953-2.52 1.667-3.6 3.067-1.44 1.86-1.68 5.955 3.5 7.027-2.18-1.06-2.65-4.13-.29-6.05-.62 1.86.51 3.05 1.92 2.62 1.37-.43 2.27.47 2.24 1.52-.02.71-.33 1.32-1.12 1.66 3.37-.55 4.73-3.13 4.73-5.1 0-2.59-2.51-2.95-1.25-5.12-1.5.12-2.02 1.02-1.87 2.51.09.98-1.02 1.65-1.84 1.2-.66-.37-.65-1.086-.07-1.62 1.24-1.13 1.72-3.738-1.86-5.688z"/>
		<path fill="#bc2a4d" d="M18.987 1.162C17.31.415 15.454 0 13.5 0 6.044 0 0 6.044 0 13.5S6.044 27 13.5 27 27 20.956 27 13.5c0-1.954-.415-3.81-1.162-5.487-.25.29-.53.553-.842.78.595 1.45.923 3.04.923 4.707 0 6.86-5.57 12.42-12.42 12.42S1.08 20.36 1.08 13.5 6.64 1.08 13.5 1.08c1.665 0 3.255.328 4.707.923.226-.31.488-.593.78-.842z"/>
	</svg>
	<svg width="27" height="27" x="629">
		<path fill="#666" d="M12.565 6.48c.807 1.995.387 3.082-.516 3.945-.99.953-2.52 1.667-3.6 3.067-1.44 1.86-1.68 5.955 3.5 7.027-2.18-1.06-2.65-4.13-.29-6.05-.62 1.86.51 3.05 1.92 2.62 1.37-.43 2.27.47 2.24 1.52-.02.71-.33 1.32-1.12 1.66 3.37-.55 4.73-3.13 4.73-5.1 0-2.59-2.51-2.95-1.25-5.12-1.5.12-2.02 1.02-1.87 2.51.09.98-1.02 1.65-1.84 1.2-.66-.37-.65-1.086-.07-1.62 1.24-1.13 1.72-3.738-1.86-5.688z"/>
		<path fill="#196DB5" d="M13.5 25.92c6.86 0 12.42-5.56 12.42-12.42S20.36 1.08 13.5 1.08 1.08 6.64 1.08 13.5 6.64 25.92 13.5 25.92zm0 1.08C6.044 27 0 20.956 0 13.5S6.044 0 13.5 0 27 6.044 27 13.5 20.956 27 13.5 27z"/>
	</svg>
	<svg width="27" height="27" y="37">
		<path fill="#bc2a4d" d="M12.565 6.48c.807 1.995.387 3.082-.516 3.945-.99.953-2.52 1.667-3.6 3.067-1.44 1.86-1.68 5.955 3.5 7.027-2.18-1.06-2.65-4.13-.29-6.05-.62 1.86.51 3.05 1.92 2.62 1.37-.43 2.27.47 2.24 1.52-.02.71-.33 1.32-1.12 1.66 3.37-.55 4.73-3.13 4.73-5.1 0-2.59-2.51-2.95-1.25-5.12-1.5.12-2.02 1.02-1.87 2.51.09.98-1.02 1.65-1.84 1.2-.66-.37-.65-1.086-.07-1.62 1.24-1.13 1.72-3.738-1.86-5.688z"/>
		<path fill="#bc2a4d" d="M13.5 25.92c6.86 0 12.42-5.56 12.42-12.42S20.36 1.08 13.5 1.08 1.08 6.64 1.08 13.5 6.64 25.92 13.5 25.92zm0 1.08C6.044 27 0 20.956 0 13.5S6.044 0 13.5 0 27 6.044 27 13.5 20.956 27 13.5 27z"/>
	</svg>
	<svg width="27" height="27" x="37" y="37">
		<path fill="#666" d="M11.34 15.66v-1.08h4.32v1.08h-4.32zm0 2.16v-1.08h4.32v1.08h-4.32zm.54-8.1h3.24v3.24h-3.24V9.72zm5.4 3.24V9.717c0-1.19-.97-2.157-2.166-2.157h-3.227c-1.21 0-2.166.966-2.166 2.157v3.243H8.64v6.48h9.72v-6.48h-1.08z"/>
		<path fill="#BC2A4D" d="M22.14 6.75l-2.222 1.168.424-2.474-1.798-1.752 2.484-.36 1.11-2.252 1.112 2.25 2.484.362-1.798 1.752.424 2.474z"/>
		<path fill="#196DB5" d="M18.987 1.162C17.31.415 15.454 0 13.5 0 6.044 0 0 6.044 0 13.5S6.044 27 13.5 27 27 20.956 27 13.5c0-1.954-.415-3.81-1.162-5.487-.25.29-.53.553-.842.78.595 1.45.923 3.04.923 4.707 0 6.86-5.57 12.42-12.42 12.42S1.08 20.36 1.08 13.5 6.64 1.08 13.5 1.08c1.665 0 3.255.328 4.707.923.226-.31.488-.593.78-.842z"/>
	</svg>
	<svg width="27" height="27" x="74" y="37">
		<path fill="#bc2a4d" d="M11.34 15.66v-1.08h4.32v1.08h-4.32zm0 2.16v-1.08h4.32v1.08h-4.32zm.54-8.1h3.24v3.24h-3.24V9.72zm5.4 3.24V9.717c0-1.19-.97-2.157-2.166-2.157h-3.227c-1.21 0-2.166.966-2.166 2.157v3.243H8.64v6.48h9.72v-6.48h-1.08zm4.86-6.21l-2.222 1.168.424-2.474-1.798-1.752 2.484-.36 1.11-2.252 1.112 2.25 2.484.362-1.798 1.752.424 2.474z"/>
		<path fill="#bc2a4d" d="M18.987 1.162C17.31.415 15.454 0 13.5 0 6.044 0 0 6.044 0 13.5S6.044 27 13.5 27 27 20.956 27 13.5c0-1.954-.415-3.81-1.162-5.487-.25.29-.53.553-.842.78.595 1.45.923 3.04.923 4.707 0 6.86-5.57 12.42-12.42 12.42S1.08 20.36 1.08 13.5 6.64 1.08 13.5 1.08c1.665 0 3.255.328 4.707.923.226-.31.488-.593.78-.842z"/>
	</svg>
	<svg width="27" height="27" x="111" y="37">
		<path fill="#666" d="M11.34 15.66v-1.08h4.32v1.08h-4.32zm0 2.16v-1.08h4.32v1.08h-4.32zm.54-8.1h3.24v3.24h-3.24V9.72zm5.4 3.24V9.717c0-1.19-.97-2.157-2.166-2.157h-3.227c-1.21 0-2.166.966-2.166 2.157v3.243H8.64v6.48h9.72v-6.48h-1.08z"/>
		<path fill="#196DB5" d="M13.5 25.92c6.86 0 12.42-5.56 12.42-12.42S20.36 1.08 13.5 1.08 1.08 6.64 1.08 13.5 6.64 25.92 13.5 25.92zm0 1.08C6.044 27 0 20.956 0 13.5S6.044 0 13.5 0 27 6.044 27 13.5 20.956 27 13.5 27z"/>
	</svg>
	<svg width="27" height="27" x="148" y="37">
		<path fill="#bc2a4d" d="M11.34 15.66v-1.08h4.32v1.08h-4.32zm0 2.16v-1.08h4.32v1.08h-4.32zm.54-8.1h3.24v3.24h-3.24V9.72zm5.4 3.24V9.717c0-1.19-.97-2.157-2.166-2.157h-3.227c-1.21 0-2.166.966-2.166 2.157v3.243H8.64v6.48h9.72v-6.48h-1.08z"/>
		<path fill="#bc2a4d" d="M13.5 25.92c6.86 0 12.42-5.56 12.42-12.42S20.36 1.08 13.5 1.08 1.08 6.64 1.08 13.5 6.64 25.92 13.5 25.92zm0 1.08C6.044 27 0 20.956 0 13.5S6.044 0 13.5 0 27 6.044 27 13.5 20.956 27 13.5 27z"/>
	</svg>
	<svg width="27" height="27" x="185" y="37">
		<path fill="#BC2A4D" d="M22.14 6.75l-2.222 1.168.424-2.474-1.798-1.752 2.484-.36 1.11-2.252 1.112 2.25 2.484.362-1.798 1.752.424 2.474z"/>
		<path fill="#666" d="M8.1 7.56h8.1V6.48H7.56v1.08h.54zm0 4.32h11.34V10.8H7.56v1.08h.54zm0 2.16h11.34v-1.08H7.56v1.08h.54zm0 2.16h11.34v-1.08H7.56v1.08h.54zm0 2.16h11.34v-1.08H7.56v1.08h.54zm0 2.16h5.94v-1.08H7.56v1.08h.54z"/>
		<path fill="#196DB5" d="M18.987 1.162C17.31.415 15.454 0 13.5 0 6.044 0 0 6.044 0 13.5S6.044 27 13.5 27 27 20.956 27 13.5c0-1.954-.415-3.81-1.162-5.487-.25.29-.53.553-.842.78.595 1.45.923 3.04.923 4.707 0 6.86-5.57 12.42-12.42 12.42S1.08 20.36 1.08 13.5 6.64 1.08 13.5 1.08c1.665 0 3.255.328 4.707.923.226-.31.488-.593.78-.842z"/>
	</svg>
	<svg width="27" height="27" x="222" y="37">
		<path fill="#bc2a4d" d="M22.14 6.75l-2.222 1.168.424-2.474-1.798-1.752 2.484-.36 1.11-2.252 1.112 2.25 2.484.362-1.798 1.752.424 2.474zM8.1 7.56h8.1V6.48H7.56v1.08h.54zm0 4.32h11.34V10.8H7.56v1.08h.54zm0 2.16h11.34v-1.08H7.56v1.08h.54zm0 2.16h11.34v-1.08H7.56v1.08h.54zm0 2.16h11.34v-1.08H7.56v1.08h.54zm0 2.16h5.94v-1.08H7.56v1.08h.54z"/>
		<path fill="#bc2a4d" d="M18.987 1.162C17.31.415 15.454 0 13.5 0 6.044 0 0 6.044 0 13.5S6.044 27 13.5 27 27 20.956 27 13.5c0-1.954-.415-3.81-1.162-5.487-.25.29-.53.553-.842.78.595 1.45.923 3.04.923 4.707 0 6.86-5.57 12.42-12.42 12.42S1.08 20.36 1.08 13.5 6.64 1.08 13.5 1.08c1.665 0 3.255.328 4.707.923.226-.31.488-.593.78-.842z"/>
	</svg>
	<svg width="27" height="27" x="259" y="37">
		<path fill="#666" d="M13.5 19.44H7.56v1.08h6.48v-1.08h-.54zm5.4-2.16H7.56v1.08h11.88v-1.08h-.54zm0-2.16H7.56v1.08h11.88v-1.08h-.54zm.09-2.16h-2.25v1.08h2.7v-1.08h-.45zm0-2.16h-2.25v1.08h2.7V10.8h-.45z"/>
		<path fill="#196DB5" d="M7.98 14.035l2.795-2.795 2.795 2.795h1.228l.913-.913-3.4-3.41 2.82-2.817V6.48H7.56v7.555h.42z"/>
		<path fill="#196DB5" d="M13.5 25.92c6.86 0 12.42-5.56 12.42-12.42S20.36 1.08 13.5 1.08 1.08 6.64 1.08 13.5 6.64 25.92 13.5 25.92zm0 1.08C6.044 27 0 20.956 0 13.5S6.044 0 13.5 0 27 6.044 27 13.5 20.956 27 13.5 27z"/>
	</svg>
	<svg width="27" height="27" x="296" y="37">
		<path fill="#666" d="M8.1 7.56h8.1V6.48H7.56v1.08h.54zm0 4.32h11.34V10.8H7.56v1.08h.54zm0 2.16h11.34v-1.08H7.56v1.08h.54zm0 2.16h11.34v-1.08H7.56v1.08h.54zm0 2.16h11.34v-1.08H7.56v1.08h.54zm0 2.16h5.94v-1.08H7.56v1.08h.54z"/>
		<path fill="#196DB5" d="M13.5 25.92c6.86 0 12.42-5.56 12.42-12.42S20.36 1.08 13.5 1.08 1.08 6.64 1.08 13.5 6.64 25.92 13.5 25.92zm0 1.08C6.044 27 0 20.956 0 13.5S6.044 0 13.5 0 27 6.044 27 13.5 20.956 27 13.5 27z"/>
	</svg>
	<svg width="27" height="27" x="333" y="37">
		<path fill="#666" d="M19.98 22.68V21.6h4.32v1.08h-4.32zm0 2.16v-1.08h4.32v1.08h-4.32zm.54-8.1h3.24v3.24h-3.24v-3.24zm5.4 3.24v-3.243c0-1.19-.97-2.157-2.166-2.157h-3.227c-1.21 0-2.166.966-2.166 2.157v3.243h-1.08v6.48H27v-6.48h-1.08z"/>
		<path fill="#BC2A4D" d="M22.14 6.75l-2.222 1.168.424-2.474-1.798-1.752 2.484-.36 1.11-2.252 1.112 2.25 2.484.362-1.798 1.752.424 2.474z"/>
		<path fill="#666" d="M12.96 24.3c1.193 0 2.16-.967 2.16-2.16s-.967-2.16-2.16-2.16-2.16.967-2.16 2.16.967 2.16 2.16 2.16zm0-5.4s-2.16-4.32-2.16-6.48 2.16-2.16 2.16-2.16 2.16 0 2.16 2.16-2.16 6.48-2.16 6.48zm1.523-13.5h.53V4.32H9.72V5.4h4.763zM10.35 8.64h6.93V7.56H9.72v1.08h.63z"/>
		<path fill="#196DB5" d="M15.66 26.394c-.77.393-1.682.606-2.7.606-3.24 0-5.4-2.16-5.4-5.4 0-.495 0-.876.052-1.197.002 0 .003.002.005.003l.483-.966-.764-.764c-.066.066-.126.13-.182.193C5.5 17.72 2.7 15.04 2.7 10.26 2.7 4.32 7.02 0 12.96 0c2.14 0 4.07.56 5.665 1.557-.295.23-.563.49-.798.78C16.444 1.53 14.79 1.08 12.96 1.08c-5.344 0-9.18 3.836-9.18 9.18 0 2.387.753 4.345 2.05 5.93.884 1.08 1.93 1.872 2.753 2.284l1.34.67-1.06 1.06c-.198.198-.224.325-.224 1.396 0 2.644 1.67 4.32 4.32 4.32 1.07 0 1.99-.278 2.7-.786v1.26zm7.236-13.434c.204-.814.324-1.712.324-2.7 0-.092 0-.184-.003-.275-.343.12-.704.205-1.077.246v.03c0 .97-.124 1.87-.36 2.7h1.116z"/>
	</svg>
	<svg width="27" height="27" x="370" y="37">
		<path fill="#bc2a4d" d="M18.63 22.68V21.6h4.32v1.08h-4.32zm0 2.16v-1.08h4.32v1.08h-4.32zm.54-8.1h3.24v3.24h-3.24v-3.24zm5.4 3.24v-3.243c0-1.19-.97-2.157-2.166-2.157h-3.227c-1.21 0-2.166.966-2.166 2.157v3.243h-1.08v6.48h9.72v-6.48h-1.08zM20.79 6.75l-2.222 1.168.424-2.474-1.798-1.752 2.484-.36 1.11-2.252L21.9 3.33l2.484.362-1.798 1.752.424 2.474zM11.61 24.3c1.193 0 2.16-.967 2.16-2.16s-.967-2.16-2.16-2.16-2.16.967-2.16 2.16.967 2.16 2.16 2.16zm0-5.4s-2.16-4.32-2.16-6.48 2.16-2.16 2.16-2.16 2.16 0 2.16 2.16-2.16 6.48-2.16 6.48zm1.523-13.5h.53V4.32H8.37V5.4h4.763zM9 8.64h6.93V7.56H8.37v1.08H9z"/>
		<path fill="#bc2a4d" d="M14.31 26.394c-.77.393-1.682.606-2.7.606-3.24 0-5.4-2.16-5.4-5.4 0-.495 0-.876.052-1.197.002 0 .003.002.005.003l.483-.966-.764-.764c-.066.066-.126.13-.182.193-1.654-1.15-4.454-3.83-4.454-8.61C1.35 4.32 5.67 0 11.61 0c2.14 0 4.07.56 5.665 1.557-.295.23-.563.49-.798.78C15.094 1.53 13.44 1.08 11.61 1.08c-5.344 0-9.18 3.836-9.18 9.18 0 2.387.753 4.345 2.05 5.93.884 1.08 1.93 1.872 2.753 2.284l1.34.67-1.06 1.06c-.198.198-.224.325-.224 1.396 0 2.644 1.67 4.32 4.32 4.32 1.07 0 1.99-.278 2.7-.786v1.26zm7.236-13.434c.204-.814.324-1.712.324-2.7 0-.092 0-.184-.003-.275-.343.12-.704.205-1.077.246v.03c0 .97-.124 1.87-.36 2.7h1.116z"/>
	</svg>
	<svg width="27" height="27" x="407" y="37">
		<path fill="#666" d="M19.98 22.68V21.6h4.32v1.08h-4.32zm0 2.16v-1.08h4.32v1.08h-4.32zm.54-8.1h3.24v3.24h-3.24v-3.24zm5.4 3.24v-3.243c0-1.19-.97-2.157-2.166-2.157h-3.227c-1.21 0-2.166.966-2.166 2.157v3.243h-1.08v6.48H27v-6.48h-1.08zM12.96 24.3c1.193 0 2.16-.967 2.16-2.16s-.967-2.16-2.16-2.16-2.16.967-2.16 2.16.967 2.16 2.16 2.16zm0-5.4s-2.16-4.32-2.16-6.48 2.16-2.16 2.16-2.16 2.16 0 2.16 2.16-2.16 6.48-2.16 6.48zm1.523-13.5h.53V4.32H9.72V5.4h4.763zM10.35 8.64h6.93V7.56H9.72v1.08h.63z"/>
		<path fill="#196DB5" d="M22.896 12.96c.204-.814.324-1.712.324-2.7C23.22 4.32 18.9 0 12.96 0S2.7 4.32 2.7 10.26c0 4.78 2.8 7.463 4.454 8.61.056-.064.117-.128.182-.194l.764.764-.483.966c-.002 0-.003-.002-.005-.003-.052.32-.052.702-.052 1.197 0 3.24 2.16 5.4 5.4 5.4 1.018 0 1.93-.213 2.7-.606v-1.26c-.708.508-1.624.786-2.7.786-2.644 0-4.32-1.676-4.32-4.32 0-1.07.025-1.198.224-1.396l1.06-1.06-1.34-.67c-.824-.412-1.87-1.204-2.752-2.283-1.298-1.58-2.05-3.54-2.05-5.93 0-5.34 3.835-9.18 9.18-9.18s9.18 3.84 9.18 9.18c0 .97-.125 1.87-.36 2.7h1.115z"/>
	</svg>
	<svg width="27" height="27" x="444" y="37">
		<path fill="#bc2a4d" d="M18.63 22.68V21.6h4.32v1.08h-4.32zm0 2.16v-1.08h4.32v1.08h-4.32zm.54-8.1h3.24v3.24h-3.24v-3.24zm5.4 3.24v-3.243c0-1.19-.97-2.157-2.166-2.157h-3.227c-1.21 0-2.166.966-2.166 2.157v3.243h-1.08v6.48h9.72v-6.48h-1.08zM11.61 24.3c1.193 0 2.16-.967 2.16-2.16s-.967-2.16-2.16-2.16-2.16.967-2.16 2.16.967 2.16 2.16 2.16zm0-5.4s-2.16-4.32-2.16-6.48 2.16-2.16 2.16-2.16 2.16 0 2.16 2.16-2.16 6.48-2.16 6.48zm1.523-13.5h.53V4.32H8.37V5.4h4.763zM9 8.64h6.93V7.56H8.37v1.08H9z"/>
		<path fill="#bc2a4d" d="M21.546 12.96c.204-.814.324-1.712.324-2.7C21.87 4.32 17.55 0 11.61 0S1.35 4.32 1.35 10.26c0 4.78 2.8 7.463 4.454 8.61.056-.064.117-.128.182-.194l.764.764-.483.966c-.002 0-.003-.002-.005-.003-.052.32-.052.702-.052 1.197 0 3.24 2.16 5.4 5.4 5.4 1.018 0 1.93-.213 2.7-.606v-1.26c-.708.508-1.624.786-2.7.786-2.644 0-4.32-1.676-4.32-4.32 0-1.07.025-1.198.224-1.396l1.06-1.06-1.34-.67c-.824-.412-1.87-1.204-2.752-2.283-1.298-1.58-2.05-3.54-2.05-5.93 0-5.34 3.835-9.18 9.18-9.18s9.18 3.84 9.18 9.18c0 .97-.125 1.87-.36 2.7h1.115z"/>
	</svg>
	<svg width="27" height="27" x="481" y="37">
		<path fill="#BC2A4D" d="M22.14 6.75l-2.222 1.168.424-2.474-1.798-1.752 2.484-.36 1.11-2.252 1.112 2.25 2.484.362-1.798 1.752.424 2.474z"/>
		<path fill="#666" d="M12.96 24.3c1.193 0 2.16-.967 2.16-2.16s-.967-2.16-2.16-2.16-2.16.967-2.16 2.16.967 2.16 2.16 2.16zm0-5.4s-2.16-4.32-2.16-6.48 2.16-2.16 2.16-2.16 2.16 0 2.16 2.16-2.16 6.48-2.16 6.48zm1.523-13.5h.53V4.32H9.72V5.4h4.763zM10.35 8.64h6.93V7.56H9.72v1.08h.63z"/>
		<path fill="#196DB5" d="M18.625 1.557C17.03.56 15.1 0 12.96 0 7.02 0 2.7 4.32 2.7 10.26c0 4.78 2.8 7.463 4.454 8.61.056-.064.117-.128.182-.194l.764.764-.483.966c-.002 0-.003-.002-.005-.003-.052.32-.052.702-.052 1.197 0 3.24 2.16 5.4 5.4 5.4s5.4-2.16 5.4-5.4c0-.495 0-.876-.052-1.197-.002 0-.003.002-.005.003l-.483-.966.764-.764c.066.066.126.13.182.193 1.655-1.15 4.454-3.83 4.454-8.61 0-.1 0-.19-.003-.28-.343.12-.704.2-1.077.24v.03c0 2.38-.753 4.34-2.05 5.93-.884 1.08-1.93 1.87-2.753 2.28l-1.34.67 1.06 1.06c.198.2.224.32.224 1.39 0 2.64-1.67 4.32-4.32 4.32s-4.32-1.68-4.32-4.32c0-1.07.03-1.2.23-1.4l1.06-1.06-1.34-.67c-.82-.413-1.87-1.205-2.75-2.284-1.3-1.587-2.05-3.545-2.05-5.93 0-5.346 3.84-9.18 9.18-9.18 1.83 0 3.49.45 4.87 1.255.24-.29.51-.55.8-.78z"/>
	</svg>
	<svg width="27" height="27" x="518" y="37">
		<path fill="#bc2a4d" d="M21.33 6.75l-2.222 1.168.424-2.474-1.798-1.752 2.484-.36 1.11-2.252 1.112 2.25 2.484.362-1.798 1.752.424 2.474zM12.15 24.3c1.193 0 2.16-.967 2.16-2.16s-.967-2.16-2.16-2.16-2.16.967-2.16 2.16.967 2.16 2.16 2.16zm0-5.4s-2.16-4.32-2.16-6.48 2.16-2.16 2.16-2.16 2.16 0 2.16 2.16-2.16 6.48-2.16 6.48zm1.523-13.5h.53V4.32H8.91V5.4h4.763zM9.54 8.64h6.93V7.56H8.91v1.08h.63z"/>
		<path fill="#bc2a4d" d="M17.815 1.557C16.22.56 14.29 0 12.15 0 6.21 0 1.89 4.32 1.89 10.26c0 4.78 2.8 7.463 4.454 8.61.056-.064.117-.128.182-.194l.764.764-.483.966c-.002 0-.003-.002-.005-.003-.052.32-.052.702-.052 1.197 0 3.24 2.16 5.4 5.4 5.4s5.4-2.16 5.4-5.4c0-.495 0-.876-.052-1.197-.002 0-.003.002-.005.003l-.483-.966.764-.764c.066.066.126.13.182.193 1.655-1.15 4.454-3.83 4.454-8.61 0-.1 0-.19-.003-.28-.343.12-.704.2-1.077.24v.03c0 2.38-.753 4.34-2.05 5.93-.884 1.08-1.93 1.87-2.753 2.28l-1.34.67 1.06 1.06c.198.2.224.32.224 1.39 0 2.64-1.67 4.32-4.32 4.32s-4.32-1.68-4.32-4.32c0-1.07.03-1.2.23-1.4l1.06-1.06-1.34-.67c-.82-.413-1.87-1.205-2.75-2.284-1.3-1.587-2.05-3.545-2.05-5.93 0-5.346 3.84-9.18 9.18-9.18 1.83 0 3.49.45 4.87 1.255.24-.29.51-.55.8-.78z"/>
	</svg>
	<svg width="27" height="27" x="555" y="37">
		<path fill="#666" d="M12.96 24.3c1.193 0 2.16-.967 2.16-2.16s-.967-2.16-2.16-2.16-2.16.967-2.16 2.16.967 2.16 2.16 2.16zm0-5.4s-2.16-4.32-2.16-6.48 2.16-2.16 2.16-2.16 2.16 0 2.16 2.16-2.16 6.48-2.16 6.48zm1.523-13.5h.53V4.32H9.72V5.4h4.763zM10.35 8.64h6.93V7.56H9.72v1.08h.63z"/>
		<path fill="#196DB5" d="M12.96 1.08c-5.344 0-9.18 3.836-9.18 9.18 0 2.387.753 4.345 2.05 5.93.884 1.08 1.93 1.872 2.753 2.284l1.34.67-1.06 1.06c-.198.198-.224.325-.224 1.396 0 2.644 1.67 4.32 4.32 4.32s4.32-1.676 4.32-4.32c0-1.07-.03-1.198-.23-1.396l-1.06-1.06 1.34-.67c.82-.412 1.87-1.204 2.75-2.283 1.3-1.58 2.05-3.54 2.05-5.93 0-5.34-3.84-9.18-9.18-9.18zM7.612 20.403c.002 0 .003.002.005.003l.483-.966-.764-.764c-.066.066-.126.13-.182.193C5.5 17.72 2.7 15.04 2.7 10.26 2.7 4.32 7.02 0 12.96 0s10.26 4.32 10.26 10.26c0 4.78-2.8 7.463-4.454 8.61-.056-.064-.117-.128-.182-.194l-.764.764.483.966c.002 0 .003-.002.005-.003.052.32.052.702.052 1.197 0 3.24-2.16 5.4-5.4 5.4s-5.4-2.16-5.4-5.4c0-.495 0-.876.052-1.197z"/>
	</svg>
	<svg width="27" height="27" x="592" y="37">
		<path fill="#bc2a4d" d="M13.5 24.3c1.193 0 2.16-.967 2.16-2.16s-.967-2.16-2.16-2.16-2.16.967-2.16 2.16.967 2.16 2.16 2.16zm0-5.4s-2.16-4.32-2.16-6.48 2.16-2.16 2.16-2.16 2.16 0 2.16 2.16-2.16 6.48-2.16 6.48zm1.523-13.5h.53V4.32H10.26V5.4h4.763zM10.89 8.64h6.93V7.56h-7.56v1.08h.63z"/>
		<path fill="#bc2a4d" d="M13.5 1.08c-5.344 0-9.18 3.836-9.18 9.18 0 2.387.753 4.345 2.05 5.93.884 1.08 1.93 1.872 2.753 2.284l1.34.67-1.06 1.06c-.198.198-.224.325-.224 1.396 0 2.644 1.67 4.32 4.32 4.32s4.32-1.676 4.32-4.32c0-1.07-.03-1.198-.23-1.396l-1.06-1.06 1.34-.67c.82-.412 1.87-1.204 2.75-2.283 1.3-1.58 2.05-3.54 2.05-5.93 0-5.34-3.84-9.18-9.18-9.18zM8.152 20.403c.002 0 .003.002.005.003l.483-.966-.764-.764c-.066.066-.126.13-.182.193-1.654-1.15-4.454-3.83-4.454-8.61C3.24 4.32 7.56 0 13.5 0s10.26 4.32 10.26 10.26c0 4.78-2.8 7.463-4.454 8.61-.056-.064-.117-.128-.182-.194l-.764.764.483.966c.002 0 .003-.002.005-.003.052.32.052.702.052 1.197 0 3.24-2.16 5.4-5.4 5.4s-5.4-2.16-5.4-5.4c0-.495 0-.876.052-1.197z"/>
	</svg>
	<svg width="27" height="27" x="629" y="37">
		<path fill="#bc2a4d" d="M8.1 7.56h8.1V6.48H7.56v1.08h.54zm0 4.32h11.34V10.8H7.56v1.08h.54zm0 2.16h11.34v-1.08H7.56v1.08h.54zm0 2.16h11.34v-1.08H7.56v1.08h.54zm0 2.16h11.34v-1.08H7.56v1.08h.54zm0 2.16h5.94v-1.08H7.56v1.08h.54z"/>
		<path fill="#bc2a4d" d="M13.5 25.92c6.86 0 12.42-5.56 12.42-12.42S20.36 1.08 13.5 1.08 1.08 6.64 1.08 13.5 6.64 25.92 13.5 25.92zm0 1.08C6.044 27 0 20.956 0 13.5S6.044 0 13.5 0 27 6.044 27 13.5 20.956 27 13.5 27z"/>
	</svg>
</svg>
