<svg xmlns="http://www.w3.org/2000/svg" viewBox="0 0 291 96">
  <g fill="#FFF" fill-rule="evenodd">
    <path d="M52.153 83.344h1.93v-.976c0-.742.091-1.343.273-1.805.182-.462.424-.817.726-1.067.303-.25.648-.416 1.034-.5.386-.083.79-.125 1.214-.125.833 0 1.438.053 1.817.16v2.02a3.705 3.705 0 00-.534-.102 5.71 5.71 0 00-.67-.034 1.58 1.58 0 00-.897.25c-.25.166-.374.492-.374.976v1.203h2.202v1.93h-2.202v9.809h-2.589v-9.809h-1.93v-1.93zm13.291 10.013c.575 0 1.075-.12 1.499-.363.423-.242.772-.56 1.044-.954.273-.393.473-.836.602-1.328a5.943 5.943 0 000-3.008c-.129-.5-.33-.943-.602-1.328-.272-.386-.62-.7-1.044-.943-.424-.242-.924-.363-1.499-.363-.575 0-1.075.121-1.498.363a3.207 3.207 0 00-1.045.943 4.017 4.017 0 00-.602 1.328 5.987 5.987 0 000 3.008c.13.492.33.935.602 1.328.273.394.62.712 1.045.954.423.242.923.363 1.498.363zm0 2.044c-.938 0-1.775-.155-2.509-.466a5.35 5.35 0 01-1.862-1.282 5.487 5.487 0 01-1.158-1.953c-.265-.757-.397-1.59-.397-2.498 0-.893.132-1.718.397-2.475a5.487 5.487 0 011.158-1.952 5.35 5.35 0 011.862-1.283c.734-.31 1.57-.466 2.51-.466.938 0 1.774.156 2.508.466a5.35 5.35 0 011.862 1.283 5.487 5.487 0 011.158 1.952c.265.757.397 1.582.397 2.475 0 .909-.132 1.741-.397 2.498a5.487 5.487 0 01-1.158 1.953 5.35 5.35 0 01-1.862 1.282c-.734.31-1.57.466-2.509.466zm7.682-12.057h2.43v2.27h.045a2.62 2.62 0 01.443-.93c.22-.303.484-.579.795-.829.31-.25.654-.45 1.033-.601a3.093 3.093 0 011.158-.228c.303 0 .51.008.624.023l.352.046v2.497c-.181-.03-.367-.057-.556-.08a4.667 4.667 0 00-.556-.033c-.44 0-.852.087-1.238.26a2.842 2.842 0 00-1.01.773c-.288.34-.515.76-.681 1.26-.167.5-.25 1.075-.25 1.725v5.586h-2.589V83.344zm17.9 11.739h-2.543v-1.635h-.045c-.318.59-.791 1.064-1.42 1.42-.627.355-1.267.533-1.918.533-1.544 0-2.66-.382-3.349-1.147-.689-.764-1.033-1.918-1.033-3.462v-7.448h2.588v7.198c0 1.03.197 1.756.59 2.18.394.423.947.635 1.658.635.545 0 1-.083 1.363-.25a2.41 2.41 0 00.885-.67c.227-.28.39-.616.488-1.01.099-.393.148-.817.148-1.271v-6.812h2.588v11.739zm2.324-11.739h2.452v1.635h.069c.196-.287.408-.552.635-.795.227-.242.48-.446.76-.613.28-.166.603-.299.966-.397.363-.098.78-.148 1.249-.148.711 0 1.373.16 1.986.477.613.318 1.049.81 1.306 1.476a5.225 5.225 0 011.521-1.43c.575-.348 1.294-.523 2.157-.523 1.241 0 2.206.303 2.895.909.689.605 1.033 1.62 1.033 3.042v8.106h-2.588v-6.857c0-.47-.015-.897-.046-1.283a2.62 2.62 0 00-.26-.999 1.485 1.485 0 00-.648-.647c-.287-.151-.68-.227-1.18-.227-.878 0-1.514.272-1.908.817-.393.545-.59 1.317-.59 2.316v6.88h-2.588v-7.538c0-.818-.148-1.434-.443-1.85-.295-.417-.837-.625-1.624-.625a2.405 2.405 0 00-1.782.795 2.955 2.955 0 00-.568.953c-.143.379-.215.81-.215 1.294v6.971H93.35V83.344zm51.375 7.572c.075.756.363 1.286.862 1.589.5.303 1.098.454 1.794.454.242 0 .519-.019.829-.057.31-.038.602-.11.874-.215.272-.106.496-.262.67-.466.174-.204.253-.473.238-.806a1.143 1.143 0 00-.363-.817 2.517 2.517 0 00-.874-.511 8.47 8.47 0 00-1.215-.33 57.38 57.38 0 01-1.385-.295 13 13 0 01-1.396-.386 4.506 4.506 0 01-1.204-.613 2.833 2.833 0 01-.851-.987c-.212-.401-.318-.897-.318-1.487 0-.636.155-1.17.465-1.601.31-.432.704-.78 1.181-1.045a5.141 5.141 0 011.59-.556 9.336 9.336 0 011.668-.159c.606 0 1.185.064 1.737.193a4.72 4.72 0 011.499.625c.446.287.817.662 1.112 1.123.296.462.48 1.018.557 1.67h-2.702c-.121-.621-.405-1.038-.852-1.25-.446-.211-.957-.317-1.532-.317-.182 0-.398.015-.647.045-.25.03-.485.087-.704.17a1.48 1.48 0 00-.557.364c-.151.159-.227.367-.227.624 0 .318.11.575.33.772.219.197.507.36.862.488.356.129.761.239 1.215.33.454.09.923.189 1.408.295.47.105.93.234 1.385.386.454.15.859.355 1.215.613.355.257.643.582.862.976.22.393.33.878.33 1.453 0 .696-.16 1.287-.477 1.771a3.77 3.77 0 01-1.238 1.18 5.629 5.629 0 01-1.691.66 8.559 8.559 0 01-1.84.204 8.004 8.004 0 01-2.054-.25 4.79 4.79 0 01-1.635-.76 3.675 3.675 0 01-1.09-1.272c-.265-.507-.405-1.11-.42-1.805h2.589zm15.23 4.087c-.939 0-1.775-.156-2.51-.466a5.35 5.35 0 01-1.861-1.283 5.487 5.487 0 01-1.158-1.952c-.265-.757-.397-1.59-.397-2.498 0-.893.132-1.718.397-2.475a5.487 5.487 0 011.158-1.953 5.35 5.35 0 011.862-1.282c.734-.31 1.57-.466 2.509-.466.938 0 1.774.155 2.509.466a5.35 5.35 0 011.861 1.282 5.487 5.487 0 011.158 1.953c.265.757.398 1.582.398 2.475 0 .908-.133 1.74-.398 2.498a5.487 5.487 0 01-1.158 1.952 5.35 5.35 0 01-1.861 1.283c-.735.31-1.57.466-2.51.466zm0-2.044c.575 0 1.074-.121 1.498-.363.424-.242.772-.56 1.045-.954.272-.393.473-.836.601-1.328a5.943 5.943 0 000-3.009c-.128-.5-.329-.942-.601-1.328-.273-.386-.62-.7-1.045-.942-.424-.242-.923-.363-1.498-.363-.576 0-1.075.12-1.499.363a3.207 3.207 0 00-1.044.942 4.017 4.017 0 00-.602 1.328 5.987 5.987 0 000 3.009c.129.492.33.935.602 1.328.272.394.62.712 1.044.954.424.242.923.363 1.499.363zm6.942-10.013h1.93v-.976c0-.742.091-1.344.273-1.805.181-.462.424-.818.726-1.068.303-.25.647-.416 1.033-.5.386-.082.791-.124 1.215-.124.833 0 1.438.053 1.817.159v2.02a3.705 3.705 0 00-.534-.101 5.71 5.71 0 00-.67-.034 1.58 1.58 0 00-.897.25c-.25.166-.374.491-.374.976v1.203h2.202v1.93h-2.202v9.809h-2.589v-9.809h-1.93v-1.93zm7.147 0h1.953v-3.52h2.588v3.52h2.34v1.93h-2.34v6.267c0 .272.012.507.035.704.022.196.075.363.158.499a.76.76 0 00.375.307c.167.068.394.102.681.102.182 0 .364-.004.545-.012.182-.007.363-.034.545-.08v1.999l-.84.09c-.272.031-.552.046-.84.046-.681 0-1.23-.064-1.646-.193-.416-.128-.742-.318-.977-.567a1.959 1.959 0 01-.476-.943 7.09 7.09 0 01-.148-1.294v-6.925h-1.953v-1.93zm7.692 0h2.748l2.293 8.764h.045l2.203-8.764h2.61l2.112 8.764h.046l2.384-8.764h2.634l-3.678 11.739h-2.657l-2.18-8.72h-.045l-2.157 8.72h-2.725l-3.633-11.739zm28.581 9.128c0 .317.042.544.125.68.083.137.246.205.488.205h.273c.106 0 .227-.015.363-.045v1.793a7.584 7.584 0 01-.795.204 4.698 4.698 0 01-.84.092c-.53 0-.969-.106-1.317-.318-.348-.212-.575-.583-.68-1.113-.515.5-1.147.863-1.897 1.09-.749.227-1.472.34-2.168.34-.53 0-1.037-.071-1.521-.215a3.992 3.992 0 01-1.283-.636 3.047 3.047 0 01-.886-1.067c-.22-.431-.329-.935-.329-1.51 0-.727.133-1.317.397-1.771.265-.454.613-.81 1.045-1.067a4.717 4.717 0 011.453-.556c.537-.114 1.079-.201 1.623-.262.47-.09.916-.155 1.34-.193a6.286 6.286 0 001.124-.193c.325-.09.583-.23.772-.42.19-.189.284-.473.284-.851 0-.333-.08-.605-.239-.817a1.6 1.6 0 00-.59-.489 2.55 2.55 0 00-.783-.227 6.278 6.278 0 00-.818-.056c-.726 0-1.324.151-1.793.454-.47.302-.735.772-.795 1.407h-2.589c.046-.756.228-1.385.545-1.884.318-.5.723-.9 1.215-1.203a4.97 4.97 0 011.669-.636 9.936 9.936 0 011.907-.182c.575 0 1.143.06 1.703.182.56.12 1.064.318 1.51.59a3.27 3.27 0 011.079 1.056c.272.431.408.957.408 1.578v6.04zm-2.588-3.27c-.394.257-.878.412-1.453.465-.576.053-1.15.133-1.726.239-.272.045-.537.11-.795.193a2.393 2.393 0 00-.68.34 1.495 1.495 0 00-.466.568 1.94 1.94 0 00-.17.852c0 .287.083.53.25.726.166.197.366.352.6.466.236.113.493.193.773.238.28.045.533.068.76.068.288 0 .598-.038.931-.113.333-.076.648-.205.943-.386a2.48 2.48 0 00.738-.693c.196-.28.295-.624.295-1.033v-1.93zm5.399-5.858h2.429v2.27h.045a2.62 2.62 0 01.443-.93c.22-.303.485-.58.795-.83.31-.249.655-.45 1.033-.6a3.093 3.093 0 011.158-.228c.303 0 .51.008.624.023l.352.045v2.498c-.181-.03-.367-.057-.556-.08a4.667 4.667 0 00-.556-.034c-.44 0-.852.087-1.238.261a2.842 2.842 0 00-1.01.772c-.288.341-.515.761-.681 1.26-.167.5-.25 1.075-.25 1.726v5.586h-2.588V82.946zm9.621 6.54c0 .453.065.892.193 1.316.13.424.322.795.58 1.113.257.317.582.571.976.76.393.19.863.284 1.407.284.757 0 1.367-.163 1.828-.488.462-.326.806-.814 1.033-1.465h2.453a4.88 4.88 0 01-1.908 2.963c-.469.341-.995.598-1.578.772a6.352 6.352 0 01-1.828.262c-.923 0-1.74-.152-2.452-.455a5.07 5.07 0 01-1.805-1.271 5.396 5.396 0 01-1.112-1.953c-.25-.757-.375-1.59-.375-2.497 0-.833.132-1.624.397-2.373a6.074 6.074 0 011.136-1.975 5.43 5.43 0 011.782-1.351c.696-.333 1.483-.5 2.361-.5.924 0 1.752.193 2.487.58a5.456 5.456 0 011.827 1.532 6.206 6.206 0 011.056 2.19c.22.826.276 1.677.17 2.555h-8.628zm6.04-1.704a4.174 4.174 0 00-.261-1.18 3.146 3.146 0 00-.59-.988 2.923 2.923 0 00-.909-.681 2.676 2.676 0 00-1.192-.261c-.454 0-.866.08-1.237.238a2.83 2.83 0 00-.954.658c-.265.28-.477.61-.635.988a3.446 3.446 0 00-.262 1.226h6.04z"/>
    <path d="M285.005 83.861h-.926v-5.535h2.139c.681 0 1.194.125 1.54.375.345.25.517.655.517 1.216 0 .5-.14.865-.422 1.096-.282.232-.631.37-1.05.415l1.581 2.433h-1.049l-1.458-2.366h-.872v2.366zm1.036-3.142c.172 0 .338-.006.497-.02.16-.013.298-.051.416-.113a.76.76 0 00.286-.261c.072-.112.109-.27.109-.475a.632.632 0 00-.116-.4.772.772 0 00-.293-.228 1.223 1.223 0 00-.395-.1 4.612 4.612 0 00-.422-.02h-1.118v1.617h1.036zM291 81c0 .749-.134 1.43-.402 2.045a4.793 4.793 0 01-2.684 2.594 5.088 5.088 0 01-1.9.361c-.736 0-1.41-.127-2.024-.381a4.75 4.75 0 01-1.58-1.05 4.824 4.824 0 01-1.035-1.584A5.193 5.193 0 01281 81c0-.749.134-1.43.402-2.045a4.793 4.793 0 011.09-1.578 4.92 4.92 0 011.6-1.016 5.176 5.176 0 011.922-.361c.663 0 1.296.12 1.9.361a4.793 4.793 0 012.684 2.594c.268.615.402 1.296.402 2.045zm-1.09 0c0-.606-.1-1.163-.3-1.671a3.918 3.918 0 00-.83-1.31 3.75 3.75 0 00-1.24-.85c-.473-.2-.981-.3-1.526-.3-.554 0-1.07.1-1.547.3-.477.201-.892.484-1.246.85a3.918 3.918 0 00-.831 1.31c-.2.508-.3 1.065-.3 1.671 0 .57.09 1.105.272 1.604.182.5.443.936.784 1.31.34.375.751.671 1.233.89.481.218 1.026.327 1.635.327.545 0 1.053-.1 1.526-.3a3.75 3.75 0 001.24-.85c.354-.365.63-.8.83-1.303.2-.504.3-1.063.3-1.678zM55.55 46.813c0 4.675-.575 8.971-1.725 12.89-1.15 3.92-2.823 7.317-5.016 10.194a22.46 22.46 0 01-8.198 6.687c-3.272 1.582-7.029 2.373-11.272 2.373-3.236 0-6.13-.809-8.683-2.427-2.553-1.618-4.548-3.685-5.986-6.202V96h-4.53c-1.295 0-2.553-.234-3.776-.701a9.971 9.971 0 01-3.236-1.996c-.935-.863-1.69-1.905-2.265-3.128C.288 88.953 0 87.551 0 85.97V50.804c0-4.818.557-9.24 1.672-13.267 1.115-4.027 2.858-7.479 5.231-10.355 2.373-2.876 5.394-5.106 9.061-6.688 3.667-1.582 8.054-2.373 13.16-2.373 3.883 0 7.442.81 10.678 2.427 3.236 1.618 6.023 3.758 8.36 6.418 2.337 2.661 4.153 5.717 5.447 9.169a30.173 30.173 0 011.942 10.678zM40.666 50.59c0-6.904-1.132-11.901-3.398-14.993-2.265-3.093-5.734-4.639-10.409-4.639-4.027 0-7.1 1.564-9.222 4.692-2.121 3.129-3.182 7.21-3.182 12.243 0 5.825 1.312 10.32 3.937 13.483 2.625 3.164 6.094 4.746 10.409 4.746 3.524 0 6.382-1.42 8.575-4.26 2.194-2.84 3.29-6.598 3.29-11.272zm66.314 27.074c-3.02 0-5.41-.827-7.173-2.481-1.761-1.654-2.642-4.063-2.642-7.227v-23.73c0-2.373-.306-4.405-.917-6.095-.611-1.69-1.438-3.056-2.481-4.099a9.807 9.807 0 00-3.668-2.319c-1.402-.503-2.894-.755-4.476-.755-1.15 0-2.337.234-3.56.701-1.222.468-2.355 1.24-3.397 2.32-1.043 1.078-1.888 2.48-2.535 4.206-.647 1.726-.97 3.883-.97 6.472v33.007h-4.747c-3.452 0-5.968-.863-7.55-2.589-1.583-1.726-2.374-4.099-2.374-7.119V0h4.53c3.452 0 6.023.863 7.713 2.589 1.69 1.726 2.535 3.955 2.535 6.687v16.612c.503-.863 1.204-1.744 2.103-2.643a22.13 22.13 0 012.967-2.481 16.788 16.788 0 013.56-1.888 10.921 10.921 0 013.99-.755c7.55 0 13.411 2.176 17.582 6.526 4.171 4.35 6.256 10.66 6.256 18.93v34.086h-4.746zm67.393-30.85c0 4.675-.575 8.971-1.726 12.89-1.15 3.92-2.822 7.317-5.015 10.194a22.46 22.46 0 01-8.198 6.687c-3.272 1.582-7.03 2.373-11.272 2.373-3.236 0-6.13-.809-8.683-2.427-2.553-1.618-4.549-3.685-5.987-6.202V96h-4.53c-1.294 0-2.553-.234-3.775-.701a9.971 9.971 0 01-3.236-1.996c-.935-.863-1.69-1.905-2.265-3.128-.576-1.222-.863-2.624-.863-4.206V50.804c0-4.818.557-9.24 1.672-13.267 1.114-4.027 2.858-7.479 5.231-10.355 2.373-2.876 5.393-5.106 9.06-6.688 3.668-1.582 8.055-2.373 13.16-2.373 3.883 0 7.443.81 10.679 2.427 3.236 1.618 6.022 3.758 8.36 6.418 2.336 2.661 4.152 5.717 5.447 9.169a30.173 30.173 0 011.941 10.678zm-14.885 3.776c0-6.904-1.133-11.901-3.398-14.993-2.265-3.093-5.735-4.639-10.409-4.639-4.027 0-7.101 1.564-9.222 4.692-2.122 3.129-3.182 7.21-3.182 12.243 0 5.825 1.312 10.32 3.937 13.483 2.624 3.164 6.094 4.746 10.409 4.746 3.523 0 6.382-1.42 8.575-4.26 2.193-2.84 3.29-6.598 3.29-11.272zm73.11 4.207c0 3.739-.684 7.047-2.05 9.923-1.366 2.877-3.218 5.303-5.555 7.281-2.337 1.978-5.034 3.47-8.09 4.476-3.056 1.007-6.274 1.51-9.654 1.51h-7.982c-13.735 0-20.602-5.86-20.602-17.582V6.796c.863-.288 2.085-.63 3.667-1.025 1.582-.396 3.29-.773 5.124-1.133a70.152 70.152 0 015.609-.863c1.906-.215 3.613-.323 5.123-.323h8.953c3.524 0 6.76.45 9.708 1.348 2.948.899 5.501 2.193 7.659 3.883 2.157 1.69 3.829 3.74 5.015 6.148 1.187 2.41 1.78 5.124 1.78 8.144 0 4.1-1.043 7.46-3.128 10.086-2.085 2.624-4.962 4.476-8.63 5.555 1.87.503 3.596 1.33 5.178 2.48a21.625 21.625 0 014.153 3.938 17.312 17.312 0 012.75 4.8c.648 1.726.971 3.38.971 4.962zM216.524 24.27c0-1.582-.342-2.93-1.025-4.045a7.744 7.744 0 00-2.643-2.643c-1.079-.647-2.301-1.115-3.667-1.402a19.847 19.847 0 00-4.1-.432h-5.5c-.935 0-1.978.09-3.128.27-1.15.18-2.23.342-3.236.485v16.72h11.326c3.307 0 6.13-.702 8.467-2.104 2.337-1.402 3.506-3.685 3.506-6.85zm1.186 30.957c0-4.027-1.025-6.796-3.074-8.306-2.05-1.51-5.232-2.265-9.546-2.265h-11.757v15.21c0 1.294.61 2.39 1.833 3.29 1.223.898 2.769 1.347 4.638 1.347h6.04c4.028 0 7.012-.845 8.954-2.534 1.941-1.69 2.912-3.938 2.912-6.742zm73.218-.431c0 3.739-.684 7.047-2.05 9.923-1.366 2.877-3.218 5.303-5.555 7.281-2.337 1.978-5.034 3.47-8.09 4.476-3.056 1.007-6.274 1.51-9.654 1.51h-7.982c-13.735 0-20.602-5.86-20.602-17.582V6.796c.863-.288 2.085-.63 3.667-1.025 1.582-.396 3.29-.773 5.124-1.133a70.152 70.152 0 015.609-.863c1.906-.215 3.614-.323 5.124-.323h8.952c3.524 0 6.76.45 9.708 1.348 2.949.899 5.501 2.193 7.659 3.883 2.157 1.69 3.829 3.74 5.015 6.148 1.187 2.41 1.78 5.124 1.78 8.144 0 4.1-1.042 7.46-3.128 10.086-2.085 2.624-4.962 4.476-8.63 5.555 1.87.503 3.596 1.33 5.178 2.48a21.625 21.625 0 014.153 3.938 17.312 17.312 0 012.75 4.8c.648 1.726.972 3.38.972 4.962zM274.857 24.27c0-1.582-.342-2.93-1.025-4.045a7.744 7.744 0 00-2.643-2.643c-1.078-.647-2.3-1.115-3.667-1.402a19.847 19.847 0 00-4.099-.432h-5.501c-.935 0-1.978.09-3.128.27-1.15.18-2.23.342-3.236.485v16.72h11.326c3.308 0 6.13-.702 8.467-2.104 2.337-1.402 3.506-3.685 3.506-6.85zm1.186 30.957c0-4.027-1.024-6.796-3.074-8.306-2.05-1.51-5.231-2.265-9.546-2.265h-11.757v15.21c0 1.294.61 2.39 1.833 3.29 1.223.898 2.769 1.347 4.639 1.347h6.04c4.027 0 7.011-.845 8.953-2.534 1.941-1.69 2.912-3.938 2.912-6.742z"/>
  </g>
</svg>
