<?xml version="1.0" encoding="UTF-8"?>
<svg id="Ebene_2" data-name="Ebene 2" xmlns="http://www.w3.org/2000/svg" xmlns:xlink="http://www.w3.org/1999/xlink" viewBox="0 0 73.75 92.51">
  <defs>
    <style>
      .cls-1 {
        fill: #d3575d;
      }

      .cls-1, .cls-2 {
        stroke-width: 0px;
      }

      .cls-2 {
        fill: url(#Neues_Verlaufsfeld_1);
      }
    </style>
    <linearGradient id="Neues_Verlaufsfeld_1" data-name="Neues Verlaufsfeld 1" x1="36.87" y1="2" x2="36.87" y2="90.51" gradientUnits="userSpaceOnUse">
      <stop offset="0" stop-color="#fdf4dc"/>
      <stop offset=".03" stop-color="#fdf1d3"/>
      <stop offset=".11" stop-color="#fdebc1"/>
      <stop offset=".19" stop-color="#fde8b5"/>
      <stop offset=".28" stop-color="#fee7b2"/>
      <stop offset=".67" stop-color="#fed36d"/>
      <stop offset=".89" stop-color="#ffc232"/>
      <stop offset="1" stop-color="#e5832c"/>
    </linearGradient>
  </defs>
  <g id="Layer_1" data-name="Layer 1">
    <g id="Fire">
      <g>
        <path class="cls-2" d="m31.52,2.02c-.34.31,4.05,4.97,4.5,11.33.46,6.46-5.95,9.98-15.32,19-9.54,9.18-9.98,10.45-14.01,17.17-2.05,3.42-4.96,8.42-4.67,15.17.31,7.07,3.96,11.98,5.83,14.5,5.99,8.07,14.53,11.79,15,11.17.42-.56-4.79-3.78-7.65-11.17-4.2-10.82,3.07-21.76,4.04-23.17,4.04-5.88,8.57-10.24,9.45-9.5.68.58-2.19,3.41-2.83,8.5-.68,5.32,1.22,12.05,5,13.33,2.64.9,3.79-1.68,8.5-2.17,4.55-.47,10.46,1.22,12.83,5,3.59,5.73-6.73,17.99-4.83,19.23,1.93,1.27,14.39-10,19.33-19.4,2.62-4.98,6.94-13.2,4.17-21.17-2.13-6.14-6.61-6.8-7.67-13.33-1.04-6.42,2.45-10.91,1.17-11.67-1.41-.83-7.37,3.52-9.17,9.83-1.74,6.12,1.75,9.51-.83,13-2.04,2.76-6.43,3.67-10,2.67-2.94-.83-6.33-3.24-6.83-6.5-.47-3.05,1.96-4.5,5.5-11.17,2-3.76,3.26-6.15,3.67-8.5,1.86-10.9-14.59-22.7-15.17-22.17Z"/>
        <path class="cls-1" d="m47.74,92.51c-.67,0-1.16-.21-1.48-.42-2.23-1.46-.85-4.16,1.05-7.9,1.91-3.73,4.79-9.38,3.18-11.95-1.92-3.05-7.06-4.47-10.94-4.07-1.89.19-3.06.77-4.18,1.33-1.41.69-3,1.48-5.17.75-4.92-1.67-7.12-9.34-6.34-15.48.09-.72.22-1.4.38-2.04-1.05,1.25-2.2,2.73-3.36,4.42-1.29,1.88-7.54,11.74-3.82,21.31,1.8,4.64,4.63,7.53,6.15,9.09,1.07,1.09,2.4,2.45,1.23,4-.24.32-.8.87-1.82.87h0c-2.23,0-10.48-4.11-16.38-12.04-1.91-2.57-5.89-7.93-6.23-15.61-.33-7.48,2.98-12.99,4.95-16.28l.81-1.35c3.35-5.62,4.48-7.52,13.53-16.23,2.28-2.2,4.39-4.07,6.25-5.72,6.06-5.39,8.73-7.93,8.46-11.69-.29-4.09-2.5-7.54-3.56-9.19-.69-1.07-1.63-2.54-.29-3.76h0c1.15-1.05,2.54-.29,2.99-.05,3.95,2.16,17.34,13.19,15.49,24.02-.46,2.67-1.82,5.23-3.87,9.1-1.36,2.56-2.54,4.34-3.49,5.78-1.5,2.27-1.97,3.04-1.8,4.14.35,2.28,3.04,4.22,5.4,4.88,2.99.84,6.43,0,7.85-1.93.8-1.08.67-2.13.33-4.22-.34-2.12-.77-4.75.19-8.13,1.64-5.79,6.23-9.93,8.97-11.03,1.23-.49,2.28-.49,3.14.02,1.89,1.12,1.25,3.21.69,5.06-.6,1.99-1.43,4.72-.9,8.01.48,3,1.76,4.45,3.37,6.29,1.46,1.66,3.11,3.54,4.21,6.7,3.05,8.79-1.54,17.53-4.28,22.75-4.5,8.56-15.46,19.32-19.79,20.44-.34.09-.65.12-.93.12Zm-6.85-28.41c4.83,0,10.43,1.93,12.99,6.01,2.82,4.49-.55,11.08-3.01,15.89-.13.25-.26.52-.4.79,4.1-3.19,11.05-10.26,14.44-16.72,2.44-4.65,6.53-12.43,4.05-19.58-.84-2.42-2.1-3.86-3.44-5.38-1.71-1.95-3.65-4.16-4.32-8.29-.59-3.66.11-6.69.75-8.88-1.71,1.42-3.92,4-4.85,7.28-.72,2.52-.4,4.5-.09,6.4.38,2.34.77,4.76-1.06,7.24-2.74,3.71-8.19,4.52-12.15,3.4-3.53-.99-7.63-3.96-8.27-8.12-.41-2.68.78-4.47,2.42-6.96.9-1.36,2.02-3.06,3.29-5.45,1.94-3.65,3.11-5.86,3.46-7.9.91-5.36-3.52-11.18-7.6-15.15.45,1.37.79,2.89.9,4.51.42,5.89-3.65,9.5-9.8,14.97-1.83,1.63-3.91,3.47-6.13,5.62-8.67,8.34-9.64,9.98-12.87,15.4l-.81,1.36c-1.85,3.09-4.66,7.77-4.38,14.05.28,6.45,3.64,10.97,5.44,13.39,1.88,2.52,3.97,4.56,5.94,6.14-.74-1.23-1.45-2.64-2.07-4.22-4.44-11.45,2.77-22.85,4.26-25.02.28-.41,6.86-9.94,10.48-10.43.71-.09,1.39.09,1.91.53,1.5,1.27.59,3.03-.08,4.31-.69,1.33-1.73,3.33-2.06,5.97-.61,4.81,1.2,10.35,3.66,11.19.54.19.86.07,2.11-.54,1.24-.61,2.93-1.45,5.54-1.72.56-.06,1.15-.09,1.74-.09Z"/>
      </g>
    </g>
  </g>
</svg>