<?xml version="1.0" encoding="UTF-8"?>
<svg id="Ebene_2" data-name="Ebene 2" xmlns="http://www.w3.org/2000/svg" viewBox="0 0 83.37 83.37">
  <defs>
    <style>
      .cls-1 {
        fill: #196db5;
        stroke-linecap: round;
        stroke-linejoin: round;
      }

      .cls-1, .cls-2 {
        stroke: #196db5;
        stroke-width: 4px;
      }

      .cls-2 {
        fill: #ecedf0;
        stroke-miterlimit: 10;
      }
    </style>
  </defs>
  <g id="Layer_1" data-name="Layer 1">
    <g id="radioactive">
      <circle class="cls-2" cx="41.69" cy="41.69" r="39.69"/>
      <path class="cls-1" d="m37.09,32.64l-6.37-14.01h0c-1.8.93-3.47,2.08-4.98,3.4-5.36,4.68-8.75,11.56-8.75,19.23,0,0,14.54,0,14.54,0,0-2.4.89-4.59,2.37-6.26.88-.99,1.96-1.8,3.18-2.36"/>
      <path class="cls-1" d="m46.95,50.36l8.55,12.8h0c-1.74,1.04-3.6,1.85-5.52,2.44-6.8,2.09-14.43,1.34-20.95-2.71,0,0,7.67-12.35,7.67-12.35,2.04,1.27,4.37,1.66,6.57,1.29,1.31-.22,2.57-.72,3.68-1.46"/>
      <path class="cls-1" d="m46.28,32.64l6.37-14.01h0c1.8.93,3.47,2.08,4.98,3.4,5.36,4.68,8.75,11.56,8.75,19.23,0,0-14.54,0-14.54,0,0-2.4-.89-4.59-2.37-6.26-.88-.99-1.96-1.8-3.18-2.36"/>
    </g>
  </g>
</svg>